<svg xmlns="http://www.w3.org/2000/svg" xmlns:xlink="http://www.w3.org/1999/xlink" viewBox="0 0 382.3 777.9"><defs><style>.cls-1,.cls-18,.cls-20,.cls-28,.cls-3,.cls-33,.cls-39,.cls-40,.cls-6{fill:none;}.cls-2,.cls-4{fill:#fff;}.cls-3,.cls-4{stroke:#d0d2d3;stroke-width:3px;}.cls-16,.cls-20,.cls-3,.cls-40{stroke-linecap:round;stroke-linejoin:round;}.cls-4,.cls-6,.cls-7,.cls-9{stroke-miterlimit:10;}.cls-5,.cls-7{fill:#f1f1f2;}.cls-6,.cls-7,.cls-9{stroke:#dbdbdb;}.cls-6,.cls-9{stroke-width:2px;}.cls-7{stroke-width:1.5px;}.cls-8{fill:#f9fafb;}.cls-9{fill:#e5e5e5;}.cls-10{clip-path:url(#clip-path);}.cls-11{clip-path:url(#clip-path-2);}.cls-12{clip-path:url(#clip-path-3);}.cls-13,.cls-14,.cls-19,.cls-21,.cls-25,.cls-26,.cls-27,.cls-31,.cls-34{isolation:isolate;}.cls-14{font-size:10.86px;font-family:Helvetica, Helvetica;}.cls-15{letter-spacing:-0.05em;}.cls-16{stroke:#000;stroke-width:0.9px;}.cls-17{fill:#fafafa;}.cls-18,.cls-39{stroke:#fff;}.cls-18,.cls-28,.cls-30,.cls-33{stroke-width:0.9px;}.cls-19{font-size:26.98px;font-family:Garamond-Bold, Garamond;font-weight:700;}.cls-20{stroke:#7c7c7c;}.cls-20,.cls-39,.cls-40{stroke-width:1.8px;}.cls-21,.cls-25,.cls-27,.cls-31,.cls-34{font-size:8.99px;}.cls-21,.cls-42{fill:#6c6c6c;}.cls-21,.cls-25,.cls-34{font-family:Avenir-Book, Avenir;}.cls-22{letter-spacing:-0.01em;}.cls-23{letter-spacing:-0.02em;}.cls-24{letter-spacing:0em;}.cls-25,.cls-26,.cls-34,.cls-43{fill:#3b3b3b;}.cls-26{font-size:13.49px;}.cls-26,.cls-27{font-family:Avenir-Black, Avenir;}.cls-27,.cls-30,.cls-41{fill:#95989a;}.cls-28,.cls-30,.cls-40{stroke:#95989a;}.cls-29{fill:#ebebeb;}.cls-31{fill:#47ad92;font-family:Avenir-Medium, Avenir;}.cls-32{letter-spacing:-0.02em;}.cls-33{stroke:#ebebeb;}.cls-34,.cls-36{letter-spacing:-0.11em;}.cls-35{letter-spacing:0em;}.cls-37{fill:url(#linear-gradient);}.cls-38{fill:#7c7c7c;}</style><clipPath id="clip-path"><rect class="cls-1" x="330.73" y="87.66" width="21.71" height="10.4" rx="2.26" ry="2.26"/></clipPath><clipPath id="clip-path-2"><path class="cls-1" d="M353.34,90.94a2,2,0,0,1,0,3.84Z"/></clipPath><clipPath id="clip-path-3"><path class="cls-1" d="M332.54,90.38a.9.9,0,0,1,.9-.9h16.3a.9.9,0,0,1,.9.9h0v5a.9.9,0,0,1-.9.9h-16.3a.9.9,0,0,1-.9-.9h0Z"/></clipPath><linearGradient id="linear-gradient" x1="-32.95" y1="797.26" x2="-32.95" y2="796.36" gradientTransform="matrix(375, 0, 0, -49, 12545.22, 39707.17)" gradientUnits="userSpaceOnUse"><stop offset="0" stop-color="#080808"/><stop offset="1"/></linearGradient></defs><title>Asset 9</title><g id="Layer_2" data-name="Layer 2"><g id="iPhone_6_-_4.7_" data-name="iPhone 6 - 4.7&apos;&apos;"><rect class="cls-2" x="1.5" y="88.33" width="44.15" height="33.07" rx="2" ry="2"/><rect class="cls-3" x="1.5" y="88.33" width="44.15" height="33.07" rx="2" ry="2"/><rect class="cls-2" x="1.64" y="158.83" width="44.01" height="58.57" rx="2" ry="2"/><rect class="cls-3" x="1.64" y="158.83" width="44.01" height="58.57" rx="2" ry="2"/><rect class="cls-2" x="336.8" y="158.85" width="44" height="58.55" rx="3" ry="3"/><rect class="cls-3" x="336.8" y="158.85" width="44" height="58.55" rx="3" ry="3"/><rect class="cls-2" x="1.79" y="231.12" width="44.01" height="58.57" rx="2" ry="2"/><rect class="cls-3" x="1.79" y="231.12" width="44.01" height="58.57" rx="2" ry="2"/><rect class="cls-4" x="6.92" y="1.5" width="368" height="774.9" rx="51.87" ry="51.87"/><rect class="cls-5" x="18.65" y="81.4" width="344" height="606" rx="3" ry="3"/><rect class="cls-6" x="18.65" y="81.4" width="344" height="606" rx="3" ry="3"/><circle class="cls-7" cx="128.45" cy="43.24" r="6.61"/><circle class="cls-8" cx="190.01" cy="732.47" r="26.35"/><rect class="cls-9" x="159.65" y="40.4" width="60" height="6" rx="2.96" ry="2.96"/><g id="iOS_App_iPhone_4.7_Display_Modal_Sheet" data-name="iOS App iPhone 4.7 Display Modal Sheet"><g id="Body"><rect id="Background-2" class="cls-2" x="20.46" y="84.04" width="339.22" height="603.36"/></g><g id="Navigation_Bar" data-name="Navigation Bar"><g id="Navigaton_Bar" data-name="Navigaton Bar"><rect id="Background-3" class="cls-2" x="20.46" y="84.04" width="339.22" height="57.89"/></g><g id="Status_Bar_on_Light" data-name="Status Bar on Light"><rect id="Background-4" class="cls-1" x="20.46" y="84.04" width="339.22" height="18.09"/><g id="Right"><g id="Battery"><g class="cls-10"><g id="Battery_Outline" data-name="Battery Outline"><g id="Group_277" data-name="Group 277"><path id="Path_727" data-name="Path 727" class="cls-1" d="M330.73,89.92A2.26,2.26,0,0,1,333,87.66h17.19a2.26,2.26,0,0,1,2.26,2.26V95.8a2.26,2.26,0,0,1-2.26,2.26H333a2.26,2.26,0,0,1-2.26-2.26Z"/></g></g></g><g class="cls-11"><g id="Cap"><path id="Path_729" data-name="Path 729" d="M348.82,99.31h10.4V86.42h-10.4Z"/></g></g><g class="cls-12"><g id="Battery_Fill" data-name="Battery Fill"><path id="Path_731" data-name="Path 731" d="M328,100.78h27.14V84.95H328Z"/></g></g></g><g id="_Group_" data-name="&lt;Group&gt;" class="cls-13"><text class="cls-14" transform="translate(300.74 96.71)">100%</text></g><path id="Bluetooth" d="M291.38,87.21,295,90.38l-2.49,2.26L295,94.9l-3.62,3.17v-4.3l-2,2-.68-.68,2.49-2.49-2.49-2.49.68-.68,2,2Zm.9,2.14v2.38l1.36-1.27Zm0,4.19V96l1.36-1.17Z"/></g><g id="_9:41_AM" data-name=" 9:41 AM" class="cls-13"><text class="cls-14" transform="translate(170.6 97.61)">9:41<tspan class="cls-15" x="21.13" y="0"> </tspan><tspan x="23.55" y="0">AM</tspan></text></g><g id="Left"><path id="Bars" d="M38.77,88.11h1.36a.68.68,0,0,1,.68.68v7.69a.68.68,0,0,1-.68.68H38.77a.68.68,0,0,1-.68-.68V88.79h0A.68.68,0,0,1,38.77,88.11ZM34.7,89.92h1.36a.68.68,0,0,1,.68.68v5.88a.68.68,0,0,1-.68.68H34.7a.68.68,0,0,1-.68-.68V90.6A.68.68,0,0,1,34.7,89.92Zm-4.07,1.81H32a.68.68,0,0,1,.68.68v4.07a.68.68,0,0,1-.68.68H30.63a.68.68,0,0,1-.68-.68V92.41A.68.68,0,0,1,30.63,91.73Zm-4.07,1.36h1.36a.68.68,0,0,1,.68.68v2.71a.68.68,0,0,1-.68.68H26.56a.68.68,0,0,1-.68-.68V93.77A.68.68,0,0,1,26.56,93.09Z"/><path id="Wifi" class="cls-16" d="M44.87,90.82a8.82,8.82,0,0,1,11.78,0l-.8.8a7.69,7.69,0,0,0-10.17,0ZM47,93a5.77,5.77,0,0,1,7.44,0l-.8.8a4.64,4.64,0,0,0-5.85,0Zm2.26,2.26a2.6,2.6,0,0,1,2.94,0l-1.47,1.47Z"/></g></g></g></g><g id="Rectangle_5" data-name="Rectangle 5"><rect class="cls-17" x="37.12" y="417.46" width="306.64" height="128.59"/><rect class="cls-18" x="37.57" y="417.91" width="305.74" height="127.69"/></g><g id="Medium" class="cls-13"><text class="cls-19" transform="translate(142.33 130.61)">Medium</text></g><g id="Group_280" data-name="Group 280"><circle id="Ellipse_13" data-name="Ellipse 13" class="cls-20" cx="335.59" cy="120.63" r="6.21"/><line id="Line_19" data-name="Line 19" class="cls-20" x1="340.25" y1="125.29" x2="346.46" y2="131.51"/></g><g id="Group_281" data-name="Group 281"><g id="BASED_ON_YOUR_READING_HISTORY" data-name="BASED ON YOUR READING HISTORY" class="cls-13"><text class="cls-21" transform="translate(37.12 323.04)">BASED ON YOUR READING HISTO<tspan class="cls-22" x="143.88" y="0">R</tspan><tspan x="149.09" y="0">Y</tspan></text></g><g id="Subtitle" class="cls-13"><text class="cls-21" transform="translate(37.12 359.01)">Subtitle</text></g><g id="May_28_3_min_read" data-name="May 28 3 min read" class="cls-13"><text class="cls-21" transform="translate(37.12 401.28)">May 28 • 3 min <tspan class="cls-23" x="63.82" y="0">r</tspan><tspan class="cls-24" x="66.64" y="0">ead</tspan></text></g><g id="John_Smith" data-name="John Smith" class="cls-13"><text class="cls-25" transform="translate(37.12 388.69)">John Smith</text></g><g id="Title_Example" data-name="Title Example" class="cls-13"><text class="cls-26" transform="translate(37.12 342.83)">Title Example</text></g><g id="_" data-name=" " class="cls-13"><text class="cls-27" transform="translate(321.28 401.28)">•••</text></g><path id="ic_bookmark_24px" data-name="ic bookmark 24px" class="cls-28" d="M305,392.28h-6.65a1.33,1.33,0,0,0-1.32,1.33v10.63l4.65-2,4.65,2V393.61A1.33,1.33,0,0,0,305,392.28Z"/><rect id="Rectangle_3" data-name="Rectangle 3" class="cls-29" x="294.3" y="332.04" width="41.36" height="41.36" rx="2.7" ry="2.7"/></g><g id="Group_283" data-name="Group 283"><g id="Path_733-3" data-name="Path 733-3"><path class="cls-2" d="M297.9,287.52H40.72a3.15,3.15,0,0,1-3.15-3.15v-125a3.15,3.15,0,0,1,3.15-3.15H297.9a3.15,3.15,0,0,1,3.15,3.15v125A3.15,3.15,0,0,1,297.9,287.52Z"/><path class="cls-29" d="M297.9,287.07a2.7,2.7,0,0,0,2.7-2.7v-125a2.7,2.7,0,0,0-2.7-2.7H40.72a2.7,2.7,0,0,0-2.7,2.7v125a2.7,2.7,0,0,0,2.7,2.7H297.9m0,.9H40.72a3.6,3.6,0,0,1-3.6-3.6v-125a3.6,3.6,0,0,1,3.6-3.6H297.9a3.6,3.6,0,0,1,3.6,3.6v125A3.6,3.6,0,0,1,297.9,288Z"/></g><rect id="Rectangle_4" data-name="Rectangle 4" class="cls-29" x="38.02" y="156.69" width="262.58" height="50.36"/><g id="Group_282" data-name="Group 282"><g id="Subtitle-2" class="cls-13"><text class="cls-21" transform="translate(47.02 243.01)">Subtitle</text></g><g id="May_28_3_min_read-2" data-name="May 28 3 min read-2" class="cls-13"><text class="cls-21" transform="translate(47.02 278.08)">May 28 • 3 min <tspan class="cls-23" x="63.82" y="0">r</tspan><tspan class="cls-24" x="66.64" y="0">ead</tspan></text></g><g id="John_Smith-2" data-name="John Smith-2" class="cls-13"><text class="cls-25" transform="translate(47.02 265.49)">John Smith</text></g><g id="Title_Example-2" data-name="Title Example-2" class="cls-13"><text class="cls-26" transform="translate(47.02 229.52)">Title Example</text></g></g></g><g id="Group_285" data-name="Group 285"><g id="BASED_ON_YOUR_READING_HISTORY-2" data-name="BASED ON YOUR READING HISTORY-2" class="cls-13"><text class="cls-21" transform="translate(37.12 323.04)">BASED ON YOUR READING HISTO<tspan class="cls-22" x="143.88" y="0">R</tspan><tspan x="149.09" y="0">Y</tspan></text></g><g id="Subtitle-4" class="cls-13"><text class="cls-21" transform="translate(37.12 359.01)">Subtitle</text></g><g id="May_28_3_min_read-4" data-name="May 28 3 min read-4" class="cls-13"><text class="cls-21" transform="translate(37.12 401.28)">May 28 • 3 min <tspan class="cls-23" x="63.82" y="0">r</tspan><tspan class="cls-24" x="66.64" y="0">ead</tspan></text></g><g id="John_Smith-4" data-name="John Smith-4" class="cls-13"><text class="cls-25" transform="translate(37.12 388.69)">John Smith</text></g><g id="Title_Example-4" data-name="Title Example-4" class="cls-13"><text class="cls-26" transform="translate(37.12 342.83)">Title Example</text></g><g id="_2" data-name=" 2" class="cls-13"><text class="cls-27" transform="translate(321.28 401.28)">•••</text></g><path id="ic_bookmark_24px-2" data-name="ic bookmark 24px-2" class="cls-30" d="M305,392.28h-6.65a1.33,1.33,0,0,0-1.32,1.33v10.63l4.65-2,4.65,2V393.61A1.33,1.33,0,0,0,305,392.28Z"/><rect id="Rectangle_3-2" data-name="Rectangle 3-2" class="cls-29" x="294.3" y="332.04" width="41.36" height="41.36" rx="2.7" ry="2.7"/></g><g id="Group_293" data-name="Group 293"><g id="Bookmark" class="cls-13"><text class="cls-26" transform="translate(54.21 448.04)">Bookmark</text></g><g id="Create_New_Shelf" data-name="Create New Shelf" class="cls-13"><text class="cls-31" transform="translate(54.21 467.82)">C<tspan class="cls-32" x="6.33" y="0">r</tspan><tspan x="9.5" y="0">eate New Shelf</tspan></text></g><line id="Line_54" data-name="Line 54" class="cls-33" x1="53.76" y1="478.16" x2="328.02" y2="477.26"/><g id="Group_292" data-name="Group 292"><g id="Group_291" data-name="Group 291"><g id="UX_Design" data-name="UX Design" class="cls-13"><text class="cls-25" transform="translate(54.21 493.9)">UX Design</text></g><g id="To-Read" class="cls-13"><text class="cls-34" transform="translate(54.21 525.37)">T<tspan class="cls-35" x="4.16" y="0">o-Read</tspan></text></g><g id="Interesting_Thoughts" data-name="Interesting Thoughts" class="cls-13"><text class="cls-25" transform="translate(54.21 510.08)">Inte<tspan class="cls-23" x="15.36" y="0">r</tspan><tspan class="cls-24" x="18.18" y="0">esting Thoughts</tspan></text></g></g><g id="Group_290" data-name="Group 290"><path id="ic_bookmark_24px-3" data-name="ic bookmark 24px-3" class="cls-30" d="M180,485.8h-6.65a1.33,1.33,0,0,0-1.32,1.33v10.63l4.65-2,4.65,2V487.13A1.33,1.33,0,0,0,180,485.8Z"/><path id="ic_bookmark_24px-4" data-name="ic bookmark 24px-4" class="cls-28" d="M180,516.38h-6.65a1.33,1.33,0,0,0-1.32,1.33v10.63l4.65-2,4.65,2V517.71A1.33,1.33,0,0,0,180,516.38Z"/><path id="ic_bookmark_24px-5" data-name="ic bookmark 24px-5" class="cls-28" d="M180,501.09h-6.65a1.33,1.33,0,0,0-1.32,1.33v10.63l4.65-2,4.65,2V502.42A1.33,1.33,0,0,0,180,501.09Z"/></g><g id="Tech" class="cls-13"><text class="cls-25" transform="translate(200.78 493.9)"><tspan class="cls-36">T</tspan><tspan x="4.16" y="0">ech</tspan></text></g><g id="Music" class="cls-13"><text class="cls-25" transform="translate(200.78 510.08)">Music</text></g><path id="ic_bookmark_24px-6" data-name="ic bookmark 24px-6" class="cls-28" d="M326.56,485.8h-6.65a1.33,1.33,0,0,0-1.32,1.33v10.63l4.65-2,4.65,2V487.13A1.33,1.33,0,0,0,326.56,485.8Z"/><path id="ic_bookmark_24px-7" data-name="ic bookmark 24px-7" class="cls-28" d="M326.56,501.09h-6.65a1.33,1.33,0,0,0-1.32,1.33v10.63l4.65-2,4.65,2V502.42A1.33,1.33,0,0,0,326.56,501.09Z"/></g></g><line id="Line_55" data-name="Line 55" class="cls-33" x1="40.27" y1="558.19" x2="338.82" y2="558.19"/><g id="Group_294" data-name="Group 294"><g id="BASED_ON_YOUR_READING_HISTORY-3" data-name="BASED ON YOUR READING HISTORY-3" class="cls-13"><text class="cls-21" transform="translate(43.42 582.02)">BASED ON YOUR READING HISTO<tspan class="cls-22" x="143.88" y="0">R</tspan><tspan x="149.09" y="0">Y</tspan></text></g><g id="Subtitle-5" class="cls-13"><text class="cls-21" transform="translate(43.42 617.99)">Subtitle</text></g><g id="May_28_3_min_read-5" data-name="May 28 3 min read-5" class="cls-13"><text class="cls-21" transform="translate(43.42 660.26)">May 28 • 3 min <tspan class="cls-23" x="63.82" y="0">r</tspan><tspan class="cls-24" x="66.64" y="0">ead</tspan></text></g><g id="John_Smith-5" data-name="John Smith-5" class="cls-13"><text class="cls-25" transform="translate(43.42 647.67)">John Smith</text></g><g id="Title_Example-5" data-name="Title Example-5" class="cls-13"><text class="cls-26" transform="translate(43.42 601.81)">Title Example</text></g><g id="_3" data-name=" 3" class="cls-13"><text class="cls-27" transform="translate(327.57 660.26)">•••</text></g><path id="ic_bookmark_24px-8" data-name="ic bookmark 24px-8" class="cls-28" d="M311.27,651.26h-6.65a1.33,1.33,0,0,0-1.32,1.33v10.63l4.65-2,4.65,2V652.59A1.33,1.33,0,0,0,311.27,651.26Z"/><rect id="Rectangle_3-3" data-name="Rectangle 3-3" class="cls-29" x="300.6" y="591.01" width="41.36" height="41.36" rx="2.7" ry="2.7"/></g><g id="Group_279" data-name="Group 279"><rect id="Background" class="cls-37" x="21.84" y="641.37" width="337.21" height="44.06"/><g id="Group_278" data-name="Group 278"><path id="Path_80" data-name="Path 80" class="cls-20" d="M190.48,671h5.23a1.93,1.93,0,0,0,2-1.89s0,0,0-.07v-7.85l-4.58-4.58h-5.23a1.93,1.93,0,0,0-2,1.89s0,0,0,.07v3.27"/><path id="Path_81" data-name="Path 81" class="cls-20" d="M193.1,659.27a1.93,1.93,0,0,0,1.89,2h2.69l-4.58-4.58Z"/><line id="Line_50" data-name="Line 50" class="cls-20" x1="184.6" y1="667.12" x2="189.83" y2="667.12"/><line id="Line_51" data-name="Line 51" class="cls-20" x1="187.21" y1="664.51" x2="187.21" y2="669.74"/></g><path id="ic_bookmark_border_24px" data-name="ic bookmark border 24px" class="cls-38" d="M128.84,654.86h-9a1.8,1.8,0,0,0-1.79,1.8V671l6.29-2.7,6.29,2.7V656.66A1.8,1.8,0,0,0,128.84,654.86Zm0,13.49-4.5-2-4.5,2V656.66h9Z"/><path id="ic_notifications_none_24px" data-name="ic notifications none 24px" class="cls-38" d="M259.23,672.39a1.8,1.8,0,0,0,1.8-1.8h-3.6A1.8,1.8,0,0,0,259.23,672.39Zm5.4-5.4v-4.5c0-2.76-1.47-5.07-4-5.68v-.61a1.35,1.35,0,1,0-2.7,0v.61c-2.57.61-4,2.91-4,5.68V667l-1.8,1.8v.9h14.39v-.9Zm-1.8.9h-7.19v-5.4c0-2.23,1.36-4,3.6-4s3.6,1.82,3.6,4Z"/><path id="ic_person_outline_24px" data-name="ic person outline 24px" class="cls-38" d="M327.57,658.37a1.89,1.89,0,1,1-1.89,1.89,1.89,1.89,0,0,1,1.89-1.89h0m0,8.09c2.67,0,5.49,1.31,5.49,1.89v1h-11v-1c0-.58,2.81-1.89,5.49-1.89m0-9.8a3.6,3.6,0,1,0,3.6,3.6A3.6,3.6,0,0,0,327.57,656.66Zm0,8.09c-2.4,0-7.19,1.2-7.19,3.6V671h14.39v-2.7C334.77,666,330,664.75,327.57,664.75Z"/><path id="ic_home_24px" data-name="ic home 24px" class="cls-39" d="M53.76,671v-5.4h3.6V671h4.5v-7.19h2.7l-9-8.09-9,8.09h2.7V671Z"/></g><g id="Group_297" data-name="Group 297"><path id="Path_61" data-name="Path 61" class="cls-40" d="M320.78,438.4l3.85-3.85,3.85,3.85"/></g><g id="Group_323" data-name="Group 323"><path id="Path_734" data-name="Path 734" class="cls-41" d="M54.21,120.82a9.1,9.1,0,0,0-18.2,0v4.31a4.42,4.42,0,0,0,4.42,4.42A.53.53,0,0,0,41,129h0v-7.78a.53.53,0,0,0-.53-.52h0a4.41,4.41,0,0,0-3.36,1.55v-1.45a8,8,0,0,1,16.09,0,.54.54,0,0,1,0,.21v1.45a4.41,4.41,0,0,0-3.36-1.56.53.53,0,0,0-.53.52h0v7.78a.53.53,0,0,0,.52.53h0a4.42,4.42,0,0,0,4.42-4.42V121a.54.54,0,0,0,0-.11A.48.48,0,0,0,54.21,120.82Zm-14.31,1v6.64a3.36,3.36,0,0,1,0-6.65Zm10.42,6.85V122a3.36,3.36,0,0,1,0,6.65Z"/></g><path class="cls-2" d="M339.33,262.2a1.52,1.52,0,0,0-.5-.35,1.73,1.73,0,0,0-1.32,0,1.46,1.46,0,0,0-.5.35,1.64,1.64,0,0,0-.31.53,2,2,0,0,0,0,1.31,1.64,1.64,0,0,0,.31.53,1.46,1.46,0,0,0,.5.35,1.74,1.74,0,0,0,1.32,0,1.52,1.52,0,0,0,.5-.35,1.59,1.59,0,0,0,.32-.53,2,2,0,0,0,0-1.31A1.59,1.59,0,0,0,339.33,262.2Z"/><path class="cls-2" d="M342.51,241.56a1.6,1.6,0,0,0,.35.53,1.67,1.67,0,0,0,.53.35,1.7,1.7,0,0,0,.67.13,1.61,1.61,0,0,0,.66-.13,1.51,1.51,0,0,0,.5-.35,1.57,1.57,0,0,0,.32-.53,2,2,0,0,0,0-1.31,1.58,1.58,0,0,0-.32-.53,1.51,1.51,0,0,0-.5-.35,1.61,1.61,0,0,0-.66-.13,1.7,1.7,0,0,0-.67.13,1.67,1.67,0,0,0-.53.35,1.61,1.61,0,0,0-.35.53,1.78,1.78,0,0,0,0,1.31Z"/><path class="cls-2" d="M358.17,275a1.53,1.53,0,0,0-.57.1,1.23,1.23,0,0,0-.43.27,1.28,1.28,0,0,0-.27.41,1.4,1.4,0,0,0,0,1,1.26,1.26,0,0,0,.27.41,1.23,1.23,0,0,0,.43.27,1.65,1.65,0,0,0,1.13,0,1.21,1.21,0,0,0,.43-.27,1.23,1.23,0,0,0,.27-.41,1.4,1.4,0,0,0,0-1,1.25,1.25,0,0,0-.27-.41,1.21,1.21,0,0,0-.43-.27A1.55,1.55,0,0,0,358.17,275Z"/><path class="cls-2" d="M356.29,224.63a1.2,1.2,0,0,0-.9-.36,1.54,1.54,0,0,0-.59.11,1.5,1.5,0,0,0-.44.28,1.23,1.23,0,0,0-.28.39,1.3,1.3,0,0,0-.12.47h2.67A1.17,1.17,0,0,0,356.29,224.63Z"/><path class="cls-2" d="M359.51,239.23a1.44,1.44,0,0,0-.56.11,1.59,1.59,0,0,0-.47.3,1.52,1.52,0,0,0-.32.43,1.11,1.11,0,0,0-.12.5h2.59v-.8a1.21,1.21,0,0,0-.11-.17A1.33,1.33,0,0,0,359.51,239.23Z"/><path class="cls-2" d="M341.65,276a3.22,3.22,0,0,0-.65.11,1.42,1.42,0,0,0-.53.27.6.6,0,0,0-.22.49.69.69,0,0,0,.09.35.71.71,0,0,0,.23.24,1,1,0,0,0,.32.13,1.56,1.56,0,0,0,.35,0,1.35,1.35,0,0,0,.56-.11,1.15,1.15,0,0,0,.64-.72,1.77,1.77,0,0,0,.08-.53V276h-.31Z"/><path class="cls-2" d="M358.17,241.66a1.58,1.58,0,0,0,.33.48,1.55,1.55,0,0,0,.48.32,1.45,1.45,0,0,0,.58.12,1.5,1.5,0,0,0,.82-.22,1.93,1.93,0,0,0,.24-.19v-1.1H358A1.79,1.79,0,0,0,358.17,241.66Z"/><path class="cls-2" d="M322.18,284.38a2.7,2.7,0,0,0,2.7,2.7h35.74V261.73l-.1,0a1,1,0,0,0-.4.2,1.46,1.46,0,0,0-.37.49,2,2,0,0,0-.17.9v2.16H359v-3.27c0-.16,0-.31,0-.47s0-.31,0-.47h.64v.64h0a1.4,1.4,0,0,1,.6-.56,1.82,1.82,0,0,1,.43-.15V242.86l-.09.05a2.32,2.32,0,0,1-1,.21,2.22,2.22,0,0,1-.87-.17,2,2,0,0,1-.69-.46,2.17,2.17,0,0,1-.45-.7,2.3,2.3,0,0,1-.17-.88,2.34,2.34,0,0,1,.16-.88,2.11,2.11,0,0,1,.45-.7,2.06,2.06,0,0,1,.67-.46,2.09,2.09,0,0,1,.84-.17,1.83,1.83,0,0,1,1.12.32V207H322.18Zm9.12-20.05.65-.14a1.23,1.23,0,0,0,.33.64.94.94,0,0,0,.68.23,1.06,1.06,0,0,0,.57-.14,1,1,0,0,0,.34-.36,1.53,1.53,0,0,0,.17-.5,3.71,3.71,0,0,0,0-.58v-4.35h.65v4.62a2.72,2.72,0,0,1-.09.66,1.63,1.63,0,0,1-.85,1.07,1.83,1.83,0,0,1-.85.18,1.75,1.75,0,0,1-1.1-.34A1.5,1.5,0,0,1,331.3,264.32Zm3.58-23.46a1.21,1.21,0,0,0-.37-.37,2.35,2.35,0,0,0-.52-.25l-.6-.2a6.39,6.39,0,0,1-.6-.22,2.08,2.08,0,0,1-.52-.32,1.44,1.44,0,0,1-.37-.49,1.7,1.7,0,0,1-.14-.73,1.72,1.72,0,0,1,.18-.8,1.64,1.64,0,0,1,.47-.57,2,2,0,0,1,.66-.33,2.81,2.81,0,0,1,1.74.06,2.11,2.11,0,0,1,.82.6l-.57.44a1.4,1.4,0,0,0-1.23-.62,1.84,1.84,0,0,0-.49.07,1.39,1.39,0,0,0-.44.21,1,1,0,0,0-.31.36,1.07,1.07,0,0,0-.12.52.89.89,0,0,0,.24.67,1.92,1.92,0,0,0,.6.39,6.63,6.63,0,0,0,.79.27,3.59,3.59,0,0,1,.79.32,1.87,1.87,0,0,1,.6.53,1.51,1.51,0,0,1,.24.91,1.63,1.63,0,0,1-.18.78,1.78,1.78,0,0,1-.49.58,2.26,2.26,0,0,1-.67.36,2.35,2.35,0,0,1-.75.13,2.83,2.83,0,0,1-1.11-.22,2.11,2.11,0,0,1-.89-.72l.59-.42a1.54,1.54,0,0,0,.57.56,1.72,1.72,0,0,0,.87.21,1.57,1.57,0,0,0,.48-.08,1.38,1.38,0,0,0,.44-.22,1.24,1.24,0,0,0,.32-.36,1,1,0,0,0,.12-.49A1,1,0,0,0,334.88,240.87Zm3.43,37.21h-.65v-5.5h0l-2.3,5.5H335l-2.3-5.5h0v5.5H332v-6.37h1l2.15,5.18,2.15-5.18h1Zm-.14-12.48a2.34,2.34,0,0,1-.89-.17,2.09,2.09,0,0,1-1.17-1.16,2.42,2.42,0,0,1,0-1.76,2.09,2.09,0,0,1,1.17-1.16,2.35,2.35,0,0,1,.89-.17,2.39,2.39,0,0,1,.9.17,2.09,2.09,0,0,1,1.17,1.16,2.42,2.42,0,0,1,0,1.76,2.08,2.08,0,0,1-1.17,1.16A2.37,2.37,0,0,1,338.17,265.6Zm4.44,12.48c0-.1,0-.21,0-.33s0-.24,0-.35h0a1.61,1.61,0,0,1-.62.61,1.87,1.87,0,0,1-.87.18,1.9,1.9,0,0,1-.54-.08,1.38,1.38,0,0,1-.46-.23,1.19,1.19,0,0,1-.32-.39,1.12,1.12,0,0,1-.12-.53,1.15,1.15,0,0,1,.27-.8,1.62,1.62,0,0,1,.67-.44,3.27,3.27,0,0,1,.85-.18q.45,0,.83,0h.3v-.11a1,1,0,0,0-1.08-1.09,1.86,1.86,0,0,0-1.29.49l-.36-.42a2.37,2.37,0,0,1,1.78-.61,1.93,1.93,0,0,1,.59.09,1.33,1.33,0,0,1,.49.27,1.35,1.35,0,0,1,.33.46,1.62,1.62,0,0,1,.12.67v1.88q0,.24,0,.51c0,.18,0,.32,0,.44Zm.49-16.33a1.12,1.12,0,0,0-.44.2,1.43,1.43,0,0,0-.41.49,1.87,1.87,0,0,0-.18.9v2.16h-.59v-6.8h.59V262h0a1.37,1.37,0,0,1,.25-.32,1.64,1.64,0,0,1,.34-.25,1.85,1.85,0,0,1,.4-.16,1.58,1.58,0,0,1,.42-.06,1.53,1.53,0,0,1,1.2.43,1.76,1.76,0,0,1,.39,1.22v2.67h-.59v-2.33a2,2,0,0,0-.24-1.07,1,1,0,0,0-.9-.37Zm-3.45-32.23V223h2v6.56Zm6.3,49.66a2.17,2.17,0,0,1-.48.77,1.15,1.15,0,0,1-.84.29h-.27a1.1,1.1,0,0,1-.27-.05l.06-.58a1,1,0,0,0,.45.1.64.64,0,0,0,.5-.2,1.73,1.73,0,0,0,.31-.56l.31-.81L344,273.87h.75l1.32,3.48,1.29-3.48h.72Zm4.14-13.69h-.59v-2.33a2,2,0,0,0-.24-1.07,1,1,0,0,0-.9-.37l-.25,0a1.11,1.11,0,0,0-.44.2,1.44,1.44,0,0,0-.41.49,1.86,1.86,0,0,0-.18.9v2.16h-.59v-3.28c0-.11,0-.26,0-.43s0-.34,0-.49h.61c0,.11,0,.23,0,.34s0,.22,0,.34h0a1.4,1.4,0,0,1,.25-.32,1.65,1.65,0,0,1,.34-.25,1.9,1.9,0,0,1,.4-.16,1.57,1.57,0,0,1,.42-.06,1.54,1.54,0,0,1,1.2.43,1.75,1.75,0,0,1,.39,1.22ZM351,243h-.59V238.8H351Zm7.15,28.6a2,2,0,0,1,.68.12,1.73,1.73,0,0,1,.57.33,1.6,1.6,0,0,1,.53,1.21,1.51,1.51,0,0,1-.07.47,1.63,1.63,0,0,1-.2.41,1.43,1.43,0,0,1-.3.33,1.3,1.3,0,0,1-.38.21v0a1.52,1.52,0,0,1,.86.59,1.8,1.8,0,0,1,.32,1.08,1.64,1.64,0,0,1-.17.75,1.85,1.85,0,0,1-.44.57,1.94,1.94,0,0,1-.64.36,2.42,2.42,0,0,1-1.54,0,1.92,1.92,0,0,1-.64-.36,1.84,1.84,0,0,1-.44-.57,1.65,1.65,0,0,1-.17-.75,1.8,1.8,0,0,1,.32-1.08,1.51,1.51,0,0,1,.86-.59v0a1.29,1.29,0,0,1-.38-.21,1.43,1.43,0,0,1-.3-.33,1.63,1.63,0,0,1-.2-.41,1.51,1.51,0,0,1-.07-.47,1.62,1.62,0,0,1,.14-.69,1.58,1.58,0,0,1,.39-.53,1.72,1.72,0,0,1,.57-.33A2,2,0,0,1,358.17,271.61Zm-.4-11.87-.57.44a1.4,1.4,0,0,0-1.23-.62,1.84,1.84,0,0,0-.49.07,1.37,1.37,0,0,0-.44.21,1,1,0,0,0-.31.36,1.08,1.08,0,0,0-.12.52.9.9,0,0,0,.24.67,1.93,1.93,0,0,0,.6.39,6.74,6.74,0,0,0,.79.27,3.57,3.57,0,0,1,.79.32,1.85,1.85,0,0,1,.6.53,1.51,1.51,0,0,1,.24.91,1.63,1.63,0,0,1-.18.78,1.79,1.79,0,0,1-.49.58,2.26,2.26,0,0,1-.67.36,2.35,2.35,0,0,1-.75.13,2.84,2.84,0,0,1-1.11-.22,2.11,2.11,0,0,1-.89-.72l.59-.42a1.54,1.54,0,0,0,.57.56,1.72,1.72,0,0,0,.87.21,1.58,1.58,0,0,0,.48-.08,1.37,1.37,0,0,0,.43-.22,1.25,1.25,0,0,0,.32-.36,1,1,0,0,0,.12-.49,1,1,0,0,0-.14-.55,1.21,1.21,0,0,0-.37-.37,2.35,2.35,0,0,0-.52-.25l-.6-.2a6.39,6.39,0,0,1-.6-.22,2.08,2.08,0,0,1-.52-.32,1.44,1.44,0,0,1-.37-.49,1.7,1.7,0,0,1-.14-.73,1.73,1.73,0,0,1,.18-.8,1.65,1.65,0,0,1,.47-.57,2,2,0,0,1,.66-.33A2.67,2.67,0,0,1,356,259a2.7,2.7,0,0,1,1,.17A2.12,2.12,0,0,1,357.78,259.74Zm-5.85-20.39v-.54h.89v-1.19h.59v1.19h1.21v.54h-1.21v2.48a1.36,1.36,0,0,0,0,.38.54.54,0,0,0,.13.23.44.44,0,0,0,.19.11.92.92,0,0,0,.25,0,1.14,1.14,0,0,0,.31,0,1.42,1.42,0,0,0,.3-.12l0,.55a1.91,1.91,0,0,1-.8.15,1.51,1.51,0,0,1-.36,0,.84.84,0,0,1-.34-.17.94.94,0,0,1-.25-.34,1.37,1.37,0,0,1-.1-.57v-2.65Zm3.64,3.67v-6.8h.59V243Zm-3.36-18.18a3.26,3.26,0,0,1,.78-1.09,3.43,3.43,0,0,1,1.16-.69,4.13,4.13,0,0,1,1.42-.24,3.25,3.25,0,0,1,1.28.24,2.68,2.68,0,0,1,1,.69,3.18,3.18,0,0,1,.61,1.09,4.37,4.37,0,0,1,.22,1.42v.63H354a1.61,1.61,0,0,0,.53.92,1.49,1.49,0,0,0,1,.34,1.52,1.52,0,0,0,.84-.22,2.27,2.27,0,0,0,.6-.57l1.42,1a3.22,3.22,0,0,1-1.23,1,3.68,3.68,0,0,1-1.54.34,4.13,4.13,0,0,1-1.42-.24,3.42,3.42,0,0,1-1.16-.69,3.25,3.25,0,0,1-.78-1.09,3.68,3.68,0,0,1,0-2.83ZM351.92,272a2,2,0,0,1,1.25-.4,2.57,2.57,0,0,1,.73.1,1.86,1.86,0,0,1,.61.31,1.52,1.52,0,0,1,.42.52,1.6,1.6,0,0,1,.16.72,1.93,1.93,0,0,1-.11.67,2.73,2.73,0,0,1-.29.58,3.89,3.89,0,0,1-.41.51l-.47.48-2,2h3.35v.59h-4v-.75l2.54-2.58.29-.31a2.87,2.87,0,0,0,.26-.34,1.92,1.92,0,0,0,.19-.38,1.21,1.21,0,0,0,.07-.41,1.11,1.11,0,0,0-.09-.47,1,1,0,0,0-.27-.35,1.22,1.22,0,0,0-.4-.22,1.47,1.47,0,0,0-.48-.08,1.29,1.29,0,0,0-.83.27,1.23,1.23,0,0,0-.44.73l-.68-.07A1.78,1.78,0,0,1,351.92,272ZM351,236.87a.42.42,0,0,1,0,.62.42.42,0,0,1-.59,0,.42.42,0,0,1,0-.62.42.42,0,0,1,.59,0Zm-2.37-17.55h2v10.2h-2Zm-1,18.29h.59v1.19h1.21v.54h-1.21v2.48a1.35,1.35,0,0,0,0,.38.55.55,0,0,0,.13.23.44.44,0,0,0,.19.11.91.91,0,0,0,.25,0,1.14,1.14,0,0,0,.31,0,1.44,1.44,0,0,0,.3-.12l0,.55a1.91,1.91,0,0,1-.8.15,1.5,1.5,0,0,1-.35,0,.84.84,0,0,1-.34-.17.92.92,0,0,1-.25-.34,1.36,1.36,0,0,1-.1-.57v-2.65h-.89v-.54h.89ZM342.5,223h1.29V221h2V223h1.78v1.62h-1.78v2.19a4,4,0,0,0,0,.49,1,1,0,0,0,.12.38.61.61,0,0,0,.29.25,1.28,1.28,0,0,0,.52.09l.42,0a.72.72,0,0,0,.4-.16v1.69a3,3,0,0,1-.7.16,6.42,6.42,0,0,1-.71,0,3.89,3.89,0,0,1-.94-.11,2.14,2.14,0,0,1-.76-.34,1.6,1.6,0,0,1-.51-.61,2.1,2.1,0,0,1-.18-.92v-3.12H342.5Zm-.07,16.54a1.57,1.57,0,0,1,.34-.37,2.11,2.11,0,0,1,.41-.25,2,2,0,0,1,.45-.14,2.27,2.27,0,0,1,.44,0,2.39,2.39,0,0,1,.9.17,2.09,2.09,0,0,1,1.17,1.16,2.41,2.41,0,0,1,0,1.76A2.08,2.08,0,0,1,345,243a2.37,2.37,0,0,1-.9.17,2.27,2.27,0,0,1-.44,0,2,2,0,0,1-.45-.14,2.11,2.11,0,0,1-.41-.25,1.56,1.56,0,0,1-.34-.37h0v.7h-.59v-6.8h.59v3.29Zm-2.59-19.43a1.17,1.17,0,1,1-.34.83A1.13,1.13,0,0,1,339.84,220.07Zm-.19,21.79a1.86,1.86,0,0,0,.18-.9V238.8h.59v3.28q0,.17,0,.43c0,.17,0,.34,0,.49h-.61c0-.11,0-.23,0-.34s0-.22,0-.34h0a1.35,1.35,0,0,1-.25.31,1.63,1.63,0,0,1-.34.25,1.81,1.81,0,0,1-.4.16,1.78,1.78,0,0,1-1.61-.37,1.75,1.75,0,0,1-.39-1.22V238.8h.59v2.33a3.17,3.17,0,0,0,.05.62,1.18,1.18,0,0,0,.18.45.81.81,0,0,0,.35.28,1.4,1.4,0,0,0,.55.09l.25,0a1.1,1.1,0,0,0,.44-.2A1.42,1.42,0,0,0,339.65,241.86ZM331.27,220h7.55v1.86h-2.72v7.69H334v-7.69h-2.72Z"/><path class="cls-2" d="M357.13,272.88a1.22,1.22,0,0,0,0,.9,1,1,0,0,0,.24.36,1.15,1.15,0,0,0,.36.23,1.23,1.23,0,0,0,.9,0,1.13,1.13,0,0,0,.36-.23,1.07,1.07,0,0,0,.24-.36,1.23,1.23,0,0,0,0-.9,1.05,1.05,0,0,0-.24-.35,1.12,1.12,0,0,0-.36-.23,1.23,1.23,0,0,0-.9,0,1.14,1.14,0,0,0-.36.23A1,1,0,0,0,357.13,272.88Z"/><path class="cls-29" d="M360.62,287.07H324.88a2.7,2.7,0,0,1-2.7-2.7V157a3.57,3.57,0,0,0-.9,2.36v125a3.6,3.6,0,0,0,3.6,3.6h35.74Z"/><path class="cls-29" d="M324.88,156.69h35.74v-.9H324.88a3.57,3.57,0,0,0-2.36.9Z"/><polygon class="cls-29" points="322.18 159.38 322.18 207.04 360.62 207.04 360.62 156.69 324.88 156.69 322.52 156.69 322.18 156.69 322.18 157.03 322.18 159.38"/><path class="cls-42" d="M334.58,242.28a1.38,1.38,0,0,1-.44.22,1.57,1.57,0,0,1-.48.08,1.72,1.72,0,0,1-.87-.21,1.54,1.54,0,0,1-.57-.56l-.59.42a2.11,2.11,0,0,0,.89.72,2.83,2.83,0,0,0,1.11.22,2.35,2.35,0,0,0,.75-.13,2.26,2.26,0,0,0,.67-.36,1.78,1.78,0,0,0,.49-.58,1.63,1.63,0,0,0,.18-.78,1.51,1.51,0,0,0-.24-.91,1.87,1.87,0,0,0-.6-.53,3.59,3.59,0,0,0-.79-.32,6.63,6.63,0,0,1-.79-.27,1.92,1.92,0,0,1-.6-.39.89.89,0,0,1-.24-.67,1.07,1.07,0,0,1,.12-.52,1,1,0,0,1,.31-.36,1.39,1.39,0,0,1,.44-.21,1.84,1.84,0,0,1,.49-.07,1.4,1.4,0,0,1,1.23.62l.57-.44a2.11,2.11,0,0,0-.82-.6,2.81,2.81,0,0,0-1.74-.06,2,2,0,0,0-.66.33,1.64,1.64,0,0,0-.47.57,1.72,1.72,0,0,0-.18.8,1.7,1.7,0,0,0,.14.73,1.44,1.44,0,0,0,.37.49,2.08,2.08,0,0,0,.52.32,6.39,6.39,0,0,0,.6.22l.6.2a2.35,2.35,0,0,1,.52.25,1.21,1.21,0,0,1,.37.37,1,1,0,0,1,.14.55,1,1,0,0,1-.12.49A1.24,1.24,0,0,1,334.58,242.28Z"/><path class="cls-42" d="M338.55,242.58a1.4,1.4,0,0,1-.55-.09.81.81,0,0,1-.35-.28,1.18,1.18,0,0,1-.18-.45,3.17,3.17,0,0,1-.05-.62V238.8h-.59v2.67a1.75,1.75,0,0,0,.39,1.22,1.78,1.78,0,0,0,1.61.37,1.81,1.81,0,0,0,.4-.16,1.63,1.63,0,0,0,.34-.25,1.35,1.35,0,0,0,.25-.31h0c0,.11,0,.23,0,.34s0,.22,0,.34h.61c0-.16,0-.32,0-.49s0-.32,0-.43V238.8h-.59V241a1.86,1.86,0,0,1-.18.9,1.42,1.42,0,0,1-.41.49,1.1,1.1,0,0,1-.44.2Z"/><path class="cls-42" d="M341.82,236.21V243h.59v-.7h0a1.56,1.56,0,0,0,.34.37,2.11,2.11,0,0,0,.41.25,2,2,0,0,0,.45.14,2.27,2.27,0,0,0,.44,0,2.37,2.37,0,0,0,.9-.17,2.08,2.08,0,0,0,1.17-1.16,2.41,2.41,0,0,0,0-1.76,2.09,2.09,0,0,0-1.17-1.16,2.39,2.39,0,0,0-.9-.17,2.27,2.27,0,0,0-.44,0,2,2,0,0,0-.45.14,2.11,2.11,0,0,0-.41.25,1.57,1.57,0,0,0-.34.37h0v-3.29Zm.69,4a1.61,1.61,0,0,1,.35-.53,1.67,1.67,0,0,1,.53-.35,1.7,1.7,0,0,1,.67-.13,1.61,1.61,0,0,1,.66.13,1.51,1.51,0,0,1,.5.35,1.58,1.58,0,0,1,.32.53,2,2,0,0,1,0,1.31,1.57,1.57,0,0,1-.32.53,1.51,1.51,0,0,1-.5.35,1.61,1.61,0,0,1-.66.13,1.7,1.7,0,0,1-.67-.13,1.67,1.67,0,0,1-.53-.35,1.6,1.6,0,0,1-.35-.53,1.78,1.78,0,0,1,0-1.31Z"/><path class="cls-42" d="M346.79,239.34h.89V242a1.36,1.36,0,0,0,.1.57.92.92,0,0,0,.25.34.84.84,0,0,0,.34.17,1.5,1.5,0,0,0,.35,0,1.91,1.91,0,0,0,.8-.15l0-.55a1.44,1.44,0,0,1-.3.12,1.14,1.14,0,0,1-.31,0,.91.91,0,0,1-.25,0,.44.44,0,0,1-.19-.11.55.55,0,0,1-.13-.23,1.35,1.35,0,0,1,0-.38v-2.48h1.21v-.54h-1.21v-1.19h-.59v1.19h-.89Z"/><rect class="cls-42" x="350.43" y="238.8" width="0.59" height="4.21"/><path class="cls-42" d="M350.3,237.18a.4.4,0,0,0,.14.31.42.42,0,0,0,.59,0,.42.42,0,0,0,0-.62.42.42,0,0,0-.59,0A.4.4,0,0,0,350.3,237.18Z"/><path class="cls-42" d="M352.92,242.56a.94.94,0,0,0,.25.34.84.84,0,0,0,.34.17,1.51,1.51,0,0,0,.36,0,1.91,1.91,0,0,0,.8-.15l0-.55a1.42,1.42,0,0,1-.3.12,1.14,1.14,0,0,1-.31,0,.92.92,0,0,1-.25,0,.44.44,0,0,1-.19-.11.54.54,0,0,1-.13-.23,1.36,1.36,0,0,1,0-.38v-2.48h1.21v-.54h-1.21v-1.19h-.59v1.19h-.89v.54h.89V242A1.37,1.37,0,0,0,352.92,242.56Z"/><rect class="cls-42" x="355.58" y="236.21" width="0.59" height="6.8"/><path class="cls-42" d="M359.51,238.7a2.09,2.09,0,0,0-.84.17,2.06,2.06,0,0,0-.67.46,2.11,2.11,0,0,0-.45.7,2.34,2.34,0,0,0-.16.88,2.3,2.3,0,0,0,.17.88,2.17,2.17,0,0,0,.45.7,2,2,0,0,0,.69.46,2.22,2.22,0,0,0,.87.17,2.32,2.32,0,0,0,1-.21l.09-.05v-.68a1.93,1.93,0,0,1-.24.19,1.5,1.5,0,0,1-.82.22,1.45,1.45,0,0,1-.58-.12,1.55,1.55,0,0,1-.48-.32,1.58,1.58,0,0,1-.33-.48,1.79,1.79,0,0,1-.15-.59h2.61v-.49H358a1.11,1.11,0,0,1,.12-.5,1.52,1.52,0,0,1,.32-.43,1.59,1.59,0,0,1,.47-.3,1.44,1.44,0,0,1,.56-.11,1.33,1.33,0,0,1,1,.37,1.21,1.21,0,0,1,.11.17V239a1.83,1.83,0,0,0-1.12-.32Z"/><polygon class="cls-42" points="335.17 276.89 333.02 271.71 332.04 271.71 332.04 278.08 332.68 278.08 332.68 272.58 332.7 272.58 335 278.08 335.35 278.08 337.65 272.58 337.67 272.58 337.67 278.08 338.31 278.08 338.31 271.71 337.32 271.71 335.17 276.89"/><path class="cls-42" d="M343.11,277.14v-1.88a1.62,1.62,0,0,0-.12-.67,1.35,1.35,0,0,0-.33-.46,1.33,1.33,0,0,0-.49-.27,1.93,1.93,0,0,0-.59-.09,2.37,2.37,0,0,0-1.78.61l.36.42a1.86,1.86,0,0,1,1.29-.49,1,1,0,0,1,1.08,1.09v.11h-.3q-.38,0-.83,0a3.27,3.27,0,0,0-.85.18,1.62,1.62,0,0,0-.67.44,1.15,1.15,0,0,0-.27.8,1.12,1.12,0,0,0,.12.53,1.19,1.19,0,0,0,.32.39,1.38,1.38,0,0,0,.46.23,1.9,1.9,0,0,0,.54.08,1.87,1.87,0,0,0,.87-.18,1.61,1.61,0,0,0,.62-.61h0q0,.17,0,.35c0,.12,0,.23,0,.33h.58c0-.11,0-.26,0-.44S343.11,277.3,343.11,277.14Zm-.59-.85a1.77,1.77,0,0,1-.08.53,1.15,1.15,0,0,1-.64.72,1.35,1.35,0,0,1-.56.11,1.56,1.56,0,0,1-.35,0,1,1,0,0,1-.32-.13.71.71,0,0,1-.23-.24.69.69,0,0,1-.09-.35.6.6,0,0,1,.22-.49,1.42,1.42,0,0,1,.53-.27,3.22,3.22,0,0,1,.65-.11l.56,0h.31Z"/><path class="cls-42" d="M346.05,277.35l-1.32-3.48H344l1.73,4.26-.31.81a1.73,1.73,0,0,1-.31.56.64.64,0,0,1-.5.2,1,1,0,0,1-.45-.1l-.06.58a1.1,1.1,0,0,0,.27.05h.27a1.15,1.15,0,0,0,.84-.29,2.17,2.17,0,0,0,.48-.77l2.1-5.3h-.72Z"/><path class="cls-42" d="M352.39,272.47a1.29,1.29,0,0,1,.83-.27,1.47,1.47,0,0,1,.48.08,1.22,1.22,0,0,1,.4.22,1,1,0,0,1,.27.35,1.11,1.11,0,0,1,.09.47,1.21,1.21,0,0,1-.07.41,1.92,1.92,0,0,1-.19.38,2.87,2.87,0,0,1-.26.34l-.29.31-2.54,2.58v.75h4v-.59h-3.35l2-2,.47-.48a3.89,3.89,0,0,0,.41-.51,2.73,2.73,0,0,0,.29-.58,1.93,1.93,0,0,0,.11-.67,1.6,1.6,0,0,0-.16-.72,1.52,1.52,0,0,0-.42-.52,1.86,1.86,0,0,0-.61-.31,2.57,2.57,0,0,0-.73-.1,2,2,0,0,0-1.25.4,1.78,1.78,0,0,0-.65,1.12l.68.07A1.23,1.23,0,0,1,352.39,272.47Z"/><path class="cls-42" d="M356.93,272.06a1.58,1.58,0,0,0-.39.53,1.62,1.62,0,0,0-.14.69,1.51,1.51,0,0,0,.07.47,1.63,1.63,0,0,0,.2.41,1.43,1.43,0,0,0,.3.33,1.29,1.29,0,0,0,.38.21v0a1.51,1.51,0,0,0-.86.59,1.8,1.8,0,0,0-.32,1.08,1.65,1.65,0,0,0,.17.75,1.84,1.84,0,0,0,.44.57,1.92,1.92,0,0,0,.64.36,2.42,2.42,0,0,0,1.54,0,1.94,1.94,0,0,0,.64-.36,1.85,1.85,0,0,0,.44-.57,1.64,1.64,0,0,0,.17-.75,1.8,1.8,0,0,0-.32-1.08,1.52,1.52,0,0,0-.86-.59v0a1.3,1.3,0,0,0,.38-.21,1.43,1.43,0,0,0,.3-.33,1.63,1.63,0,0,0,.2-.41,1.51,1.51,0,0,0,.07-.47,1.6,1.6,0,0,0-.53-1.21,1.73,1.73,0,0,0-.57-.33,2.06,2.06,0,0,0-1.37,0A1.72,1.72,0,0,0,356.93,272.06Zm2.24,3.3a1.25,1.25,0,0,1,.27.41,1.4,1.4,0,0,1,0,1,1.23,1.23,0,0,1-.27.41,1.21,1.21,0,0,1-.43.27,1.65,1.65,0,0,1-1.13,0,1.23,1.23,0,0,1-.43-.27,1.26,1.26,0,0,1-.27-.41,1.4,1.4,0,0,1,0-1,1.28,1.28,0,0,1,.27-.41,1.23,1.23,0,0,1,.43-.27,1.65,1.65,0,0,1,1.13,0A1.21,1.21,0,0,1,359.17,275.36Zm-1-3.16a1.17,1.17,0,0,1,.45.09,1.12,1.12,0,0,1,.36.23,1.05,1.05,0,0,1,.24.35,1.23,1.23,0,0,1,0,.9,1.07,1.07,0,0,1-.24.36,1.13,1.13,0,0,1-.36.23,1.17,1.17,0,0,1-1.26-.23,1,1,0,0,1-.24-.36,1.22,1.22,0,0,1,0-.9,1,1,0,0,1,.24-.35,1.14,1.14,0,0,1,.36-.23A1.18,1.18,0,0,1,358.17,272.2Z"/><path class="cls-43" d="M333.8,265.47a1.63,1.63,0,0,0,.85-1.07,2.72,2.72,0,0,0,.09-.66v-4.62h-.65v4.35a3.71,3.71,0,0,1,0,.58,1.53,1.53,0,0,1-.17.5,1,1,0,0,1-.34.36,1.06,1.06,0,0,1-.57.14.94.94,0,0,1-.68-.23,1.23,1.23,0,0,1-.33-.64l-.65.14a1.5,1.5,0,0,0,.55,1,1.75,1.75,0,0,0,1.1.34A1.83,1.83,0,0,0,333.8,265.47Z"/><path class="cls-43" d="M340.24,264.27a2.42,2.42,0,0,0,0-1.76,2.09,2.09,0,0,0-1.17-1.16,2.39,2.39,0,0,0-.9-.17,2.35,2.35,0,0,0-.89.17,2.09,2.09,0,0,0-1.17,1.16,2.42,2.42,0,0,0,0,1.76,2.09,2.09,0,0,0,1.17,1.16,2.34,2.34,0,0,0,.89.17,2.37,2.37,0,0,0,.9-.17,2.08,2.08,0,0,0,1.17-1.16Zm-.59-.22a1.59,1.59,0,0,1-.32.53,1.52,1.52,0,0,1-.5.35,1.74,1.74,0,0,1-1.32,0,1.46,1.46,0,0,1-.5-.35,1.64,1.64,0,0,1-.31-.53,2,2,0,0,1,0-1.31,1.64,1.64,0,0,1,.31-.53,1.46,1.46,0,0,1,.5-.35,1.73,1.73,0,0,1,1.32,0,1.52,1.52,0,0,1,.5.35,1.59,1.59,0,0,1,.32.53,2,2,0,0,1,0,1.31Z"/><path class="cls-43" d="M344.26,262.09a2,2,0,0,1,.24,1.07v2.33h.59v-2.67a1.76,1.76,0,0,0-.39-1.22,1.53,1.53,0,0,0-1.2-.43,1.58,1.58,0,0,0-.42.06,1.85,1.85,0,0,0-.4.16,1.64,1.64,0,0,0-.34.25,1.37,1.37,0,0,0-.25.32h0v-3.26h-.59v6.8h.59v-2.16a1.87,1.87,0,0,1,.18-.9,1.43,1.43,0,0,1,.41-.49,1.12,1.12,0,0,1,.44-.2l.25,0A1,1,0,0,1,344.26,262.09Z"/><path class="cls-43" d="M348.51,261.18a1.57,1.57,0,0,0-.42.06,1.9,1.9,0,0,0-.4.16,1.65,1.65,0,0,0-.34.25,1.4,1.4,0,0,0-.25.32h0c0-.11,0-.23,0-.34s0-.22,0-.34h-.61c0,.16,0,.32,0,.49s0,.32,0,.43v3.28h.59v-2.16a1.86,1.86,0,0,1,.18-.9,1.44,1.44,0,0,1,.41-.49,1.11,1.11,0,0,1,.44-.2l.25,0a1,1,0,0,1,.9.37,2,2,0,0,1,.24,1.07v2.33h.59v-2.67a1.75,1.75,0,0,0-.39-1.22A1.54,1.54,0,0,0,348.51,261.18Z"/><path class="cls-43" d="M356,259a2.67,2.67,0,0,0-.76.11,2,2,0,0,0-.66.33,1.65,1.65,0,0,0-.47.57,1.73,1.73,0,0,0-.18.8,1.7,1.7,0,0,0,.14.73,1.44,1.44,0,0,0,.37.49,2.08,2.08,0,0,0,.52.32,6.39,6.39,0,0,0,.6.22l.6.2a2.35,2.35,0,0,1,.52.25,1.21,1.21,0,0,1,.37.37,1,1,0,0,1,.14.55,1,1,0,0,1-.12.49,1.25,1.25,0,0,1-.32.36,1.37,1.37,0,0,1-.43.22,1.58,1.58,0,0,1-.48.08,1.72,1.72,0,0,1-.87-.21,1.54,1.54,0,0,1-.57-.56l-.59.42a2.11,2.11,0,0,0,.89.72,2.84,2.84,0,0,0,1.11.22,2.35,2.35,0,0,0,.75-.13,2.26,2.26,0,0,0,.67-.36,1.79,1.79,0,0,0,.49-.58,1.63,1.63,0,0,0,.18-.78,1.51,1.51,0,0,0-.24-.91,1.85,1.85,0,0,0-.6-.53,3.57,3.57,0,0,0-.79-.32,6.74,6.74,0,0,1-.79-.27,1.93,1.93,0,0,1-.6-.39.9.9,0,0,1-.24-.67,1.08,1.08,0,0,1,.12-.52,1,1,0,0,1,.31-.36,1.37,1.37,0,0,1,.44-.21,1.84,1.84,0,0,1,.49-.07,1.4,1.4,0,0,1,1.23.62l.57-.44a2.12,2.12,0,0,0-.82-.6A2.7,2.7,0,0,0,356,259Z"/><path class="cls-43" d="M359.6,261.92h0v-.64h-.64c0,.16,0,.31,0,.47s0,.31,0,.47v3.27h.59v-2.16a2,2,0,0,1,.17-.9,1.46,1.46,0,0,1,.37-.49,1,1,0,0,1,.4-.2l.1,0v-.52a1.82,1.82,0,0,0-.43.15A1.4,1.4,0,0,0,359.6,261.92Z"/><polygon class="cls-43" points="333.99 229.52 336.1 229.52 336.1 221.84 338.82 221.84 338.82 219.97 331.27 219.97 331.27 221.84 333.99 221.84 333.99 229.52"/><rect class="cls-43" x="339.66" y="222.97" width="2.02" height="6.56"/><path class="cls-43" d="M340.67,222.08a1.17,1.17,0,1,0-.83-.34A1.13,1.13,0,0,0,340.67,222.08Z"/><path class="cls-43" d="M343.8,227.7a2.1,2.1,0,0,0,.18.92,1.6,1.6,0,0,0,.51.61,2.14,2.14,0,0,0,.76.34,3.89,3.89,0,0,0,.94.11,6.42,6.42,0,0,0,.71,0,3,3,0,0,0,.7-.16V227.8a.72.72,0,0,1-.4.16l-.42,0a1.28,1.28,0,0,1-.52-.09.61.61,0,0,1-.29-.25,1,1,0,0,1-.12-.38,4,4,0,0,1,0-.49v-2.19h1.78V223h-1.78V221h-2V223H342.5v1.62h1.29Z"/><rect class="cls-43" x="348.65" y="219.33" width="2.02" height="10.2"/><path class="cls-43" d="M353,228.75a3.42,3.42,0,0,0,1.16.69,4.13,4.13,0,0,0,1.42.24,3.68,3.68,0,0,0,1.54-.34,3.22,3.22,0,0,0,1.23-1l-1.42-1a2.27,2.27,0,0,1-.6.57,1.52,1.52,0,0,1-.84.22,1.49,1.49,0,0,1-1-.34,1.61,1.61,0,0,1-.53-.92h4.69v-.63a4.37,4.37,0,0,0-.22-1.42,3.18,3.18,0,0,0-.61-1.09,2.68,2.68,0,0,0-1-.69,3.25,3.25,0,0,0-1.28-.24,4.13,4.13,0,0,0-1.42.24,3.43,3.43,0,0,0-1.16.69,3.26,3.26,0,0,0-.78,1.09,3.68,3.68,0,0,0,0,2.83A3.25,3.25,0,0,0,353,228.75Zm1.08-3.71a1.23,1.23,0,0,1,.28-.39,1.5,1.5,0,0,1,.44-.28,1.54,1.54,0,0,1,.59-.11,1.2,1.2,0,0,1,.9.36,1.17,1.17,0,0,1,.34.88H354A1.3,1.3,0,0,1,354.07,225Z"/></g></g></svg>