<svg xmlns="http://www.w3.org/2000/svg" viewBox="0 0 376.06 351.15"><defs><style>.cls-1{fill:#c69b7b;}.cls-2{fill:#ad856a;}.cls-3{fill:#b85d3f;}.cls-4{fill:#66cacc;}.cls-5{fill:#f7a354;}.cls-6{fill:#2e6eac;}.cls-7{fill:#f5bc8e;}.cls-8{fill:#2d304d;}.cls-9{fill:#d2aa92;}.cls-10{fill:#446c73;}.cls-11{fill:#b8b8b8;}.cls-12{fill:#38595e;}.cls-13{fill:#a1a1a1;}.cls-14{fill:#8c4545;}.cls-15{fill:#27374d;}.cls-16{fill:#f28168;}.cls-17{fill:#f7c692;}.cls-18{fill:#e3924b;}.cls-19{fill:#c8d6e6;}.cls-20{fill:#c78042;}</style></defs><title>medium</title><g id="Layer_2" data-name="Layer 2"><g id="bitesize"><path class="cls-1" d="M217.08,2.34C194.86-1,178.44-.15,152.8,1.19,131.49,2.31,120.73,3,115.61,6.81,99.17,19.2,105.17,44.55,102,95.25,99.53,133.58,88.62,237.3,91.82,260.72A46.26,46.26,0,0,0,97.88,278a39.69,39.69,0,0,0,7.36,8.12c16.57,13.4,57.54,12.53,57.54,12.53,20.26-.43,35.41.65,65.69,2.81,40.66,2.9,57,7.94,65.53-4.39,5.48-7.91,4.63-18.51,4.13-24.73-3.74-47-6.51-94.06-11-141.1-6.87-72.32,5.36-92.07-11.86-110.67C265.13,9.59,249.11,7.17,217.08,2.34Z"/><path class="cls-2" d="M128,26.37c-8.42,9-10,25.77-3,35,6.36,8.39,18.1,8.34,31,9,65.77,3.37,83.88,21.33,99,7,9.71-9.2,13.71-26.24,8-37-5.06-9.53-15.66-10.29-70-16C146.33,19.47,135.73,18.1,128,26.37Z"/><path class="cls-2" d="M263.86,143.51c.87-1.79,1.3-7.75,2.14-19.65.8-11.31,1.17-17-.15-19.77C261.12,94.27,242.63,95,232.33,95c-62.25.35-96.91-20.78-106.28-4.55-1.16,2-2.35,8.66-4.73,21.94-2.12,11.82-3.18,17.73-2.54,19.9,3.48,11.75,26.83,11.68,75.54,15.63C236.09,151.32,258.46,154.59,263.86,143.51Z"/><path class="cls-2" d="M124,164.37c-.34.64-.34.84-2,16-1.69,15.46-1.88,17-1,19,4.07,9.15,23,8.95,31,9,65.38.44,88,22.22,103,6,8.55-9.23,10-25.73,4-36s-16.74-9.79-70-16C151.55,158,129.25,154.58,124,164.37Z"/><path class="cls-2" d="M268.53,281.24c1.33-2.17,1.68-8,2.37-19.66.84-14.07,1.26-21.11.06-23.49-6.85-13.52-38.24-2.68-92.28-8.77-31.38-3.54-50.84-10.57-59.67-.76-5.11,5.68-5.16,15.33-5.2,22,0,3.15-.09,15.22,5,23,7.88,11.93,25.66,9.95,74.15,12.38C239.68,288.19,262,292,268.53,281.24Z"/><rect class="cls-3" x="131" y="28.37" width="11" height="41" rx="1.7" ry="1.7"/><rect class="cls-4" x="156" y="34.37" width="15" height="37" rx="1.7" ry="1.7"/><rect class="cls-5" x="143" y="32.37" width="11" height="41" rx="1.7" ry="1.7" transform="translate(6.14 -14.82) rotate(5.83)"/><rect class="cls-6" x="173" y="31.37" width="11" height="41" rx="1.7" ry="1.7" transform="translate(6.7 -19.1) rotate(6.24)"/><rect class="cls-3" x="188" y="33.37" width="11" height="41" rx="1.7" ry="1.7"/><rect class="cls-4" x="241" y="41.37" width="15" height="37" rx="1.7" ry="1.7"/><rect class="cls-5" x="206" y="37.37" width="11" height="41" rx="1.7" ry="1.7" transform="translate(6.98 -21.2) rotate(5.83)"/><rect class="cls-6" x="230" y="36.37" width="11" height="41" rx="1.7" ry="1.7" transform="translate(7.58 -25.27) rotate(6.24)"/><rect class="cls-3" x="241.11" y="178.03" width="11" height="41" rx="1.7" ry="1.7" transform="translate(498.8 389.93) rotate(178.36)"/><rect class="cls-4" x="212.01" y="176.81" width="15" height="37" rx="1.7" ry="1.7" transform="translate(444.51 384.25) rotate(178.36)"/><rect class="cls-5" x="229" y="174.38" width="11" height="41" rx="1.7" ry="1.7" transform="matrix(-1, -0.07, 0.07, -1, 454.12, 406.38)"/><rect class="cls-6" x="199.04" y="176.23" width="11" height="41" rx="1.7" ry="1.7" transform="translate(392.63 409.25) rotate(-175.4)"/><rect class="cls-3" x="183.99" y="174.66" width="11" height="41" rx="1.7" ry="1.7" transform="translate(384.48 384.83) rotate(178.36)"/><rect class="cls-4" x="126.84" y="172.24" width="15" height="37" rx="1.7" ry="1.7" transform="translate(274.08 377.56) rotate(178.36)"/><rect class="cls-5" x="165.88" y="171.18" width="11" height="41" rx="1.7" ry="1.7" transform="translate(328.29 395.38) rotate(-175.81)"/><rect class="cls-6" x="141.92" y="172.87" width="11" height="41" rx="1.7" ry="1.7" transform="translate(278.85 397.94) rotate(-175.4)"/><rect class="cls-4" x="137" y="104.37" width="15" height="37" rx="1.7" ry="1.7"/><rect class="cls-6" x="154" y="101.37" width="11" height="41" rx="1.7" ry="1.7" transform="translate(14.2 -16.62) rotate(6.24)"/><rect class="cls-3" x="169" y="103.37" width="11" height="41" rx="1.7" ry="1.7"/><rect class="cls-5" x="187" y="107.37" width="11" height="41" rx="1.7" ry="1.7" transform="translate(13.99 -18.9) rotate(5.83)"/><rect class="cls-6" x="123" y="101.37" width="11" height="41" rx="1.7" ry="1.7" transform="translate(14.01 -13.25) rotate(6.24)"/><rect class="cls-3" x="245.11" y="109.03" width="11" height="41" rx="1.7" ry="1.7" transform="translate(504.82 251.84) rotate(178.36)"/><rect class="cls-4" x="216.01" y="107.81" width="15" height="37" rx="1.7" ry="1.7" transform="translate(450.53 246.17) rotate(178.36)"/><rect class="cls-5" x="233" y="105.38" width="11" height="41" rx="1.7" ry="1.7" transform="translate(467.15 268.86) rotate(-175.81)"/><rect class="cls-6" x="203.04" y="107.23" width="11" height="41" rx="1.7" ry="1.7" transform="translate(406.16 271.79) rotate(-175.4)"/><rect class="cls-4" x="223.47" y="251.71" width="15" height="37" rx="1.7" ry="1.7" transform="translate(450.25 549.98) rotate(-177.57)"/><rect class="cls-6" x="210.44" y="250.07" width="11" height="41" rx="1.7" ry="1.7" transform="translate(388.59 570.62) rotate(-171.32)"/><rect class="cls-3" x="195.54" y="247.44" width="11" height="41" rx="1.7" ry="1.7" transform="translate(390.52 544.17) rotate(-177.57)"/><rect class="cls-5" x="177.72" y="242.68" width="11" height="41" rx="1.7" ry="1.7" transform="translate(326.7 549.96) rotate(-171.73)"/><rect class="cls-6" x="241.41" y="245.39" width="11" height="41" rx="1.7" ry="1.7" transform="translate(450.89 565.98) rotate(-171.32)"/><rect class="cls-3" x="119.74" y="238.55" width="11" height="41" rx="1.7" ry="1.7" transform="translate(3.6 -1.71) rotate(0.79)"/><rect class="cls-4" x="144.68" y="244.93" width="15" height="37" rx="1.7" ry="1.7" transform="translate(3.67 -2.09) rotate(0.79)"/><rect class="cls-5" x="131.68" y="242.72" width="11" height="41" rx="1.7" ry="1.7" transform="translate(31.3 -14.08) rotate(6.63)"/><rect class="cls-6" x="161.69" y="242.14" width="11" height="41" rx="1.7" ry="1.7" transform="translate(33.43 -18.5) rotate(7.04)"/><rect class="cls-3" x="254.11" y="248.03" width="11" height="41" rx="1.7" ry="1.7" transform="translate(526.79 529.53) rotate(178.36)"/><path class="cls-7" d="M278.33,161.75c1.85,1.56.37,3.63,4.15,4,1.31.13,2.44.14,3.6.27a5.3,5.3,0,0,0-1.47-.87c-.59-.18-1.25-.14-1.84-.29a3.85,3.85,0,0,1-1.94-1.11,1.07,1.07,0,0,1,.47-1.77,8.19,8.19,0,0,1,7.88,1.48c1.35,1.07,4.48,3.92,3.92,5.9a1.06,1.06,0,0,1-1.3.74l-.19-.07a1.39,1.39,0,0,1-.37-.22l.8,1.83a1.29,1.29,0,0,1-.28,1.36l.77.81c.75.77-.91-.43-2-.62-6.82-1.21-14.59-.7-15.24-8.51C275.2,163.15,276.26,160,278.33,161.75Z"/><polygon class="cls-7" points="328.21 334.73 322.25 335.16 320.1 306.51 330.29 306.51 328.21 334.73"/><path class="cls-8" d="M328.45,335.41c0-.61,0-1-.55-1.09a15.35,15.35,0,0,0-5.77.24c-2,.6-3.52,1.26-5.66,1.92-1.59.49-4,1.36-4.59,3.06a2.28,2.28,0,0,0,.54,2.47c1.12,1.2,3.79.67,5.18.64,2.47-.06,5,.05,7.49-.22C329.33,342,328.38,338.58,328.45,335.41Z"/><polygon class="cls-7" points="353.35 335.55 347.45 336.44 343.13 308.03 353.29 307.26 353.35 335.55"/><path class="cls-8" d="M353.51,336.47c0-.61,0-1-.55-1.09a15.35,15.35,0,0,0-5.77.24c-2,.6-3.52,1.26-5.66,1.92-1.59.49-4,1.36-4.59,3.06a2.28,2.28,0,0,0,.54,2.47c1.12,1.2,3.79.67,5.18.64,2.47-.06,5,.05,7.49-.22C354.4,343,353.44,339.63,353.51,336.47Z"/><path class="cls-9" d="M343.37,264.28a2.87,2.87,0,0,1,2.15-1.3c0-2.74,4.78-3.35,5.22-.47.05.34.1.68.15,1,1.26-1.84,4.86-1.37,4.84,1.44-.1,12.76,1.36,48.52,1.6,61.29a2.68,2.68,0,0,1-2.64,2.64,30.22,30.22,0,0,0-7.86,1,2.71,2.71,0,0,1-3.25-1.92c-2-13-4.53-49-4.83-62.09C338.67,263.08,341.93,262.62,343.37,264.28Z"/><path class="cls-9" d="M315,260.61c-.14-1.15,4.87-7.89,5.61-4.59.09.41.17.82.24,1.24a3,3,0,0,1,3.65,1,5.12,5.12,0,0,1,.54.11l.58.2.06,0a2.63,2.63,0,0,1,3.67,2.65v0c1.48-1.6,4.9-.71,4.59,2.05-1.53,13.48-.92,49.17-.8,62.74a2.66,2.66,0,0,1-2.93,2.33,22.57,22.57,0,0,0-7.79-.2,2.7,2.7,0,0,1-3-2.21C317.72,318.32,315.15,263.55,315,260.61Z"/><path class="cls-8" d="M304.79,101.16c2-4.1,4.27-7.76,8.63-9.56s9.89-2.87,14.36-1c10.7,4.58,3.45,18.58,5,27.1.49,2.65-3.56,3.8-4.07,1.12-.14-.75-.24-1.49-.31-2.23a2.47,2.47,0,0,1-.85,0,2.09,2.09,0,0,1-3.25-1.15,81.43,81.43,0,0,0-2.15-8.35,2.18,2.18,0,0,1-2.41-1.42,28.55,28.55,0,0,1-1.32-4.86,11.55,11.55,0,0,1-3.88-2,2.06,2.06,0,0,1-.42-.56c-2.22,1.79-4.19,4.13-6.44,5.85C305.83,105.49,304,102.85,304.79,101.16Z"/><path class="cls-7" d="M305.32,97.45c1.81-3.21,6-4,9.35-3.27a13.87,13.87,0,0,1,8.76,6.56,24,24,0,0,1,3.2,13c1.27.33,2.24,1.62,1.25,3-2.21,3-5,6.75-8.68,8-3.83,1.32-7.28-.89-9.56-3.86a27,27,0,0,1-5-11.43C304,105.78,303.42,100.81,305.32,97.45Z"/><rect class="cls-7" x="322.74" y="113.02" width="12.14" height="20.32" transform="matrix(-0.92, 0.39, -0.39, -0.92, 679.55, 106.72)"/><path class="cls-8" d="M300.75,106.26a3,3,0,0,0,2.69.33c.92-.25,2.06-1.47,3-1.41s1.74,1,2.77,1.1a5,5,0,0,0,3.19-.93c1.92-1.28,2.52-4.12,3.94-5.87a14.91,14.91,0,0,0,1.24,6,7.8,7.8,0,0,0,1.73,2.78c1,.91,1.91.36,3,.93,1.26.67.67,2.63.85,4a5.17,5.17,0,0,0,1.18,2.81c1.59,1.82,4.26,2.71,6.52,3.33a1.61,1.61,0,0,0,2-2,22.17,22.17,0,0,0-1.75-5.31c-.73-1.55-5.79-13-5.07-14.62h1.24a1.62,1.62,0,0,0,2.18-.57c4.05-6.67-5.53-9.91-10.45-9.82a17.94,17.94,0,0,0-14.58,7.71c-1.16,1.78-2.44,3.74-3.54,5.47S298.65,104.75,300.75,106.26Zm20.44-15.8c3.13.31,6.29,1.27,5.94,3.5a4,4,0,0,0-1.67,0A7,7,0,0,0,321.19,90.46Z"/><path class="cls-10" d="M289.44,171.53c.63-2.24,1.27-4.48,1.91-6.72a1.6,1.6,0,0,1,2.34-1,102.63,102.63,0,0,0,19.89,10.48c1.51-7.8,3.29-15.73,6.21-23.09,1.48-4.37,2.92-10.87,5.25-14.85a32.11,32.11,0,0,1,7.46-9c.81-.65,3.74-2.55,4.49-1.84,9.71,9.12,19.05,23.94,19,37.8a65.16,65.16,0,0,1-1.42,12,2.5,2.5,0,0,1-.06.86c-5.34,21.86,6.11,42.78,13.3,62.76a115.45,115.45,0,0,1,4.58,15.66c.5,2.39.87,4.82,1.15,7.25.22,2,.71,4.37-.53,6.12s-3.73,2-5.68,2.54l-8.52,2.16c-5.68,1.44-11.36,2.89-17,4.31-4.36,1.09-24.43,1.16-26.81-1.95-1.3-1.7-1.46-4.1-1.83-6.13q-.63-3.51-1.15-7-1.08-7.37-1.7-14.79a221.33,221.33,0,0,1-.36-30.52q.44-7.62,1.4-15.2c.4-3.16,1-6.34,1.39-9.52q-8.27-5.18-16.52-10.4c-2.26-1.43-6.67-3.07-7.26-6.06A8.43,8.43,0,0,1,289.44,171.53Z"/><rect class="cls-8" x="270.14" y="158.19" width="19.53" height="6.99" rx="1.77" ry="1.77" transform="translate(464.88 426.78) rotate(-154.92)"/><path class="cls-7" d="M279.91,165.55c5.56,2,7.21,2.1,7.77.19a36.25,36.25,0,0,0-4.51-2.12c-1-.4-2.22-.66-1.5-1.67s2.41-.72,3.52-.37a16.07,16.07,0,0,1,6,3.75,3,3,0,0,1-1.6.61,5.51,5.51,0,0,1,.32.87.85.85,0,0,1-1.07,1,2.49,2.49,0,0,1-1.31,1.36,4.2,4.2,0,0,1-2.82.61.84.84,0,0,1-.6-1.34,19.58,19.58,0,0,1-4.7-1C278.44,167.06,278.94,165.2,279.91,165.55Z"/><path class="cls-11" d="M325.51,188.38a40.91,40.91,0,0,0,19.35,15.83c-.18-5,1-10.15,2.23-15,1.95-7.82,3.27-15.57,3-23.66-.13-4-.81-7.91-.93-11.88a18.83,18.83,0,0,1,.11-2.08,28.85,28.85,0,0,0-22.52-15c-2-.2-2-3.36,0-3.17a32.17,32.17,0,0,1,23.47,13.68c.51-1.36,1.25-2.43,2.32-2.56,2.82-.35,5.45,1.92,7.34,3.75,2.21,2.14,13,13,15.31,26.5.57,3.26,2.92,14-3.73,29.3-2.35,5.41-5.88,12.16-11.56,14.65-6,2.62-11.43-1.73-13.59-7.19a20.41,20.41,0,0,1-1.07-3.77A44.06,44.06,0,0,1,322.75,190C321.64,188.25,324.39,186.66,325.51,188.38Z"/><path class="cls-12" d="M317.92,191.15a55.68,55.68,0,0,0,14.4-16.71,89.72,89.72,0,0,0,5.06-11.11c1.54-4,2.93-8.34,1-12.4-.43-.91.91-1.71,1.36-.79,1.63,3.34,1.36,6.86.33,10.34A77.35,77.35,0,0,1,335,172.75a57.07,57.07,0,0,1-16,19.52C318.25,192.89,317.12,191.78,317.92,191.15Z"/><path class="cls-13" d="M358.21,165.48c1.92,7.51,9.89,13,17.56,13,.06.5.11,1,.16,1.61-8.4.13-17.18-6-19.24-14.18A.79.79,0,0,1,358.21,165.48Z"/><path class="cls-14" d="M47.74,346.8c-1.85-3.1-6.72-2.85-7.84-6.28-.48-1.49-.45-3.39-2-4.21a3.61,3.61,0,0,0-3.32.17l.19-.43c.9-1.88-1.89-3.54-2.82-1.65a46.25,46.25,0,0,0-3.21,8.52,1.69,1.69,0,0,0,1.15,2c1.11.39,2.66,1.26,3.88,1.05.79-.13.62-.27,1.38-.07a12.92,12.92,0,0,1,2,1.22,19.78,19.78,0,0,0,9.18,2.13A1.67,1.67,0,0,0,47.74,346.8Z"/><path class="cls-14" d="M89.82,347.86c-2.49-2.61-7.19-1.29-9-4.39-.8-1.34-1.19-3.2-2.92-3.66a3.61,3.61,0,0,0-3.2.9c0-.15.06-.31.09-.46.46-2-2.62-3-3.12-1a46.25,46.25,0,0,0-1.25,9A1.69,1.69,0,0,0,72,350c1.17.13,2.87.64,4,.17.74-.3.54-.4,1.33-.38a12.92,12.92,0,0,1,2.24.74,19.78,19.78,0,0,0,9.43,0A1.67,1.67,0,0,0,89.82,347.86Z"/><path class="cls-15" d="M50.84,275.79a1.66,1.66,0,0,0-3.22-.19l-.22.81.1-1c.15-1.6-2.14-2.12-3-1-.37-1.61-3-1.36-3.25.51l-.75,6.24q.2-3.4.35-6.8c.09-2.1-3.15-2.09-3.26,0-.64,12.62-1.66,25.21-3.21,37.75q-1.16,9.41-2.7,18.77c-.34,2.1-1.88,5.32.11,6.2s6.77,2.53,8.88,3.4c.86.35,1.42-1.21,1.64-2,5.82-20.11,11.58-40.78,11.58-61.87A1.66,1.66,0,0,0,50.84,275.79Z"/><path class="cls-15" d="M81.19,274.22c-.37-2.09-3.55-1.2-3.19.88q.17,1,.33,2c-.22-.73-.45-1.45-.73-2.16a1.71,1.71,0,0,0-.69-.83,1.66,1.66,0,0,0-3.18.14,1.43,1.43,0,0,0-1.92,0,1.85,1.85,0,0,0-2,.72c-1-.83-5.43.06-5.24,1.65,2.46,21.11,4.8,41.92,4.62,63.18a1.67,1.67,0,0,0,1.21,1.59c2.83.45,5.67.78,8.53,1a1.69,1.69,0,0,0,1.65-1.65C82.88,318.56,85.07,296.24,81.19,274.22Z"/><path class="cls-16" d="M64.52,128.31a8.25,8.25,0,0,0-1.58.23c-1.06-1.37-3.27-1.76-4.13.28-.62,1.47-1.22,3-1.82,4.44a29.21,29.21,0,0,0-1.77,4.45c-.65,3,2.6,3.77,4.75,4.65a2.71,2.71,0,0,0,3.51-1.08A32.49,32.49,0,0,0,68.17,131C68.54,129.37,66.21,128.22,64.52,128.31Z"/><path class="cls-16" d="M69,107.39c-4.13-3.7-12.09-.35-15,4.69-2.62,4.55-1.37,5-.27,9.94s3.83,11.77,8.79,13.86l.14.05c3.09,1.66,7,.8,9.54-2.42,3.22-4,3-9.5,2.24-14.31C73.69,113.92,73.17,111.08,69,107.39Z"/><path class="cls-17" d="M69.31,106.13c-4.27-4.55-11.4-2.84-16.39.61-4.61,3.18-7.25,10.26-4.47,14.87.54.9,1.47,4.73,9.22,10.7,4,1.6,7.11,4.48,9.42-.13a7.71,7.71,0,0,0,.77-3.53c0-.81-.87-4.14-.58-4.9s1.47-1.17,2.11-1.69c1-.78,3.25-3.47,3.61-4.66C74.44,112.56,72.52,109.55,69.31,106.13Z"/><path class="cls-17" d="M59.2,108.91c0-1.51-1.55-3.19-3.18-2.93-2.18.35-4.25-.6-6.44-.68a10.63,10.63,0,0,0-5.85,1.59c-3.8,2.29-5.89,6.27-7.74,10.13a24.46,24.46,0,0,1-3,5.2,41,41,0,0,1-5.15,4.56,30.16,30.16,0,0,0-7.52,10.33,52.87,52.87,0,0,0-4.19,11.64c-.9,4.63,2.09,7.25,6.51,7.39A14,14,0,0,0,33.77,151c2.78-3.41,4.11-7.67,5.89-11.62a124.49,124.49,0,0,1,7.62-14.33,46.9,46.9,0,0,1,4.41-6.34c1.66-1.9,3.53-2.63,5.56-4a3,3,0,0,0,1.41-2.71,4.76,4.76,0,0,0-.24-1.06A2.86,2.86,0,0,0,59.2,108.91Z"/><path class="cls-18" d="M101.88,210c-.5-7.63-1.5-11.25-3.59-18.61a163.12,163.12,0,0,0-7.82-20.83c-3-6.78-5.88-13.73-9.61-20.14-3.3-5.67-8.22-9.13-14.73-11-12.26-3.6-18.06,1-19.29,1.64-9.46,5.24-13.92,22.67-21.52,40.5A237.51,237.51,0,0,0,14.94,213q-4.49,16.65-8,33.53-2,9.32-3.64,18.71-.88,4.91-1.68,9.84c-.4,2.47-1.85,9.25-1.52,10.13,0,.54-1.33,6,29.06,6.84,9.52.28,19-1.63,28.38-3.44a125.33,125.33,0,0,0,27.13-8.35c4-1.77,9.12-3.68,12-7.07,3-3.55,2.25-8.18,1.45-12.4-2.24-11.7-4.73-27.38-7.07-39.05A58.38,58.38,0,0,0,97.24,218a15.27,15.27,0,0,0,3.73-3.09C102,213.42,102,211.79,101.88,210Z"/><path class="cls-19" d="M97.9,217.54c-3.13,2.13-7.19,4.37-10.52,6.17-2.22,1.2-6.25,4.14-8.89,3s-2.66-5.75-3.1-8.07c-.29-1.49-.53-3-.75-4.49a32.93,32.93,0,0,0-7.65,4.7c-3.32,2.93-1.82,7.48-1.33,11.3l.93,7.26c.22,1.72.21,3.78,1.5,5.12s3.4,1.17,5.11.43c2.36-1,4.65-2.21,7-3.32q6.55-3.14,13.06-6.36c3.55-1.75,7.58-2.92,7.95-7.43a39.29,39.29,0,0,0-.75-10.3A16.92,16.92,0,0,1,97.9,217.54Z"/><path class="cls-16" d="M92.57,227.94c-.2-1.32-1-5.46-1.16-6.42-.8.42-1.59.85-2.36,1.23s-1.85,1.13-2.87,1.62a26,26,0,0,0,1.81,5.1,22.76,22.76,0,0,0-.07,3.18c.11.54,1.09,2.48.85,3.25a9.08,9.08,0,0,0-1.47.74,1.23,1.23,0,0,0,.25,1.65,3.13,3.13,0,0,0,2,.33,6.37,6.37,0,0,0,4.5-7.21A14.21,14.21,0,0,0,92.57,227.94Z"/><path class="cls-20" d="M73.48,209.36C67.58,191,62.25,171.74,65.32,152.3c.14-.88-1.21-1.26-1.35-.37-3.19,19.65,2.12,39.24,8.15,57.81C72.4,210.6,73.75,210.23,73.48,209.36Z"/></g></g></svg>