<svg xmlns="http://www.w3.org/2000/svg" xmlns:xlink="http://www.w3.org/1999/xlink" viewBox="0 0 382.3 777.9"><defs><style>.cls-1,.cls-19,.cls-2,.cls-21,.cls-23,.cls-3,.cls-33,.cls-35,.cls-5,.cls-8{fill:none;}.cls-2{clip-path:url(#clip-path);}.cls-3{clip-path:url(#clip-path-2);}.cls-38,.cls-4,.cls-6{fill:#fff;}.cls-5,.cls-6{stroke:#d0d2d3;stroke-width:3px;}.cls-17,.cls-21,.cls-5{stroke-linecap:round;stroke-linejoin:round;}.cls-11,.cls-6,.cls-8,.cls-9{stroke-miterlimit:10;}.cls-7,.cls-9{fill:#f1f1f2;}.cls-11,.cls-8,.cls-9{stroke:#dbdbdb;}.cls-11,.cls-8{stroke-width:2px;}.cls-9{stroke-width:1.5px;}.cls-10{fill:#f9fafb;}.cls-11{fill:#e5e5e5;}.cls-12{clip-path:url(#clip-path-3);}.cls-13{clip-path:url(#clip-path-4);}.cls-14,.cls-15,.cls-24,.cls-25,.cls-26,.cls-30,.cls-34,.cls-36,.cls-38{isolation:isolate;}.cls-15,.cls-36,.cls-38{font-size:10.84px;}.cls-15{font-family:Helvetica, Helvetica;}.cls-16{letter-spacing:-0.05em;}.cls-17{stroke:#000;}.cls-17,.cls-33,.cls-35{stroke-width:0.91px;}.cls-18{fill:#fafafa;}.cls-19{stroke:#ebebeb;stroke-width:2.72px;}.cls-20{fill:url(#linear-gradient);}.cls-21,.cls-23{stroke:#7c7c7c;stroke-width:1.81px;}.cls-22{fill:#7c7c7c;}.cls-24,.cls-26,.cls-30{font-size:13.56px;}.cls-24,.cls-25,.cls-30{fill:#3b3b3b;}.cls-24,.cls-25,.cls-26,.cls-30,.cls-36,.cls-38{font-family:Avenir-Black, Avenir;}.cls-25{font-size:18.07px;}.cls-26,.cls-34{fill:#6c6c6c;}.cls-27{letter-spacing:-0.09em;}.cls-28{letter-spacing:-0.02em;}.cls-29,.cls-30{letter-spacing:-0.11em;}.cls-31{letter-spacing:0em;}.cls-32{fill:#ebebeb;}.cls-33{stroke:#707070;}.cls-34{font-size:9.94px;font-family:Avenir-Book, Avenir;}.cls-35{stroke:#47ad92;}.cls-36,.cls-37{fill:#47ad92;}.cls-39{letter-spacing:-0.02em;}.cls-40{letter-spacing:0em;}</style><clipPath id="clip-path"><path class="cls-1" d="M331.85,88.08a2.26,2.26,0,0,1,2.27-2.26h17.24a2.26,2.26,0,0,1,2.27,2.26v5.87a2.26,2.26,0,0,1-2.27,2.26H334.12a2.26,2.26,0,0,1-2.27-2.26Z"/></clipPath><clipPath id="clip-path-2"><path class="cls-2" d="M354.53,89.09a2,2,0,0,1,0,3.84Z"/></clipPath><clipPath id="clip-path-3"><rect class="cls-1" x="20.63" y="82.2" width="340.25" height="602.76"/></clipPath><clipPath id="clip-path-4"><path class="cls-3" d="M333.67,88.53a.91.91,0,0,1,.9-.9h16.35a.9.9,0,0,1,.9.9h0v5a.91.91,0,0,1-.9.9H334.57a.9.9,0,0,1-.9-.9h0Z"/></clipPath><linearGradient id="linear-gradient" x1="-494.42" y1="807.84" x2="-494.42" y2="806.93" gradientTransform="matrix(375, 0, 0, -49, 185598.6, 40224.75)" gradientUnits="userSpaceOnUse"><stop offset="0" stop-color="#080808"/><stop offset="1"/></linearGradient></defs><title>Asset 2</title><g id="Layer_2" data-name="Layer 2"><g id="iPhone_6_-_4.7_" data-name="iPhone 6 - 4.7&apos;&apos;"><rect class="cls-4" x="1.5" y="88.33" width="44.15" height="33.07" rx="2" ry="2"/><rect class="cls-5" x="1.5" y="88.33" width="44.15" height="33.07" rx="2" ry="2"/><rect class="cls-4" x="1.64" y="158.83" width="44.01" height="58.57" rx="2" ry="2"/><rect class="cls-5" x="1.64" y="158.83" width="44.01" height="58.57" rx="2" ry="2"/><rect class="cls-4" x="336.8" y="158.85" width="44" height="58.55" rx="3" ry="3"/><rect class="cls-5" x="336.8" y="158.85" width="44" height="58.55" rx="3" ry="3"/><rect class="cls-4" x="1.79" y="231.12" width="44.01" height="58.57" rx="2" ry="2"/><rect class="cls-5" x="1.79" y="231.12" width="44.01" height="58.57" rx="2" ry="2"/><rect class="cls-6" x="6.92" y="1.5" width="368" height="774.9" rx="51.87" ry="51.87"/><rect class="cls-7" x="18.65" y="81.4" width="344" height="606" rx="3" ry="3"/><rect class="cls-8" x="18.65" y="81.4" width="344" height="606" rx="3" ry="3"/><circle class="cls-9" cx="128.45" cy="43.24" r="6.61"/><circle class="cls-10" cx="190.01" cy="732.47" r="26.35"/><rect class="cls-11" x="159.65" y="40.4" width="60" height="6" rx="2.96" ry="2.96"/><g class="cls-12"><rect class="cls-4" x="20.63" y="82.2" width="340.25" height="602.76"/><g id="Bookmarks_Create_new_shelf" data-name="Bookmarks Create new shelf"><g id="Body"><rect id="Background-2" class="cls-4" x="20.63" y="82.2" width="340.25" height="602.76"/></g><g id="iOS_App_iPhone_4.7_Display_Modal_Sheet" data-name="iOS App iPhone 4.7 Display Modal Sheet"><g id="Navigaton_Bar" data-name="Navigaton Bar"><rect id="Background-3" class="cls-4" x="20.63" y="82.2" width="340.25" height="57.84"/></g><g id="Navigation_Bar" data-name="Navigation Bar"><rect id="Background-4" class="cls-1" x="20.63" y="82.2" width="340.25" height="18.07"/><g id="Status_Bar_on_Light" data-name="Status Bar on Light"><g id="Right"><g id="Battery"><g class="cls-13"><g id="Battery_Outline" data-name="Battery Outline"><g id="Group_277" data-name="Group 277"><path id="Path_727" data-name="Path 727" class="cls-1" d="M331.85,88.08a2.26,2.26,0,0,1,2.27-2.26h17.24a2.26,2.26,0,0,1,2.27,2.26v5.87a2.26,2.26,0,0,1-2.27,2.26H334.12a2.26,2.26,0,0,1-2.27-2.26Z"/></g></g><g id="Cap"><path id="Path_729" data-name="Path 729" d="M350,97.45h10.43V84.58H350Z"/></g><g id="Battery_Fill" data-name="Battery Fill"><path id="Path_731" data-name="Path 731" d="M329.13,98.92h27.22V83.11H329.13Z"/></g></g></g><g id="_Group_" data-name="&lt;Group&gt;" class="cls-14"><text class="cls-15" transform="translate(301.78 94.85)">100%</text></g><path id="Bluetooth" d="M292.38,85.36,296,88.53l-2.5,2.26L296,93l-3.63,3.16V91.92l-2,2-.68-.68,2.5-2.49-2.5-2.49.68-.68,2,2Zm.91,2.14v2.38l1.36-1.27Zm0,4.18v2.49L294.65,93Z"/></g><g id="_9:41_AM" data-name=" 9:41 AM" class="cls-14"><text class="cls-15" transform="translate(171.24 95.76)">9:41<tspan class="cls-16" x="21.11" y="0"> </tspan><tspan x="23.53" y="0">AM</tspan></text></g><g id="Left"><path id="Bars" d="M39,86.27h1.36a.68.68,0,0,1,.68.68v7.68a.68.68,0,0,1-.68.68H39a.68.68,0,0,1-.68-.68V86.95h0A.68.68,0,0,1,39,86.27Zm-4.08,1.81h1.36a.68.68,0,0,1,.68.68v5.87a.68.68,0,0,1-.68.68H34.92a.68.68,0,0,1-.68-.68V88.75A.68.68,0,0,1,34.92,88.08Zm-4.08,1.81H32.2a.68.68,0,0,1,.68.68v4.07a.68.68,0,0,1-.68.68H30.84a.68.68,0,0,1-.68-.68V90.56A.68.68,0,0,1,30.84,89.88Zm-4.08,1.36h1.36a.68.68,0,0,1,.68.68v2.71a.68.68,0,0,1-.68.68H26.76a.68.68,0,0,1-.68-.68V91.92A.68.68,0,0,1,26.76,91.24Z"/><path id="Wifi" class="cls-17" d="M45.12,89a8.87,8.87,0,0,1,11.81,0l-.8.8a7.74,7.74,0,0,0-10.21,0Zm2.17,2.16a5.8,5.8,0,0,1,7.47,0l-.8.8a4.67,4.67,0,0,0-5.87,0Zm2.26,2.25a2.62,2.62,0,0,1,2.95,0L51,94.85Z"/></g></g></g></g><g id="Rectangle_10" data-name="Rectangle 10"><rect class="cls-18" x="40.59" y="284.63" width="301.24" height="217.79"/><rect class="cls-19" x="41.95" y="285.98" width="298.52" height="215.08"/></g><g id="Group_279" data-name="Group 279"><rect id="Background-5" class="cls-20" x="20.63" y="640.68" width="340.25" height="44.28"/><g id="Group_278" data-name="Group 278"><path id="Path_80" data-name="Path 80" class="cls-21" d="M190.8,670.5h5.28a1.94,1.94,0,0,0,2-1.9s0,0,0-.07v-7.89l-4.62-4.6h-5.28a1.94,1.94,0,0,0-2,1.9s0,0,0,.07v3.29"/><path id="Path_81" data-name="Path 81" class="cls-21" d="M193.44,658.67a1.94,1.94,0,0,0,1.91,2h2.71l-4.62-4.6Z"/><line id="Line_50" data-name="Line 50" class="cls-21" x1="184.86" y1="666.55" x2="190.14" y2="666.55"/><line id="Line_51" data-name="Line 51" class="cls-21" x1="187.5" y1="663.93" x2="187.5" y2="669.18"/></g><path id="ic_bookmark_border_24px" data-name="ic bookmark border 24px" class="cls-4" d="M128.61,654.23h-9.07a1.81,1.81,0,0,0-1.81,1.81V670.5l6.35-2.71,6.35,2.71V656A1.82,1.82,0,0,0,128.61,654.23Zm0,13.56-4.54-2-4.54,2V656h9.07Z"/><path id="ic_notifications_none_24px" data-name="ic notifications none 24px" class="cls-22" d="M260.17,671.85A1.82,1.82,0,0,0,262,670h-3.63A1.82,1.82,0,0,0,260.17,671.85Zm5.44-5.42v-4.52c0-2.77-1.48-5.1-4.08-5.71v-.61a1.36,1.36,0,0,0-2.72,0v.61c-2.6.61-4.08,2.93-4.08,5.71v4.52l-1.81,1.81v.9h14.52v-.9Zm-1.81.9h-7.26v-5.42c0-2.24,1.37-4.07,3.63-4.07s3.63,1.83,3.63,4.07Z"/><path id="ic_person_outline_24px" data-name="ic person outline 24px" class="cls-22" d="M329.13,657.76a1.9,1.9,0,1,1-1.91,1.9,1.9,1.9,0,0,1,1.91-1.9h0m0,8.13c2.69,0,5.53,1.32,5.53,1.9v1H323.59v-1c0-.58,2.84-1.9,5.53-1.9m0-9.85a3.61,3.61,0,1,0,3.63,3.61A3.62,3.62,0,0,0,329.13,656Zm0,8.13c-2.42,0-7.26,1.21-7.26,3.61v2.71h14.52v-2.71C336.39,665.38,331.55,664.17,329.13,664.17Z"/><path id="ic_home_24px" data-name="ic home 24px" class="cls-23" d="M52.84,670.5v-5.42h3.63v5.42H61v-7.23h2.72l-9.07-8.13-9.07,8.13h2.72v7.23Z"/></g><g id="Bookmarks" class="cls-14"><text class="cls-24" transform="translate(155.83 121.96)">Bookmarks</text></g><g id="Shelves" class="cls-14"><text class="cls-25" transform="translate(40.59 177.99)">Shelves</text></g><g id="Your_shelves" data-name="Your shelves" class="cls-14"><text class="cls-26" transform="translate(40.59 217.58)"><tspan class="cls-27">Y</tspan><tspan x="7.54" y="0">our shelves</tspan></text></g><g id="Group_306" data-name="Group 306"><g id="UX_Design" data-name="UX Design" class="cls-14"><text class="cls-24" transform="translate(56.93 357.82)">UX Design</text></g><g id="Interesting_Thoughts" data-name="Interesting Thoughts" class="cls-14"><text class="cls-24" transform="translate(56.93 398.49)">Inte<tspan class="cls-28" x="25.09" y="0">r</tspan><tspan x="30.36" y="0">esting Thoughts</tspan></text></g><g id="To-Read" class="cls-14"><text class="cls-24" transform="translate(56.93 317.16)"><tspan class="cls-29">T</tspan><tspan x="6.28" y="0">o-Read</tspan></text></g><g id="Tech" class="cls-14"><text class="cls-30" transform="translate(56.93 439.16)">T<tspan class="cls-31" x="6.28" y="0">ech</tspan></text></g><g id="Music" class="cls-14"><text class="cls-24" transform="translate(56.93 479.82)">Music</text></g></g><g id="Group_305" data-name="Group 305"><line id="Line_53" data-name="Line 53" class="cls-19" x1="56.93" y1="332.97" x2="324.59" y2="332.97"/><line id="Line_56" data-name="Line 56" class="cls-19" x1="56.93" y1="373.64" x2="324.59" y2="373.64"/><line id="Line_57" data-name="Line 57" class="cls-19" x1="56.93" y1="414.3" x2="324.59" y2="414.3"/><line id="Line_58" data-name="Line 58" class="cls-19" x1="56.93" y1="454.97" x2="324.59" y2="454.97"/></g><g id="Group_307" data-name="Group 307"><g id="Name" class="cls-14"><text class="cls-24" transform="translate(40.59 241.25)">Name</text></g><g id="Group_301" data-name="Group 301"><path id="Rectangle_6" data-name="Rectangle 6" class="cls-32" d="M43.32,246.67H252.09a2.72,2.72,0,0,1,2.72,2.71V262a2.72,2.72,0,0,1-2.72,2.71H43.32A2.72,2.72,0,0,1,40.59,262V249.38A2.72,2.72,0,0,1,43.32,246.67Z"/><g id="Rectangle_7" data-name="Rectangle 7"><path class="cls-4" d="M48,249.38h0a.5.5,0,0,1,.5.49v11.66a.5.5,0,0,1-.5.49h0a.5.5,0,0,1-.5-.49V249.88A.5.5,0,0,1,48,249.38Z"/><path class="cls-33" d="M48,249.83h0a0,0,0,0,1,0,0v11.66a0,0,0,0,1,0,0h0a0,0,0,0,1,0,0V249.88A0,0,0,0,1,48,249.83Z"/></g><g id="Name_your_shelf" data-name="Name your shelf" class="cls-14"><text class="cls-34" transform="translate(47.54 258.42)">Name your shelf</text></g></g><g id="Group_302" data-name="Group 302"><g id="Rectangle_8" data-name="Rectangle 8"><path class="cls-1" d="M306.45,246.67h38.15a2.72,2.72,0,0,1,2.72,2.71V262a2.72,2.72,0,0,1-2.72,2.71H306.45a2.72,2.72,0,0,1-2.72-2.71V249.38A2.72,2.72,0,0,1,306.45,246.67Z"/><path class="cls-35" d="M306.45,247.12h38.15a2.26,2.26,0,0,1,2.27,2.26V262a2.26,2.26,0,0,1-2.27,2.26H306.45a2.26,2.26,0,0,1-2.27-2.26V249.38A2.26,2.26,0,0,1,306.45,247.12Z"/></g><g id="Cancel" class="cls-14"><text class="cls-36" transform="translate(308.91 259.32)">Cancel</text></g></g><g id="Group_319" data-name="Group 319"><g id="Group_318" data-name="Group 318"><g id="Rectangle_8-2" data-name="Rectangle 8-2"><path class="cls-37" d="M260.17,246.67h38.15a2.72,2.72,0,0,1,2.72,2.71V262a2.72,2.72,0,0,1-2.72,2.71H260.17a2.72,2.72,0,0,1-2.72-2.71V249.38A2.72,2.72,0,0,1,260.17,246.67Z"/><path class="cls-35" d="M260.17,247.12h38.15a2.26,2.26,0,0,1,2.27,2.26V262a2.26,2.26,0,0,1-2.27,2.26H260.17A2.26,2.26,0,0,1,257.9,262V249.38A2.26,2.26,0,0,1,260.17,247.12Z"/></g></g><g id="Create" class="cls-14"><text class="cls-38" transform="translate(261.99 259.32)">C<tspan class="cls-39" x="7.43" y="0">r</tspan><tspan class="cls-40" x="11.65" y="0">eate</tspan></text></g></g></g></g></g></g></g></svg>