<svg xmlns="http://www.w3.org/2000/svg" xmlns:xlink="http://www.w3.org/1999/xlink" viewBox="0 0 382.3 777.9"><defs><style>.cls-1,.cls-2,.cls-20,.cls-26,.cls-28,.cls-3,.cls-30,.cls-32,.cls-5,.cls-8{fill:none;}.cls-2{clip-path:url(#clip-path);}.cls-3{clip-path:url(#clip-path-2);}.cls-4,.cls-6{fill:#fff;}.cls-5,.cls-6{stroke:#d0d2d3;stroke-width:3px;}.cls-17,.cls-28,.cls-32,.cls-5{stroke-linecap:round;stroke-linejoin:round;}.cls-11,.cls-6,.cls-8,.cls-9{stroke-miterlimit:10;}.cls-7,.cls-9{fill:#f1f1f2;}.cls-11,.cls-8,.cls-9{stroke:#dbdbdb;}.cls-11,.cls-8{stroke-width:2px;}.cls-9{stroke-width:1.5px;}.cls-10{fill:#f9fafb;}.cls-11{fill:#e5e5e5;}.cls-12{clip-path:url(#clip-path-3);}.cls-13{clip-path:url(#clip-path-4);}.cls-14,.cls-15,.cls-18,.cls-19,.cls-21,.cls-23,.cls-31{isolation:isolate;}.cls-15,.cls-31{font-size:10.85px;}.cls-15{font-family:Helvetica, Helvetica;}.cls-16{letter-spacing:-0.05em;}.cls-17{stroke:#000;}.cls-17,.cls-24,.cls-26{stroke-width:0.91px;}.cls-18{font-size:13.57px;}.cls-18,.cls-19,.cls-23{fill:#3b3b3b;}.cls-18,.cls-19{font-family:Avenir-Black, Avenir;}.cls-19{font-size:18.09px;}.cls-20,.cls-26{stroke:#ebebeb;}.cls-20{stroke-width:2.72px;}.cls-21,.cls-23{font-size:9.04px;font-family:Avenir-Book, Avenir;}.cls-21{fill:#6c6c6c;}.cls-22{letter-spacing:-0.02em;}.cls-24{fill:#95989a;}.cls-24,.cls-32{stroke:#95989a;}.cls-25{fill:#ebebeb;}.cls-27{fill:url(#linear-gradient);}.cls-28,.cls-30{stroke:#7c7c7c;}.cls-28,.cls-30,.cls-32{stroke-width:1.81px;}.cls-29{fill:#7c7c7c;}.cls-31{fill:#47ad92;font-family:Avenir-Medium, Avenir;}</style><clipPath id="clip-path"><path class="cls-1" d="M331.42,88.4a2.26,2.26,0,0,1,2.27-2.26h17.24a2.26,2.26,0,0,1,2.27,2.26v5.88a2.26,2.26,0,0,1-2.27,2.26H333.69a2.26,2.26,0,0,1-2.27-2.26Z"/></clipPath><clipPath id="clip-path-2"><path class="cls-2" d="M354.1,89.42a2,2,0,0,1,0,3.84Z"/></clipPath><clipPath id="clip-path-3"><rect class="cls-1" x="20.23" y="82.52" width="340.23" height="603.27"/></clipPath><clipPath id="clip-path-4"><path class="cls-3" d="M333.23,88.85a.91.91,0,0,1,.9-.9h16.35a.9.9,0,0,1,.9.9h0v5a.91.91,0,0,1-.9.9H334.13a.9.9,0,0,1-.9-.9h0Z"/></clipPath><linearGradient id="linear-gradient" x1="-967.11" y1="807.82" x2="-967.11" y2="806.92" gradientTransform="matrix(375, 0, 0, -49, 362855.25, 40224.75)" gradientUnits="userSpaceOnUse"><stop offset="0" stop-color="#080808"/><stop offset="1"/></linearGradient></defs><title>Asset 3</title><g id="Layer_2" data-name="Layer 2"><g id="iPhone_6_-_4.7_" data-name="iPhone 6 - 4.7&apos;&apos;"><rect class="cls-4" x="1.5" y="88.33" width="44.15" height="33.07" rx="2" ry="2"/><rect class="cls-5" x="1.5" y="88.33" width="44.15" height="33.07" rx="2" ry="2"/><rect class="cls-4" x="1.64" y="158.83" width="44.01" height="58.57" rx="2" ry="2"/><rect class="cls-5" x="1.64" y="158.83" width="44.01" height="58.57" rx="2" ry="2"/><rect class="cls-4" x="336.8" y="158.85" width="44" height="58.55" rx="3" ry="3"/><rect class="cls-5" x="336.8" y="158.85" width="44" height="58.55" rx="3" ry="3"/><rect class="cls-4" x="1.79" y="231.12" width="44.01" height="58.57" rx="2" ry="2"/><rect class="cls-5" x="1.79" y="231.12" width="44.01" height="58.57" rx="2" ry="2"/><rect class="cls-6" x="6.92" y="1.5" width="368" height="774.9" rx="51.87" ry="51.87"/><rect class="cls-7" x="18.65" y="81.4" width="344" height="606" rx="3" ry="3"/><rect class="cls-8" x="18.65" y="81.4" width="344" height="606" rx="3" ry="3"/><circle class="cls-9" cx="128.45" cy="43.24" r="6.61"/><circle class="cls-10" cx="190.01" cy="732.47" r="26.35"/><rect class="cls-11" x="159.65" y="40.4" width="60" height="6" rx="2.96" ry="2.96"/><g class="cls-12"><rect class="cls-4" x="20.23" y="82.52" width="340.23" height="603.27"/><g id="UX_Design_Shelf" data-name="UX Design Shelf"><g id="Body"><rect id="Background-2" class="cls-4" x="20.23" y="82.52" width="340.23" height="603.27"/></g><g id="iOS_App_iPhone_4.7_Display_Modal_Sheet" data-name="iOS App iPhone 4.7 Display Modal Sheet"><g id="Navigaton_Bar" data-name="Navigaton Bar"><rect id="Background-3" class="cls-4" x="20.23" y="82.52" width="340.23" height="57.88"/></g><g id="Navigation_Bar" data-name="Navigation Bar"><rect id="Background-4" class="cls-1" x="20.23" y="82.52" width="340.23" height="18.09"/><g id="Status_Bar_on_Light" data-name="Status Bar on Light"><g id="Right"><g id="Battery"><g class="cls-13"><g id="Battery_Outline" data-name="Battery Outline"><g id="Group_277" data-name="Group 277"><path id="Path_727" data-name="Path 727" class="cls-1" d="M331.42,88.4a2.26,2.26,0,0,1,2.27-2.26h17.24a2.26,2.26,0,0,1,2.27,2.26v5.88a2.26,2.26,0,0,1-2.27,2.26H333.69a2.26,2.26,0,0,1-2.27-2.26Z"/></g></g><g id="Cap"><path id="Path_729" data-name="Path 729" d="M349.56,97.78H360V84.89H349.56Z"/></g><g id="Battery_Fill" data-name="Battery Fill"><path id="Path_731" data-name="Path 731" d="M328.7,99.25h27.22V83.42H328.7Z"/></g></g></g><g id="_Group_" data-name="&lt;Group&gt;" class="cls-14"><text class="cls-15" transform="translate(301.35 95.18)">100%</text></g><path id="Bluetooth" d="M292,85.68l3.63,3.17-2.49,2.26,2.49,2.26L292,96.54v-4.3l-2,2-.68-.68,2.49-2.49-2.49-2.49.68-.68,2,2Zm.91,2.14V90.2l1.36-1.27Zm0,4.19V94.5l1.36-1.17Z"/></g><g id="_9:41_AM" data-name=" 9:41 AM" class="cls-14"><text class="cls-15" transform="translate(170.82 96.08)">9:41<tspan class="cls-16" x="21.12" y="0"> </tspan><tspan x="23.55" y="0">AM</tspan></text></g><g id="Left"><path id="Bars" d="M38.6,86.59H40a.68.68,0,0,1,.68.68V95a.68.68,0,0,1-.68.68H38.6a.68.68,0,0,1-.68-.68V87.26h0A.68.68,0,0,1,38.6,86.59ZM34.52,88.4h1.36a.68.68,0,0,1,.68.68V95a.68.68,0,0,1-.68.68H34.52a.68.68,0,0,1-.68-.68V89.07A.68.68,0,0,1,34.52,88.4ZM30.43,90.2h1.36a.68.68,0,0,1,.68.68V95a.68.68,0,0,1-.68.68H30.43a.68.68,0,0,1-.68-.68V90.88A.68.68,0,0,1,30.43,90.2Zm-4.08,1.36h1.36a.68.68,0,0,1,.68.68V95a.68.68,0,0,1-.68.68H26.35a.68.68,0,0,1-.68-.68V92.24A.68.68,0,0,1,26.35,91.56Z"/><path id="Wifi" class="cls-17" d="M44.71,89.29a8.87,8.87,0,0,1,11.81,0l-.8.8a7.73,7.73,0,0,0-10.2,0Zm2.17,2.16a5.8,5.8,0,0,1,7.47,0l-.8.8a4.66,4.66,0,0,0-5.87,0Zm2.26,2.26a2.62,2.62,0,0,1,2.94,0l-1.47,1.47Z"/></g></g></g></g><g id="Shelves" class="cls-14"><text class="cls-18" transform="translate(166.3 122.31)">Shelves</text></g><g id="UX_Design" data-name="UX Design" class="cls-14"><text class="cls-19" transform="translate(40.19 178.39)">UX Design</text></g><line id="Line_59" data-name="Line 59" class="cls-20" x1="39.73" y1="202.36" x2="340.95" y2="202.36"/><g id="Group_309" data-name="Group 309"><g id="Subtitle" class="cls-14"><text class="cls-21" transform="translate(40.19 249.84)">Subtitle</text></g><g id="May_28_3_min_read" data-name="May 28 3 min read" class="cls-14"><text class="cls-21" transform="translate(40.19 292.35)">May 28 • 3 min <tspan class="cls-22" x="64.19" y="0">r</tspan><tspan x="67.03" y="0">ead</tspan></text></g><g id="John_Smith" data-name="John Smith" class="cls-14"><text class="cls-23" transform="translate(40.19 279.68)">John Smith</text></g><g id="Title_Example" data-name="Title Example" class="cls-14"><text class="cls-18" transform="translate(40.19 233.56)">Title Example</text></g><path id="ic_bookmark_24px" data-name="ic bookmark 24px" class="cls-24" d="M339.47,283.3h-6.71a1.34,1.34,0,0,0-1.33,1.34v10.69l4.69-2,4.69,2V284.64A1.34,1.34,0,0,0,339.47,283.3Z"/><path id="Rectangle_3" data-name="Rectangle 3" class="cls-25" d="M302.39,222.71h36.29a2.72,2.72,0,0,1,2.72,2.71V261.6a2.72,2.72,0,0,1-2.72,2.71H302.39a2.72,2.72,0,0,1-2.72-2.71V225.42A2.72,2.72,0,0,1,302.39,222.71Z"/></g><line id="Line_60" data-name="Line 60" class="cls-26" x1="39.73" y1="310.89" x2="340.95" y2="310.89"/><g id="Group_310" data-name="Group 310"><g id="Subtitle-2" class="cls-14"><text class="cls-21" transform="translate(40.19 353.85)">Subtitle</text></g><g id="May_28_3_min_read-2" data-name="May 28 3 min read-2" class="cls-14"><text class="cls-21" transform="translate(40.19 396.36)">May 28 • 3 min <tspan class="cls-22" x="64.19" y="0">r</tspan><tspan x="67.03" y="0">ead</tspan></text></g><g id="John_Smith-2" data-name="John Smith-2" class="cls-14"><text class="cls-23" transform="translate(40.19 383.7)">John Smith</text></g><g id="Title_Example-2" data-name="Title Example-2" class="cls-14"><text class="cls-18" transform="translate(40.19 337.57)">Title Example</text></g><path id="ic_bookmark_24px-2" data-name="ic bookmark 24px-2" class="cls-24" d="M339.47,387.31h-6.71a1.34,1.34,0,0,0-1.33,1.34v10.69l4.69-2,4.69,2V388.65A1.34,1.34,0,0,0,339.47,387.31Z"/><path id="Rectangle_3-2" data-name="Rectangle 3-2" class="cls-25" d="M302.39,326.72h36.29a2.72,2.72,0,0,1,2.72,2.71v36.18a2.72,2.72,0,0,1-2.72,2.71H302.39a2.72,2.72,0,0,1-2.72-2.71V329.43A2.72,2.72,0,0,1,302.39,326.72Z"/></g><line id="Line_61" data-name="Line 61" class="cls-26" x1="39.73" y1="414.9" x2="340.95" y2="414.9"/><g id="Group_311" data-name="Group 311"><g id="Subtitle-3" class="cls-14"><text class="cls-21" transform="translate(40.19 457.86)">Subtitle</text></g><g id="May_28_3_min_read-3" data-name="May 28 3 min read-3" class="cls-14"><text class="cls-21" transform="translate(40.19 500.37)">May 28 • 3 min <tspan class="cls-22" x="64.19" y="0">r</tspan><tspan x="67.03" y="0">ead</tspan></text></g><g id="John_Smith-3" data-name="John Smith-3" class="cls-14"><text class="cls-23" transform="translate(40.19 487.71)">John Smith</text></g><g id="Title_Example-3" data-name="Title Example-3" class="cls-14"><text class="cls-18" transform="translate(40.19 441.58)">Title Example</text></g><path id="ic_bookmark_24px-3" data-name="ic bookmark 24px-3" class="cls-24" d="M339.47,491.33h-6.71a1.34,1.34,0,0,0-1.33,1.34v10.69l4.69-2,4.69,2V492.66A1.34,1.34,0,0,0,339.47,491.33Z"/><path id="Rectangle_3-3" data-name="Rectangle 3-3" class="cls-25" d="M302.39,430.73h36.29a2.72,2.72,0,0,1,2.72,2.71v36.18a2.72,2.72,0,0,1-2.72,2.71H302.39a2.72,2.72,0,0,1-2.72-2.71V433.44A2.72,2.72,0,0,1,302.39,430.73Z"/></g><line id="Line_62" data-name="Line 62" class="cls-26" x1="39.73" y1="518.91" x2="340.95" y2="518.91"/><g id="Group_312" data-name="Group 312"><g id="Subtitle-4" class="cls-14"><text class="cls-21" transform="translate(40.19 561.87)">Subtitle</text></g><g id="May_28_3_min_read-4" data-name="May 28 3 min read-4" class="cls-14"><text class="cls-21" transform="translate(40.19 604.38)">May 28 • 3 min <tspan class="cls-22" x="64.19" y="0">r</tspan><tspan x="67.03" y="0">ead</tspan></text></g><g id="John_Smith-4" data-name="John Smith-4" class="cls-14"><text class="cls-23" transform="translate(40.19 591.72)">John Smith</text></g><g id="Title_Example-4" data-name="Title Example-4" class="cls-14"><text class="cls-18" transform="translate(40.19 545.59)">Title Example</text></g><path id="ic_bookmark_24px-4" data-name="ic bookmark 24px-4" class="cls-24" d="M339.47,595.34h-6.71a1.34,1.34,0,0,0-1.33,1.34v10.69l4.69-2,4.69,2V596.67A1.34,1.34,0,0,0,339.47,595.34Z"/><path id="Rectangle_3-4" data-name="Rectangle 3-4" class="cls-25" d="M302.39,534.74h36.29a2.72,2.72,0,0,1,2.72,2.71v36.18a2.72,2.72,0,0,1-2.72,2.71H302.39a2.72,2.72,0,0,1-2.72-2.71V537.45A2.72,2.72,0,0,1,302.39,534.74Z"/></g><line id="Line_63" data-name="Line 63" class="cls-26" x1="39.73" y1="622.92" x2="340.95" y2="622.92"/><g id="Subtitle-5" class="cls-14"><text class="cls-21" transform="translate(40.19 665.89)">Subtitle</text></g><g id="Title_Example-5" data-name="Title Example-5" class="cls-14"><text class="cls-18" transform="translate(40.19 649.6)">Title Example</text></g><path id="Rectangle_3-5" data-name="Rectangle 3-5" class="cls-25" d="M302.39,638.75h36.29a2.72,2.72,0,0,1,2.72,2.71v36.18a2.72,2.72,0,0,1-2.72,2.71H302.39a2.72,2.72,0,0,1-2.72-2.71V641.46A2.72,2.72,0,0,1,302.39,638.75Z"/><g id="Group_279" data-name="Group 279"><rect id="Background-5" class="cls-27" x="20.23" y="641.46" width="340.23" height="44.32"/><g id="Group_278" data-name="Group 278"><path id="Path_80" data-name="Path 80" class="cls-28" d="M190.38,671.31h5.28a1.94,1.94,0,0,0,2-1.9s0,0,0-.07v-7.89l-4.62-4.6h-5.28a1.94,1.94,0,0,0-2,1.9s0,0,0,.07v3.29"/><path id="Path_81" data-name="Path 81" class="cls-28" d="M193,659.47a1.94,1.94,0,0,0,1.91,2h2.71l-4.62-4.6Z"/><line id="Line_50" data-name="Line 50" class="cls-28" x1="184.44" y1="667.36" x2="189.72" y2="667.36"/><line id="Line_51" data-name="Line 51" class="cls-28" x1="187.08" y1="664.73" x2="187.08" y2="669.99"/></g><path id="ic_bookmark_border_24px" data-name="ic bookmark border 24px" class="cls-4" d="M128.19,655h-9.07a1.81,1.81,0,0,0-1.81,1.81v14.47l6.35-2.71,6.35,2.71V656.84A1.82,1.82,0,0,0,128.19,655Zm0,13.57-4.54-2-4.54,2V656.84h9.07Z"/><path id="ic_notifications_none_24px" data-name="ic notifications none 24px" class="cls-29" d="M259.74,672.67a1.82,1.82,0,0,0,1.81-1.81h-3.63A1.82,1.82,0,0,0,259.74,672.67Zm5.44-5.43v-4.52c0-2.78-1.48-5.1-4.08-5.72v-.62a1.36,1.36,0,0,0-2.72,0V657c-2.59.62-4.08,2.93-4.08,5.72v4.52L252.49,669v.9H267V669Zm-1.81.9h-7.26v-5.43c0-2.24,1.37-4.07,3.63-4.07s3.63,1.83,3.63,4.07Z"/><path id="ic_person_outline_24px" data-name="ic person outline 24px" class="cls-29" d="M328.7,658.56a1.9,1.9,0,1,1-1.91,1.9,1.9,1.9,0,0,1,1.91-1.9h0m0,8.14c2.69,0,5.53,1.32,5.53,1.9v1H323.16v-1c0-.58,2.84-1.9,5.53-1.9m0-9.86a3.62,3.62,0,1,0,3.63,3.62A3.62,3.62,0,0,0,328.7,656.84Zm0,8.14c-2.42,0-7.26,1.21-7.26,3.62v2.71H336V668.6C336,666.19,331.12,665,328.7,665Z"/><path id="ic_home_24px" data-name="ic home 24px" class="cls-30" d="M52.43,671.31v-5.43h3.63v5.43H60.6v-7.24h2.72l-9.07-8.14-9.07,8.14H47.9v7.24Z"/></g><g id="Delete_this_Shelf" data-name="Delete this Shelf" class="cls-14"><text class="cls-31" transform="translate(260.65 181.1)">Delete this Shelf</text></g><g id="Group_313" data-name="Group 313"><path id="Path_61" data-name="Path 61" class="cls-32" d="M40.26,124.5l-6.8-6.78,6.8-6.78"/></g></g></g></g></g></svg>