<svg xmlns="http://www.w3.org/2000/svg" viewBox="0 0 282.21 574.24"><defs><style>.cls-1,.cls-13,.cls-15,.cls-3{fill:#fff;}.cls-2,.cls-7{fill:none;}.cls-2,.cls-3{stroke:#d0d2d3;stroke-width:2.21px;}.cls-2{stroke-linecap:round;stroke-linejoin:round;}.cls-13,.cls-3,.cls-4,.cls-6,.cls-7{stroke-miterlimit:10;}.cls-4{fill:#f1f1f2;stroke-width:1.11px;}.cls-4,.cls-6,.cls-7{stroke:#dbdbdb;}.cls-5{fill:#d0d2d3;}.cls-6{fill:#e5e5e5;}.cls-6,.cls-7{stroke-width:1.48px;}.cls-8{font-size:24.97px;}.cls-10,.cls-11,.cls-8{fill:#474a52;}.cls-10,.cls-11,.cls-15,.cls-8{font-family:Roboto-Condensed, Roboto;}.cls-9{letter-spacing:-0.01em;}.cls-10{font-size:79.37px;}.cls-11{font-size:34.89px;}.cls-12{fill:#70568d;}.cls-13{stroke:#70568d;stroke-width:0.91px;}.cls-14{fill:#ec6783;}.cls-15{font-size:20.2px;}</style></defs><title>alarm</title><g id="Layer_2" data-name="Layer 2"><g id="Layer_2-2" data-name="Layer 2"><g id="alarm_home" data-name="alarm home"><rect class="cls-1" x="1.11" y="65.2" width="32.59" height="24.41" rx="1.48" ry="1.48"/><rect class="cls-2" x="1.11" y="65.2" width="32.59" height="24.41" rx="1.48" ry="1.48"/><rect class="cls-1" x="1.21" y="117.25" width="32.49" height="43.23" rx="1.48" ry="1.48"/><rect class="cls-2" x="1.21" y="117.25" width="32.49" height="43.23" rx="1.48" ry="1.48"/><rect class="cls-1" x="248.62" y="117.26" width="32.48" height="43.22" rx="2.21" ry="2.21"/><rect class="cls-2" x="248.62" y="117.26" width="32.48" height="43.22" rx="2.21" ry="2.21"/><rect class="cls-1" x="1.32" y="170.61" width="32.49" height="43.23" rx="1.48" ry="1.48"/><rect class="cls-2" x="1.32" y="170.61" width="32.49" height="43.23" rx="1.48" ry="1.48"/><rect class="cls-3" x="5.11" y="1.11" width="271.66" height="572.03" rx="38.29" ry="38.29"/><circle class="cls-4" cx="94.82" cy="31.92" r="4.88"/><circle class="cls-4" cx="140.27" cy="12.45" r="2.98"/><circle class="cls-5" cx="140.27" cy="540.7" r="22.23"/><circle class="cls-4" cx="140.27" cy="540.7" r="19.45"/><rect class="cls-6" x="117.85" y="29.82" width="44.29" height="4.43" rx="2.18" ry="2.18"/><rect class="cls-1" x="12.58" y="54.81" width="253.94" height="447.35" rx="2.21" ry="2.21"/><rect class="cls-7" x="12.58" y="54.81" width="253.94" height="447.35" rx="2.21" ry="2.21"/><text class="cls-8" transform="translate(43.42 202.01)">wa<tspan class="cls-9" x="27.98" y="0">k</tspan><tspan x="39.11" y="0">e me at</tspan></text><text class="cls-10" transform="translate(43.42 281.29)">8:30</text><text class="cls-11" transform="translate(191.02 280.71)">AM</text><circle class="cls-12" cx="209.57" cy="194.5" r="8.92"/><rect class="cls-12" x="209.08" y="185.61" width="18.01" height="17.82"/><circle class="cls-13" cx="226.76" cy="194.24" r="8.92"/><rect class="cls-14" x="97.6" y="344.81" width="83.89" height="31.51" rx="12" ry="12"/><text class="cls-15" transform="translate(110.68 366.47)">change</text></g></g></g></svg>