<svg xmlns="http://www.w3.org/2000/svg" viewBox="0 0 282.21 574.24"><defs><style>.cls-1,.cls-12,.cls-3,.cls-9{fill:#fff;}.cls-2,.cls-7{fill:none;}.cls-2,.cls-3{stroke:#d0d2d3;stroke-width:2.21px;}.cls-2{stroke-linecap:round;stroke-linejoin:round;}.cls-3,.cls-4,.cls-6,.cls-7{stroke-miterlimit:10;}.cls-4{fill:#f1f1f2;stroke-width:1.11px;}.cls-4,.cls-6,.cls-7{stroke:#dbdbdb;}.cls-5{fill:#d0d2d3;}.cls-6{fill:#e5e5e5;}.cls-6,.cls-7{stroke-width:1.48px;}.cls-8{fill:#ec6783;}.cls-9{font-size:20.2px;}.cls-12,.cls-9{font-family:Roboto-Condensed, Roboto;}.cls-10{letter-spacing:-0.01em;}.cls-11{fill:#70568d;opacity:0.5;}.cls-12{font-size:20.43px;}.cls-13{fill:#474a52;}</style></defs><title>camera</title><g id="Layer_2" data-name="Layer 2"><g id="Layer_2-2" data-name="Layer 2"><rect class="cls-1" x="1.11" y="65.2" width="32.59" height="24.41" rx="1.48" ry="1.48"/><rect class="cls-2" x="1.11" y="65.2" width="32.59" height="24.41" rx="1.48" ry="1.48"/><rect class="cls-1" x="1.21" y="117.25" width="32.49" height="43.23" rx="1.48" ry="1.48"/><rect class="cls-2" x="1.21" y="117.25" width="32.49" height="43.23" rx="1.48" ry="1.48"/><rect class="cls-1" x="248.62" y="117.26" width="32.48" height="43.22" rx="2.21" ry="2.21"/><rect class="cls-2" x="248.62" y="117.26" width="32.48" height="43.22" rx="2.21" ry="2.21"/><rect class="cls-1" x="1.32" y="170.61" width="32.49" height="43.23" rx="1.48" ry="1.48"/><rect class="cls-2" x="1.32" y="170.61" width="32.49" height="43.23" rx="1.48" ry="1.48"/><rect class="cls-3" x="5.11" y="1.11" width="271.66" height="572.03" rx="38.29" ry="38.29"/><circle class="cls-4" cx="94.82" cy="31.92" r="4.88"/><circle class="cls-4" cx="140.27" cy="12.45" r="2.98"/><circle class="cls-5" cx="140.27" cy="540.7" r="22.23"/><circle class="cls-4" cx="140.27" cy="540.7" r="19.45"/><rect class="cls-6" x="117.85" y="29.82" width="44.29" height="4.43" rx="2.18" ry="2.18"/><rect class="cls-1" x="14.23" y="56.84" width="253.94" height="447.35" rx="2.21" ry="2.21"/><rect class="cls-7" x="14.23" y="56.84" width="253.94" height="447.35" rx="2.21" ry="2.21"/><rect class="cls-8" x="99.25" y="391.59" width="83.89" height="31.51" rx="12" ry="12"/><text class="cls-9" transform="translate(124.3 413.25)">ta<tspan class="cls-10" x="15.6" y="0">k</tspan><tspan x="24.6" y="0">e</tspan></text><rect class="cls-11" x="50.86" y="145.6" width="180.09" height="180.09"/><text class="cls-12" transform="translate(78.94 241.61)">find me a toilet!</text><rect class="cls-13" x="44.58" y="137.95" width="19.28" height="1.64" rx="0.7" ry="0.7"/><rect class="cls-13" x="44.42" y="137.93" width="1.64" height="19.28" rx="0.7" ry="0.7"/><rect class="cls-13" x="218.55" y="330.51" width="19.28" height="1.64" rx="0.7" ry="0.7"/><rect class="cls-13" x="236.36" y="312.89" width="1.64" height="19.28" rx="0.7" ry="0.7"/><rect class="cls-13" x="44.11" y="313.26" width="1.64" height="19.28" rx="0.7" ry="0.7"/><rect class="cls-13" x="44.08" y="331.07" width="19.28" height="1.64" rx="0.7" ry="0.7"/><rect class="cls-13" x="236.66" y="139.3" width="1.64" height="19.28" rx="0.7" ry="0.7"/><rect class="cls-13" x="219.04" y="139.13" width="19.28" height="1.64" rx="0.7" ry="0.7"/></g></g></svg>