<svg xmlns="http://www.w3.org/2000/svg" viewBox="0 0 282.21 574.24"><defs><style>.cls-1,.cls-13,.cls-3{fill:#fff;}.cls-2,.cls-4{fill:none;}.cls-2,.cls-3{stroke:#d0d2d3;stroke-width:2.21px;}.cls-2{stroke-linecap:round;stroke-linejoin:round;}.cls-3,.cls-4,.cls-5,.cls-7{stroke-miterlimit:10;}.cls-4,.cls-5,.cls-7{stroke:#dbdbdb;}.cls-4,.cls-7{stroke-width:1.48px;}.cls-5{fill:#f1f1f2;stroke-width:1.11px;}.cls-6{fill:#d0d2d3;}.cls-7{fill:#e5e5e5;}.cls-8{font-size:26.57px;}.cls-12,.cls-8,.cls-9{fill:#474a52;}.cls-13,.cls-8,.cls-9{font-family:Roboto-Condensed, Roboto;}.cls-13,.cls-9{font-size:25.57px;}.cls-10{letter-spacing:-0.01em;}.cls-11{fill:#ec6783;}.cls-14{fill:#70568d;}.cls-15{fill:#ddd7e3;}</style></defs><title>start</title><g id="Layer_2" data-name="Layer 2"><g id="Layer_2-2" data-name="Layer 2"><g id="start"><rect class="cls-1" x="1.11" y="65.2" width="32.59" height="24.41" rx="1.48" ry="1.48"/><rect class="cls-2" x="1.11" y="65.2" width="32.59" height="24.41" rx="1.48" ry="1.48"/><rect class="cls-1" x="1.21" y="117.25" width="32.49" height="43.23" rx="1.48" ry="1.48"/><rect class="cls-2" x="1.21" y="117.25" width="32.49" height="43.23" rx="1.48" ry="1.48"/><rect class="cls-1" x="248.62" y="117.26" width="32.48" height="43.22" rx="2.21" ry="2.21"/><rect class="cls-2" x="248.62" y="117.26" width="32.48" height="43.22" rx="2.21" ry="2.21"/><rect class="cls-1" x="1.32" y="170.61" width="32.49" height="43.23" rx="1.48" ry="1.48"/><rect class="cls-2" x="1.32" y="170.61" width="32.49" height="43.23" rx="1.48" ry="1.48"/><rect class="cls-3" x="5.11" y="1.11" width="271.66" height="572.03" rx="38.29" ry="38.29"/><rect class="cls-1" x="13.27" y="55.73" width="253.94" height="447.35" rx="2.21" ry="2.21"/><rect class="cls-4" x="13.27" y="55.73" width="253.94" height="447.35" rx="2.21" ry="2.21"/><circle class="cls-5" cx="94.82" cy="31.92" r="4.88"/><circle class="cls-5" cx="140.27" cy="12.45" r="2.98"/><circle class="cls-6" cx="140.27" cy="540.7" r="22.23"/><circle class="cls-5" cx="140.27" cy="540.7" r="19.45"/><rect class="cls-7" x="117.85" y="29.82" width="44.29" height="4.43" rx="2.18" ry="2.18"/><text class="cls-8" transform="translate(98.54 214.85)">lose the</text><text class="cls-9" transform="translate(97.33 244.73)">SNO<tspan class="cls-10" x="44.53" y="0">O</tspan><tspan x="59.45" y="0">ZE</tspan></text><path class="cls-11" d="M104.55,360.94a35,35,0,1,1,69.9,0"/><rect class="cls-12" x="169.38" y="323.24" width="19.28" height="1.64" rx="0.7" ry="0.7" transform="translate(-176.71 221.5) rotate(-45)"/><rect class="cls-12" x="129.86" y="309.65" width="19.28" height="1.64" rx="0.7" ry="0.7" transform="translate(-170.97 449.97) rotate(-90)"/><rect class="cls-12" x="90.35" y="323.24" width="19.28" height="1.64" rx="0.7" ry="0.7" transform="translate(-58.46 623.9) rotate(-135)"/><text class="cls-13" transform="translate(124.42 356.33)">GO</text><rect class="cls-12" x="74.55" y="360.18" width="129.89" height="1.64" rx="0.7" ry="0.7"/><rect class="cls-14" x="150.61" y="365.68" width="46.25" height="1.64" rx="0.7" ry="0.7"/><rect class="cls-15" x="132.96" y="372.44" width="39.79" height="1.64" rx="0.7" ry="0.7"/><rect class="cls-15" x="80" y="365.99" width="19.28" height="1.64" rx="0.7" ry="0.7"/></g></g></g></svg>