<svg xmlns="http://www.w3.org/2000/svg" viewBox="0 0 158 169"><defs><style>.cls-1{fill:#f9fafb;}.cls-2{fill:#5995da;}</style></defs><title>bag2</title><g id="Layer_2" data-name="Layer 2"><g id="homepage"><rect class="cls-1" width="158" height="169" rx="12" ry="12"/><path d="M100.27,80.17C86,80.1,71.69,81.29,57.47,82.11c-.67,0-.68,1.09,0,1,14.22-.82,28.55-2,42.8-1.94a.53.53,0,0,0,0-1Z"/><path d="M100.27,81.22a.53.53,0,0,0,0-1,.53.53,0,0,0,0,1Z"/><path d="M104.64,81.22a.53.53,0,0,0,0-1,.53.53,0,0,0,0,1Z"/><path d="M51.78,82.33a15.5,15.5,0,0,1-12.37-8c-2.32-4.3-3.57-11.88-.93-16.49,2.83-4.93,12.77-4.49,17.74-4.6,6.27-.13,12.54-.13,18.8-.08,11.92.1,24.2-.14,36.06,1.16,9.05,1,10.25,9.49,9.51,17-.39,3.91.07,4.36-3,6.55-2.42,1.74-2.31,1.66-4.83,1.77-2.72.12-5.43.19-8.15.22a.53.53,0,0,0,0,1c4.16-.06,13.2,1.5,15.78-2.86,1.45-2.46,1.44-7.53,1.47-10.29a19.47,19.47,0,0,0-1.4-8.21c-2.83-6.35-8.68-6.27-14.8-6.57Q90.37,52.2,75,52.08c-8.94-.07-18.32-.69-27.19.6-5,.73-9.57,1.56-10.92,6.7-2.83,10.75,2.92,23.1,14.87,24,.67.05.67-1,0-1Z"/><path d="M63.95,52.82a28.48,28.48,0,0,0-.05-4.55c0-2.52,1.62-3.8,4.05-4.64,2.86-1,7.18-.51,10.2-.73s6-.53,9-.63c2.6-.09,5.79,2.17,7.17,4.41,1,1.66.72,4.63.85,6.52,0,.67,1.1.68,1,0-.23-3.39-.12-8.54-3.1-10.83-3.49-2.67-10.16-.88-14.06-.6-3.09.22-6.18.43-9.27.66-1.64.12-4.05,0-5.44,1.15-2.62,2.19-1.09,6.38-1.46,9.22-.09.67,1,.66,1,0Z"/><path d="M58.39,52.83c-.14-5.26-.14-11.73,6.39-12.56,4.52-.57,9.18-.4,13.73-.52,4.08-.11,8.33-.92,12.38-.83,7.2.17,9,8.4,9.59,13.89.07.66,1.12.67,1,0-.46-4.28-1.64-10.57-5.27-13.46-1.8-1.43-3.7-1.55-5.89-1.43-4,.21-7.89.67-11.86.78-5.2.14-12.83-1.07-17.65,1.42-4.28,2.21-3.63,8.7-3.52,12.71a.53.53,0,0,0,1.05,0Z"/><path d="M37.51,74.69c.26,12.34.72,24.78,0,37.11-.2,3.65-1.13,7.46.52,10.93,2.28,4.79,8.3,6.28,13.07,7,7.4,1.13,15.12.94,22.6,1.17,8.72.26,17.45.39,26.17.11,4.2-.13,8.39-.34,12.58-.7,1.81-.16,4.11-.08,5.57-1.38,2.17-1.93,1.74-5.25,1.71-7.85-.14-13.84-.16-27.68-.26-41.52a.53.53,0,0,0-1,0c.1,13.36.14,26.72.25,40.08,0,1.34.11,2.72,0,4.06-.3,6.29-7.37,5.7-12.06,6-9.35.54-18.73.53-28.1.31-9-.21-18.35,0-27.23-1.31-5.78-.88-12.05-2.63-13.06-9.33a26.23,26.23,0,0,1,.21-6c1-12.8.33-25.83.07-38.65a.53.53,0,0,0-1,0Z"/><path d="M51.57,78.69l-.42,11.09a.53.53,0,0,0,.53.53l5.46,0a.54.54,0,0,0,.52-.53c.18-3.53.57-7.8-.3-11.26-.55-2.16-4-1.6-5.73-1.77-.67-.07-.67,1,0,1,.94.09,2.58-.06,3.43.33,1.77.82,1.48,2.68,1.57,4.23a72.27,72.27,0,0,1,0,7.42l.52-.52-5.46,0,.52.52.42-11.09c0-.68-1-.67-1,0Z"/><path d="M99.8,78V83.5c0,1.11-.38,3.12,0,4.15.65,1.63,2.79.93,4.21.85a.54.54,0,0,0,.53-.53l.23-5.83c.05-1.41.63-4,.17-5.36-.62-1.79-3.47-1.34-5-1.48-.67-.06-.67,1,0,1,1,.09,3.29-.07,3.95.92.35.53-.11,2.72-.13,3.4L103.51,88l.52-.52c-.92,0-2.55.52-3.19-.28-.31-.39,0-2.3,0-2.75V78a.53.53,0,0,0-1,0Z"/><path d="M48,97.42l0,5.68a.53.53,0,0,0,.52.53l7.11.28a.53.53,0,0,0,.52-.53L56,99.24a4.1,4.1,0,0,0-.52-2.55c-.56-.64-1.5-.57-2.28-.6-1.48-.06-3-.06-4.44,0a.53.53,0,0,0,0,1c1,0,1.91,0,2.87,0s2.66-.24,3.2.56c.34.5.14,2,.17,2.63l.15,3.1.52-.52-7.11-.28.52.53,0-5.68a.53.53,0,0,0-1,0Z"/><path d="M67.62,98.47l0,5.79a.53.53,0,0,0,.39.51,27.32,27.32,0,0,0,3.9.69,7.9,7.9,0,0,0,3.09.06c1.56-.6.85-3.61.85-4.83,0-1.07.6-3.53-.79-4a13.54,13.54,0,0,0-3.5,0H67.1a.53.53,0,0,0,0,1h5.12c.37,0,2.35-.24,2.56,0s0,1.95,0,2.31v2.58c0,.86.28,1.7-.66,1.9-1.75.38-4.14-.35-5.84-.77l.39.51,0-5.79a.53.53,0,0,0-1.05,0Z"/><path d="M86,104.17V97.56l-.53.53a51.3,51.3,0,0,0,7.55.27l-.52-.52.19,3.48c0,.53.07,1.05.09,1.58,0,.88.2.71-.66.76-2.27.12-4.58,0-6.86,0a.53.53,0,0,0,0,1h5c.87,0,2.34.32,3.12-.14.62-.37.48-1,.46-1.66-.07-1.69-.18-3.38-.28-5.06A.53.53,0,0,0,93,97.3,51.3,51.3,0,0,1,85.47,97a.53.53,0,0,0-.52.52v6.62a.53.53,0,0,0,1,0Z"/><path d="M102.89,97.42v4.16c0,.66-.27,1.87.3,2.4s1.89.32,2.59.33a38,38,0,0,0,4.38-.24.54.54,0,0,0,.53-.52V97.7a.53.53,0,0,0-.53-.53l-6.75-.24c-.68,0-.67,1,0,1l6.75.24-.52-.52v5.84l.53-.53c-1,.11-2.06.19-3.09.23-.69,0-2.27.28-2.86-.06q-.54.06-.28-.56v-5.2a.53.53,0,0,0-1,0Z"/><path d="M111.73,118.27l.06-5.68a.54.54,0,0,0-.53-.53l-7.1-.38a.53.53,0,0,0-.52.53l.14,4.14a4.06,4.06,0,0,0,.49,2.56c.56.64,1.5.59,2.27.63,1.48.08,3,.1,4.44.08a.53.53,0,0,0,0-1c-1,0-1.91,0-2.87,0s-2.66.2-3.18-.61c-.33-.51-.11-2-.13-2.63l-.1-3.11-.53.52,7.1.38-.52-.52-.06,5.68a.53.53,0,0,0,1.05,0Z"/><path d="M92.11,116.94l.06-5.79a.53.53,0,0,0-.39-.51,27,27,0,0,0-3.54-.7c-.93-.12-2.53-.48-3.43-.14-1.52.56-.89,3.27-.9,4.5s-.72,3.71.66,4.3c.87.37,2.65.07,3.57.08l4.48.06a.53.53,0,0,0,0-1l-5.44-.07c-.39,0-2,.19-2.25-.06s0-2.23,0-2.61l0-2.58c0-1-.15-1.49.95-1.56a18.34,18.34,0,0,1,5.57.85l-.39-.51-.06,5.79a.53.53,0,0,0,1,0Z"/><path d="M73.83,111l-.1,6.61.52-.52a51.3,51.3,0,0,0-7.54-.38l.53.52-.14-3.48c0-.53-.06-1.06-.06-1.58,0-.88-.19-.71.68-.74,2.27-.08,4.58.06,6.86.1a.53.53,0,0,0,0-1l-5-.07c-.87,0-2.34-.36-3.12.1-.62.36-.49,1-.47,1.66,0,1.69.14,3.38.2,5.07a.53.53,0,0,0,.52.53,51.3,51.3,0,0,1,7.54.38.53.53,0,0,0,.53-.53l.1-6.61a.53.53,0,0,0-1,0Z"/><path d="M56.83,117.5l.07-4.16c0-.67.29-1.87-.28-2.4s-1.89-.35-2.59-.36a38,38,0,0,0-4.39.18.54.54,0,0,0-.52.53L49,117.12a.53.53,0,0,0,.53.52l6.75.33c.68,0,.67-1,0-1l-6.75-.33.52.53.08-5.84-.53.52c1-.1,2.06-.17,3.1-.18.69,0,2.28-.25,2.86.1q.53,0,.27.57v.52l0,1.56-.05,3.12a.53.53,0,0,0,1.05,0Z"/><path class="cls-2" d="M72.79,64.93A13.13,13.13,0,0,0,72.92,68a.53.53,0,0,0,.37.37c1.93.56,4.43.18,6.44.18h8A.53.53,0,0,0,88.3,68c0-1.05.39-3-.5-3.86-1.1-1-5-.94-6.48-1.05-2-.14-5.11-.52-7,.44-1.43.74-.93,2.07-.85,3.56,0,.56.9.75,1,.14A8.45,8.45,0,0,1,75.26,65h-.91a8.54,8.54,0,0,1,.87,2.75c.12.59,1,.44,1-.14V65.86a.53.53,0,0,0-.66-.51c-.76.15-.78.2-1.23.82l1,.13c-.5-1.68,4.88-.92,5.42-.87,1.89.17,3.64.23,5.23,1.38a.53.53,0,0,0,.79-.45l-.11-1-1,.14c.61,1.78-3,1-3.72,1-1.13-.06-4.27.11-5.05-.83l-.37.9a69.94,69.94,0,0,1,7.49.08.53.53,0,0,0,.14-1l-5-1.31a.53.53,0,0,0-.59.24l-.56,1,1,.13c-.32-1.15-.92-2.59-.6-3.74.23-.82,1.31-2.83,2.61-2.28.69.29.82.93.9,1.59q.71,1.06-.32,1.29-1.29,1-2.12-1.28l-.26,1c1.17,0,.88,3.41.67,4a29.44,29.44,0,0,1-1.37,3.35h.91L79,68.77c-.12-.67-1.12-.38-1,.28.22,1.41-.7,6.77,2.45,5.42a.51.51,0,0,0,.26-.45q0-2.53-.18-5.06l-1,.14A11.71,11.71,0,0,1,80.35,74l1-.14c-.77-3.23-.86-3.93,2.16-4.65,1.78-.42,3.53-.93,5.27-1.48.64-.2.37-1.22-.28-1A78,78,0,0,1,80,68.92a.53.53,0,0,0-.39.51,27.07,27.07,0,0,0,.71,4.75.53.53,0,0,0,1-.14,12.16,12.16,0,0,0-.93-5.22c-.2-.5-1.07-.5-1,.14s.08,1.35.1,2c0,.38.38,3-.16,1.48a23.08,23.08,0,0,1-.41-3.7L78,69a1.64,1.64,0,0,0,.47,1.12.53.53,0,0,0,.91,0c.94-2,4.39-9.07-.21-9a.53.53,0,0,0-.26,1c2.87,2,3.8-2.82.45-2A1.67,1.67,0,0,0,78,62.56c.79,1.8,3.38,1.33,4.88,1.12.3,0,.41-.4.37-.65L82.45,59a.53.53,0,0,0-.51-.39c-1.32.09-3.61-.34-4.4,1-1,1.63-.1,4.74.37,6.42a.53.53,0,0,0,1,.13c.64-1.16,4,.27,5,.53l.14-1a69.94,69.94,0,0,0-7.49-.08.53.53,0,0,0-.37.9c.76.91,1.83.8,3,.92a67.68,67.68,0,0,0,7.33.31.53.53,0,0,0,.52-.53,3.32,3.32,0,0,0-.31-1.88c-.18-.52-1.1-.48-1,.14l.11,1,.79-.45c-2-1.42-13.57-4-12.19.68a.53.53,0,0,0,1,.13l.61-.34-.66-.51v1.72l1-.14a13.15,13.15,0,0,0-1-3,.53.53,0,0,0-.91,0A13.25,13.25,0,0,0,73.53,67l1,.14c-.19-3.76,4.88-3.11,7.32-2.9.77.07,4.22,0,4.91.66a1.72,1.72,0,0,1-.16,2.63c-.48.28-2.88,0-3.45,0H79.73a22.78,22.78,0,0,1-3.45,0c-2-.32-2.44-.55-2.45-2.57a.53.53,0,0,0-1,0Z"/><path class="cls-2" d="M87.12,65.8a.77.77,0,0,1,1.11.83c-.06.67,1,.67,1,0a1.81,1.81,0,0,0-2.44-1.84c-.63.24-.36,1.25.28,1Z"/><path class="cls-2" d="M80.35,59.92a24.48,24.48,0,0,0,.58,5.15c.15.66,1.16.38,1-.28a23.12,23.12,0,0,1-.54-4.87.53.53,0,0,0-1,0Z"/><path d="M77.81,63.27a41.35,41.35,0,0,0-5.51,0,.35.35,0,0,0-.35.35l.11,5.28a.35.35,0,0,0,.35.35,17.74,17.74,0,0,1,3.35-.16c1.73.21,1.47.17,1.46,1.8,0,1.37-.46,2.69,0,4a.35.35,0,0,0,.24.24,23.31,23.31,0,0,0,5.14-.08.35.35,0,0,0,.35-.35c0-1-.61-3.5-.22-4.36.7-1.52,4.6-1.44,6-1.73a.35.35,0,0,0,.24-.43c-.34-1.85-.14-3.81-1.73-4.83-.88-.56-2.42-.13-3.27-.72-1.35-.93-1-3.2-1.18-4.64,0-.17-.14-.37-.35-.35a47.94,47.94,0,0,1-5.08.29.35.35,0,0,0-.33.25c-.14.77-1.56,6.31.85,5.7a.35.35,0,0,0-.18-.67c-.64.16-.44-1.75-.44-1.92.08-1.63.39-2.28,2-2.71,3.22-.86,3.1,1.75,3.2,4.13a.35.35,0,0,0,.25.33c2.08.45,5.47.56,5.23,3.43-.21,2.49-3.77,2.24-5.86,2.54-.2,0-.27.26-.24.43.34,2.1,1.3,4.9-1.57,5-3.37.08-2.53-3.22-2-5.55a.35.35,0,0,0-.33-.44c-.93-.05-3.74.41-4.46,0-.92-.54-1.31-2.68-.85-3.52.86-1.56,3.53-1.18,5.14-1C78.26,64,78.25,63.32,77.81,63.27Z"/></g></g></svg>