<svg xmlns="http://www.w3.org/2000/svg" viewBox="0 0 158 169"><defs><style>.cls-1{fill:#5995da;}.cls-2{fill:#f9fafb;}</style></defs><title>bluenewclock</title><g id="Layer_2" data-name="Layer 2"><g id="bp_cover" data-name="bp cover"><rect class="cls-1" width="158" height="169" rx="12" ry="12"/><path class="cls-2" d="M88.33,38.12,94.57,36,93.2,34.25l-3.06,4.38c-.66.94-1.62,2.12-1.09,3.34a1.92,1.92,0,0,0,2.61.85c1.67-.68,2.92-1.52,4.77-1.77,1.54-.21.89-2.55-.65-2.34a12,12,0,0,0-3.09.83c-.34.15-.68.3-1,.48a7.73,7.73,0,0,0-.69.41q.21,1.13.47.55c.25-.1.59-.86.77-1.13l1-1.46,2-2.92a1.23,1.23,0,0,0-1.37-1.78l-6.24,2.09c-1.47.49-.84,2.84.65,2.34Z"/><path class="cls-2" d="M97.36,33.3c.82-.37,3.58-2.1,4.44-1.78l-.73-.56c.34.52-1.68,3.53-2,4.09-.48.92-1.25,2-.69,3.07a1.84,1.84,0,0,0,2.19.8,45.42,45.42,0,0,0,4.72-1.61c1.47-.51.84-2.85-.65-2.34l-2.57.88c-.28.1-1.9.8-2,.76l.56.73c-.09-.23.62-1.28.78-1.58l1.23-2.37c.52-1,1.21-2.16.69-3.31-1.23-2.67-5.66.4-7.26,1.12-1.42.64-.19,2.74,1.23,2.1Z"/><path class="cls-2" d="M108.17,28.11a8.42,8.42,0,0,1,2.55-1.27c.4-.11,2.15-.6,2.49-.27l-.47-1.12c0,.07-1.33,1.06-1.49,1.21a11,11,0,0,0-1.35,1.52,4.65,4.65,0,0,0-1,3.35,2.27,2.27,0,0,0,2.33,1.84,55.74,55.74,0,0,0,6.19-.14c2-.06,2-3.23,0-3.18s-4.37.47-6.32.1l.95.73c-.39-.64,2.52-2.89,2.89-3.28.86-.9,1.45-2.16.54-3.27-2-2.38-6.93-.31-8.89,1-1.67,1.15-.09,3.91,1.6,2.74Z"/><path class="cls-2" d="M14.35,99.12c1.9,2,4.86,5.11,8.46,9,7.15,7.69,8.22,9.28,11,11.39,4.48,3.39,9.71,5.61,14.88,7.8,7.18,3,14.42,6.09,22.06,7.65A61,61,0,0,0,120,122.61c20.92-17,22-41.85,22.08-45.54"/><path d="M14.07,99.4C21.32,107,28,116.68,37.12,122.17c6.15,3.7,13.13,6.34,19.82,8.93a72.15,72.15,0,0,0,19.62,5.07c25.73,2.27,50.69-12.31,60.79-36.14a64,64,0,0,0,5.16-23,.4.4,0,0,0-.79,0c-.78,27.29-20.08,51.34-46.94,57.13-17.52,3.78-33-1.58-49-8.58-5.77-2.53-11.23-5.41-15.58-10C25,110.06,19.9,104.37,14.63,98.84c-.35-.37-.91.19-.56.56Z"/><path class="cls-2" d="M91.06,65.44c4.68,4.6,11.69,5.87,18.25,6.05s13.25-.47,19.6,1.19c5.11,1.34,10.89,4,15.24,1-.3,1.9-2,3.16-3.45,4.47-3.8,3.53-5.79,8.54-8.17,13.14a72.19,72.19,0,0,1-29.69,30.16c-1.91,1-4.08,2.22-4.6,4.33-.14.57-.18,1.24-.63,1.62-1.25,1.06-2.38-1.37-3.5-2.57-1.27-1.35-3.42-1.12-5.26-.89-15.45,1.94-30.72-3.8-45.24-9.43-4.49-1.74-9.06-3.53-12.82-6.55-2.82-2.27-5.18-5.23-8.49-6.7-4.1-1.82-9.76-1.53-11.88-5.48,4.31-.76,6.9-5,9.25-8.73A80.44,80.44,0,0,1,59.2,55.21"/><path d="M90.78,65.72c6.16,5.51,14.19,6.19,22.12,6.21,5.94,0,11.68,0,17.46,1.57a62.88,62.88,0,0,0,6.36,1.71c1.57.26,3.32-.21,4.78.07-10.29-1.94,1.74-.19,1.51-.48.55.7-2,2.48-2.59,3.11a36,36,0,0,0-3.47,4.25c-2.72,4.17-4.52,8.87-7.1,13.13a72,72,0,0,1-21.75,22.6c-2.84,1.88-7.1,3.26-9.25,6-1.2,1.53-.55,3-3.73,1.62-.73-.31-1.12-1.37-2-1.75-3.26-1.39-8.19.28-11.67.21a74.4,74.4,0,0,1-19.08-3.22c-5.14-1.48-10.16-3.32-15.15-5.22-5.59-2.14-11.39-4.11-16.13-7.86-2.88-2.27-5.27-5.22-8.67-6.75a42.44,42.44,0,0,0-5.46-1.61,13.08,13.08,0,0,1-2.86-1,3,3,0,0,1-2.32-2.47l.67-.3c.33-.7,3.47-2.58,4.05-3.25a38.62,38.62,0,0,0,3.17-4.48A84.28,84.28,0,0,1,30.18,74.54a81.34,81.34,0,0,1,29.12-19c.47-.18.27-.94-.21-.76A82.5,82.5,0,0,0,33,70.72a80.45,80.45,0,0,0-10.1,11c-3.59,4.74-6.37,12-12.6,13.69a.4.4,0,0,0-.24.58c3.45,5.09,11.15,4.32,15.78,8.1,2.49,2,4.61,4.34,7.34,6.07a59.61,59.61,0,0,0,10.3,4.75c8.16,3.19,16.41,6.33,25,8.2a66.57,66.57,0,0,0,12.95,1.62c1.85,0,3.7,0,5.55-.18,4-.32,3.59-.74,8.19,2.3,1.3.86,1.05,1.31,2.53.94.34-.08.57-.82.67-.92A30.49,30.49,0,0,1,99.8,124a16.28,16.28,0,0,1,3.23-2.13c6-3.65,11.62-7.38,16.63-12.35a73.09,73.09,0,0,0,13.21-18c1.69-3.22,3.09-6.63,5.18-9.62s5.29-4.71,6.49-8.09c.12-.34-.3-.6-.58-.45-5,2.76-9.94.15-14.94-1.08a49.71,49.71,0,0,0-11.62-1.18c-9.09-.06-18.79.54-26.06-6-.38-.34-.94.22-.56.56Z"/><path class="cls-2" d="M54,93.74c.83,4.43,2.5,9.67,6.06,12.66"/><path d="M53.62,93.84c.92,4.72,2.49,9.53,6.16,12.84.38.34.94-.22.56-.56-3.58-3.21-5.07-7.9-6-12.49-.1-.5-.86-.29-.76.21Z"/><path class="cls-2" d="M70.12,66.7c-1.69.69-13.43,5.71-16.11,17.25a21.49,21.49,0,0,0-.22,8.48"/><path d="M70,66.31C59.25,70.8,51.77,80.52,53.41,92.53c.07.5.83.29.76-.21-1.58-11.54,5.76-21,16.06-25.24.46-.19.26-1-.21-.76Z"/><path class="cls-2" d="M64.88,102.19c-1.82-3.78-3.59-7.65-4.29-11.79s-.2-8.64,2.2-12.08c2-2.92,5.25-4.82,8.54-6.2a18,18,0,0,1,9-1.72,17.29,17.29,0,0,1,5.25,1.68c3.15,1.5,8.24,3.92,11.23,9.58a20.12,20.12,0,0,1,1.82,12.92"/><path d="M65.22,102c-2.81-5.91-5.8-12.65-4-19.32,2-7.45,11.64-12.69,19-11.74,11.43,1.47,19.9,12.09,18,23.55-.08.5.68.71.76.21a20.1,20.1,0,0,0-4-16.43C91.09,73.59,83.78,69.49,77.59,70c-6.46.55-14.12,4.6-16.6,10.86-2.87,7.27.42,14.94,3.54,21.51.22.46.9.06.68-.4Z"/><path class="cls-2" d="M100.27,81.44a30.87,30.87,0,0,1,1,13.14"/><path d="M99.89,81.55a32.44,32.44,0,0,1,1,13c-.05.51.74.5.79,0a32.9,32.9,0,0,0-1-13.25c-.15-.48-.91-.28-.76.21Z"/><path class="cls-2" d="M70.12,66.7c9-.64,19.29.08,25.39,7.59"/><path d="M70.12,67.09c9.11-.57,18.71.19,25.11,7.48.34.38.89-.18.56-.56-6.54-7.44-16.33-8.3-25.67-7.71-.51,0-.51.82,0,.79Z"/><path class="cls-2" d="M97.78,72.82a1.52,1.52,0,0,0-2.35-.27,2.46,2.46,0,0,0-.4,2.59,6.92,6.92,0,0,0,1.62,2.23c2.24,2.33,4.66,4.69,5.66,7.77a13,13,0,0,0,1.31,3.61c.74,1.05,2.36,1.66,3.32.8a3.48,3.48,0,0,0,.83-2.23c.49-3.66,1.6-7.64-.22-10.85-2.1-3.7-7.18-4.53-11.34-3.63"/><path d="M98.06,72.54a2,2,0,0,0-2.95-.23c-1.43,1.34-.34,3.46.62,4.66,1.1,1.37,2.47,2.51,3.58,3.87a19,19,0,0,1,3.13,6.28c.55,1.55,1.53,3.37,3.48,3.2s2.06-1.91,2.3-3.44c.48-3.08,1.3-6.49.16-9.53-1.87-4.95-7.73-5.73-12.29-4.89-.5.09-.29.85.21.76,3.31-.61,7.37-.45,9.89,2.12,1.66,1.7,2,4.12,1.94,6.39,0,1.35,0,4.75-.81,5.9-.47.71-3.76-.42-4.23-1.19a12.54,12.54,0,0,1-.59-1.9,13.35,13.35,0,0,0-1.57-2.9,25.75,25.75,0,0,0-2.13-2.58c-.49-.53-1-1-1.5-1.58a11,11,0,0,1-.94-1.06q-1.82-1.51,1.14-3.33c.34.38.9-.18.56-.56Z"/><path class="cls-2" d="M78.55,58.27a16.11,16.11,0,0,0-8.84,5.62A1.33,1.33,0,0,0,69.34,65c.13.56.78.81,1.34.92,4.15.87,8.54-.07,12.67.89,2,.47,4,1.4,6,1.5a1.45,1.45,0,0,0,1-.25,1.58,1.58,0,0,0,.3-1.33c-.61-5.72-3.93-7.85-3.93-7.85C84.11,57.18,81.25,57.74,78.55,58.27Z"/><path d="M78.45,57.88c-2.69.58-9.33,3.44-9.5,6.69-.07,1.41,1.27,1.66,2.41,1.89a30.85,30.85,0,0,0,5.66.3,36.71,36.71,0,0,1,9.23,1.36c1.65.43,4,1.38,4.85-.51.68-1.43-.64-4.32-1.3-5.62-2.36-4.65-6.55-5-11.35-4.1-.5.09-.29.86.21.76,4.16-.78,8.08-.53,10.23,3.34,1.31,2.35,1.75,5.37-1.68,5.58-1.61.1-3.76-1.15-5.42-1.38a59.24,59.24,0,0,0-6.36-.2c-.91,0-4.18.21-4.64-.39-.78-1,.33-2.56.92-3.28,1.53-1.88,4.61-3.15,7-3.65C79.15,58.54,78.94,57.78,78.45,57.88Z"/><path class="cls-1" d="M81.43,88.3c-1.2-3.93-4-7.08-5.78-10.78-.83-1.74-3.41-.22-2.59,1.51a34.39,34.39,0,0,0,2.81,5.06,17.47,17.47,0,0,1,2.67,5c.56,1.84,3.46,1.06,2.89-.8Z"/><path class="cls-1" d="M80.78,91A50.68,50.68,0,0,1,88,91c1.93.15,1.92-2.86,0-3a50.68,50.68,0,0,0-7.24,0c-1.92.13-1.93,3.13,0,3Z"/><path d="M81.55,57.87c-.13-.81-.35-2,.27-2.68.33-.37,1.15-.58,1.52-.15s.05,1.19.11,1.67a.86.86,0,0,0,.84.84c.51,0,.5-.74,0-.79-.14,0,0-.9,0-1a2,2,0,0,0-.14-1A1.59,1.59,0,0,0,82.5,54c-2,.21-2,2.53-1.71,4,.08.5.84.29.76-.21Z"/><path d="M109,77.19c.22-.63,1.34-1.66,2-.91.28.32.16,1.36-.41,1.24s-.71.66-.21.76c1.3.26,2-1.44,1.3-2.41a1.63,1.63,0,0,0-1.82-.51A2.57,2.57,0,0,0,108.2,77c-.17.48.59.69.76.21Z"/><path d="M88.24,60.73a9.71,9.71,0,0,0,5.77-2,8.4,8.4,0,0,0,1.64-1.68,3.69,3.69,0,0,1,3.7.71,17.83,17.83,0,0,1,4.48,3.73c2.72,3.5-.86,5.4-.47,8.75.26,2.24,1.91,4.11,3.3,5.76.33.39.89-.17.56-.56-2.42-2.86-3.11-5.56-1.82-9.24a5.93,5.93,0,0,0,.72-2.2c0-2.22-2.66-4-4.14-5.23s-3.84-3.54-5.75-3.19c-.45.08-.63.47-1,.67-.6.35-1.27,1.4-1.84,1.83a8.75,8.75,0,0,1-5.2,1.82c-.51,0-.51.82,0,.79Z"/><path d="M78.47,89.32c-.58.36-1.22,1-.85,1.75a1.72,1.72,0,0,0,2,.78,1.6,1.6,0,0,0,.63-1.95c-.28-.93-1-1.05-1.8-.59a.4.4,0,0,0,.4.68c.15-.09.37-.26.52-.15s.15.35.17.47c0,.29,0,.74-.32.83s-.87-.17-.93-.47.36-.55.56-.68C79.3,89.74,78.9,89.05,78.47,89.32Z"/><path d="M79.41,88.53a26.08,26.08,0,0,0-3.89-12.29l-.54.54L76,77.4a.4.4,0,0,0,.58-.45c-.28-1.68-.88-3.09-2.78-2.73a.4.4,0,0,0-.28.49c.25.95-.9,1.79-.62,2.81.09.34.54.38.72.59A20.63,20.63,0,0,1,75.58,80a19,19,0,0,1,1.22,3.18l2.44,6.36c.18.47.95.27.76-.21L77.56,83c-.52-1.35-1-3.86-2-5,.11.12-1.51-1.11-1.32-.78a2.37,2.37,0,0,1,.09-1.71,1,1,0,0,0,.12-.39q-.21-1.42,1.37,2l.58-.45-1.06-.62a.4.4,0,0,0-.54.54,25.2,25.2,0,0,1,3.78,11.89c0,.51.82.51.79,0Z"/><path d="M81.07,90.35a34.23,34.23,0,0,1,9.61.19.4.4,0,0,0,.38-.66l-1-1.2-.38.66q.49,2.31-1,1.46-.75-.23-1.52-.41c-.81-.19-1.63-.35-2.46-.47a29.44,29.44,0,0,0-4.9-.27.4.4,0,0,0,0,.79,28.2,28.2,0,0,1,6.33.53c1.22.25,3.26,1.46,4.44.86,1.66-.85.78-2.92-.71-3.25a.4.4,0,0,0-.38.66l1,1.2.38-.66a35,35,0,0,0-9.82-.21c-.5.06-.51.85,0,.79Z"/><path class="cls-2" d="M57.26,91.63a20,20,0,0,1-9.65.89c-.53.31-.36,1.21.17,1.54a2.75,2.75,0,0,0,1.81.18l8.49-1.08"/><path d="M57.16,91.25a20.9,20.9,0,0,1-8.75,1c-.88-.09-1.66,0-1.5,1.17.19,1.32,1.67,1.33,2.67,1.25,2.83-.22,5.67-.72,8.49-1.08.5-.06.5-.85,0-.79l-5.4.69c-.71.09-4.89,1-4.37-.44,0,.07,4.16.06,4.56,0a22,22,0,0,0,4.5-1c.48-.16.28-.92-.21-.76Z"/><path d="M48.46,95.68c0,4.74,2.91,13.13,8.86,13.25,2.33,0,3.38-1.77,4.9-3.2,4.21-3.94,10-5.8,15.29-7.69a46.66,46.66,0,0,1,16.23-2.76c3.63,0,7.42.12,10.82-1.38,4.77-2.1,7.72-7.33,4.69-12.09-.27-.43-1,0-.68.4,3.07,4.82-.83,9.94-5.62,11.44-3.25,1-6.7.84-10.05.82a46.4,46.4,0,0,0-16.44,3.1c-4.39,1.58-9.26,3.17-13,6-2.85,2.18-5.07,5.93-9.34,2.93-3.4-2.39-4.82-6.92-4.85-10.87a.4.4,0,0,0-.79,0Z"/><path class="cls-2" d="M60,56.4l2.35-4.57A1.44,1.44,0,0,1,63,51.1c.6-.27,1.24.42,1.32,1.07s-.16,1.32-.1,2c.14,1.6,1.85,2.52,3.35,3.08a61.14,61.14,0,0,0,7.23,2.23"/><path d="M60.36,56.6l1.41-2.74c.56-1.09,1.21-2.72,2.09-.69.51,1.17-.16,1.82.94,2.92,2.3,2.32,6.87,3,9.88,3.75a.4.4,0,0,0,.21-.76c-2.64-.66-6.42-1.24-8.64-2.88-5.19-3.82-.5-2-1.57-4.13-.27-.53-.21-.94-.83-1.23-2.17-1-3.55,4.15-4.17,5.36-.23.45.45.85.68.4Z"/><path d="M80.21,50a1.29,1.29,0,0,0,1.68-1.14c0-.51-.75-.5-.79,0a.49.49,0,0,1-.68.38c-.48-.17-.69.59-.21.76Z"/><path d="M84.08,47a1.13,1.13,0,0,0,1.65.6,1.11,1.11,0,0,0,0-1.75c-.4-.31-1,.25-.56.56s-.18.83-.36.38-1-.26-.76.21Z"/><path d="M88.77,43.08a1.14,1.14,0,0,0-.13,1.44.42.42,0,0,0,.45.18,1.33,1.33,0,0,0,1.11-1.36.4.4,0,0,0-.79,0,.56.56,0,0,1-.53.6l.45.18a.35.35,0,0,1,0-.48c.34-.38-.22-.94-.56-.56Z"/><path d="M88.37,36.84c.86-.51,1.73-1,2.62-1.45q.8-.4,1.63-.76c.95-.42,1.36-.55,1.13.7a16.6,16.6,0,0,1-1.43,3.19L90.74,42a.4.4,0,0,0,.45.58,17.79,17.79,0,0,0,5.94-2.93c.42-.28,0-1-.4-.68A17.2,17.2,0,0,1,91,41.86l.45.58L94,36.69c.28-.62,1.39-2.19.92-3s-1.49-.29-2.1,0A34.93,34.93,0,0,0,88,36.16a.4.4,0,0,0,.4.68Z"/><path d="M97.65,31.74a11.21,11.21,0,0,1,2.91-2.14,5,5,0,0,1,1.94-.72c1.18.08.67.85.52,1.54a18,18,0,0,1-1.67,3.43A27.7,27.7,0,0,0,100,36.69c-1.29,3.68,4.69.34,5.8-.11.47-.19.26-1-.21-.76L102,37.23l-1,.39L101,36.3a11.81,11.81,0,0,1,1-2.06l1.84-3.77c.25-.5.87-1.35.65-2-.87-2.44-6.52,1.8-7.42,2.69a.4.4,0,0,0,.56.56Z"/><path d="M107.61,27a11.63,11.63,0,0,1,8.57-2.9l-.28-.67a20.5,20.5,0,0,0-5.72,7.15.4.4,0,0,0,.24.58,7.42,7.42,0,0,0,5.62-.83.4.4,0,0,0-.4-.68,6.55,6.55,0,0,1-5,.75l.24.58a20,20,0,0,1,5.6-7c.29-.23,0-.66-.28-.67A12.46,12.46,0,0,0,107,26.47c-.38.34.18.89.56.56Z"/></g></g></svg>