<svg xmlns="http://www.w3.org/2000/svg" viewBox="0 0 159.04 169.96"><defs><style>.cls-1{fill:#5995da;}.cls-2{fill:#f9fafb;}</style></defs><title>bluelight</title><g id="Layer_2" data-name="Layer 2"><g id="homepage"><rect class="cls-1" x="0.52" y="0.48" width="158" height="169" rx="12" ry="12" transform="translate(-0.61 0.57) rotate(-0.41)"/><path class="cls-2" d="M72.3,125.68c-1.19,1-.62,3.16.69,4a7.83,7.83,0,0,0,4.58.85l16.23-.3c1.81,0,4.23-.66,4.18-2.47,0-1.44-1.71-2.19-3.11-2.54a47.37,47.37,0,0,0-22.14-.1"/><path d="M71.84,125.41c-2.56,4.17,2.51,5.62,5.73,5.69,4.2.09,8.43-.16,12.62-.23,1.9,0,5.41.43,7.13-1,2.18-1.76.85-3.8-1.23-4.81-6.6-3.2-16.7-1.91-23.5-.44-.67.14-.38,1.16.28,1a50.71,50.71,0,0,1,10.94-1.24,46.91,46.91,0,0,1,7.28.6c2.4.39,3.88-.25,3.18,2.73-.65,2.77-1.44,2-4.07,2.05l-4.51.08-4.51.08c-1.66,0-11.15.41-8.42-4,.36-.58-.56-1.11-.91-.53Z"/><path class="cls-2" d="M75.1,130.89a1.72,1.72,0,0,0,.09,2.47,4.75,4.75,0,0,0,2.55,1.05,64.67,64.67,0,0,0,15.85,1,8.21,8.21,0,0,0-.68-4"/><path d="M74.64,130.62C70.81,137,91.08,136.08,93.58,136a.54.54,0,0,0,.53-.53,10.48,10.48,0,0,0-.7-4.18c-.24-.63-1.26-.36-1,.28.92,2.47,1.09,3.1-1.46,3.47a24.33,24.33,0,0,1-4.64-.09c-1-.06-12.67-.54-10.73-3.76a.53.53,0,0,0-.91-.53Z"/><path class="cls-2" d="M79.13,135.21a8.54,8.54,0,0,0,3,4.13,4.54,4.54,0,0,0,3.47,1,2.4,2.4,0,0,0,2-2.68"/><path d="M78.62,135.35c.88,2.37,2.72,4.79,5.29,5.45,2.08.53,4.47-.77,4.21-3.13-.08-.67-1.13-.68-1.06,0,.36,3.21-3.53,2.15-4.95,1a8.35,8.35,0,0,1-2.47-3.57c-.24-.63-1.26-.36-1,.28Z"/><path class="cls-2" d="M72.79,124.08c1.5-6-1.49-12.3-5.47-17.84s-9-10.68-12.17-16.48A45.35,45.35,0,0,1,50.51,75c-.62-3.86-1-7.8.06-11.52,2.15-7.7,10.68-13.84,20.84-15S92.82,51.23,98.89,58c8.4,9.37,6.24,21.65,2,32s-10.19,20.8-8.22,31.84"/><path d="M73.3,124.22c2.77-14.65-12.85-24.54-18.5-36.31-3.68-7.67-6.71-19.61-2.4-27.5,4-7.23,12.62-11,20.54-11.52,8.25-.54,17.34,2,23.6,7.54,6.85,6.05,8.59,14.9,6.89,23.58C100.61,94.43,90,106.65,92.18,122c.1.67,1.11.39,1-.28-2.24-15.79,9.52-28.5,11.62-43.58,1.53-11-3.09-20.9-13-26.18C82.15,46.79,69.7,46.1,60,51.6c-10.16,5.78-11.73,15.29-9.59,26.06A45.55,45.55,0,0,0,59.5,97.12c5.91,7.67,14.8,16.18,12.78,26.82-.13.67.89,1,1,.28Z"/><path class="cls-2" d="M86.58,120.77a113.4,113.4,0,0,1-6.75-53.13c.19-1.68.57-3.59,2-4.42a3.65,3.65,0,0,1,4.21.83,8.24,8.24,0,0,1,2,4.1c1.18,5.17.6,10.57-.24,15.81-.69,4.32-1.86,9.09-5.54,11.44-4.54,2.91-11,.48-14.17-3.87a4.51,4.51,0,0,0,4.19-3.9"/><path d="M87.09,120.63a116,116,0,0,1-6.75-27.81,113.38,113.38,0,0,1-.68-14.39q0-2.7.22-5.4.12-1.8.29-3.59-.72-5.71,6.36-3.9c2.88,3.06,1.7,11,1.23,14.92C87.21,85.25,86.55,92.09,82,95a8.73,8.73,0,0,1-7.18.73c-1.06-.32-5.88-2.3-5.37-3.86-.19.57,2.43-1.79,2.24-1.56a5.12,5.12,0,0,0,1.11-2.48.53.53,0,0,0-1-.28L67.95,91a.54.54,0,0,0-.23.88c5.17,6.24,14.67,7.54,18.62-.64,2.05-4.25,2.58-9.71,2.83-14.36.21-3.83.45-10.47-2.81-13.32C78,56.34,78.6,77.5,78.6,80.23a116,116,0,0,0,7.48,40.68c.24.63,1.26.36,1-.28Z"/><path class="cls-2" d="M73,28.36l-1.17,10c-.29,2.5,3.64,2.48,3.92,0l1.17-10c.29-2.5-3.64-2.48-3.92,0Z"/><path class="cls-2" d="M101.64,41.5l1.15-9.89c.29-2.5-3.64-2.48-3.92,0L97.72,41.5c-.29,2.5,3.64,2.48,3.92,0Z"/><path class="cls-2" d="M44.32,35.77a36.56,36.56,0,0,1,8.15,7.09c1.65,1.92,4.41-.87,2.77-2.77a40.11,40.11,0,0,0-8.94-7.7c-2.14-1.36-4.11,2-2,3.39Z"/><path d="M54.89,43a19,19,0,0,1-6.36-4,18.57,18.57,0,0,1-2.36-2.76,8.71,8.71,0,0,1-.84-1.32l-.3-.55Q45,33,47.11,34c.22.64,1.25.36,1-.28-.78-2.21-2.94-1.28-4.22-.08a.54.54,0,0,0-.08.64A20.14,20.14,0,0,0,54.61,44c.64.25.91-.78.28-1Z"/><path d="M75.63,28.73a34.35,34.35,0,0,0-.2,10.79.53.53,0,0,0,.51.39l2.39-.09a.55.55,0,0,0,.53-.53,46.28,46.28,0,0,0,.31-8.13c0-.68-1.09-.68-1.06,0a46.28,46.28,0,0,1-.31,8.13l.53-.53c-1.18,0-1.72.29-2.06-1a11.86,11.86,0,0,1-.15-2.84A32.56,32.56,0,0,1,76.65,29c.12-.67-.9-1-1-.28Z"/><path d="M98.65,42.75l1-8.07c.13-1.1,0-2.76.45-3.77q-.26-2.4,2.74-.94,1.45,2.42-.08,4c-.41.54.5,1.07.91.53,2.42-3.15-.2-7-4-6.25a.54.54,0,0,0-.39.51l-1.68,14c-.08.67,1,.67,1.06,0Z"/><path d="M117.75,63.15c-1.48,3,3.86,4.48,5.92,4.36,3.8-.21,3.58-4.43,1.17-6.41s-6.65-1.47-7.65,1.93a3.73,3.73,0,0,0,5.08,4.42c.62-.27.09-1.18-.53-.91-2.42,1-4.43-1.8-3.23-3.9a3.73,3.73,0,0,1,5.78-.63c1.77,1.58,1.84,4.49-1,4.46-1.06,0-5.51-1-4.62-2.77.3-.61-.61-1.14-.91-.53Z"/><path d="M119.74,105.51c-1.69-.45-3.94-.73-5.41.49a3.17,3.17,0,0,0-1.05,1.56,7.46,7.46,0,0,0-.1,1.5c-.18,2.45-1.17,5.15-3.91,5.72-.63.13-.41,1,.14,1,3.71.39-1,5.92-.88,7.34s1.08,2,2.39,2a.53.53,0,0,0,0-1.06l-.11-3.2.67-.73c.16-.35.52-.61.68-1a3.12,3.12,0,0,0,.33-2.11,3.17,3.17,0,0,0-3.08-2.31l.14,1a5.76,5.76,0,0,0,4.28-3.12,9.28,9.28,0,0,0,.52-2.24q-.74-2.86,2.64-4.25a6.63,6.63,0,0,1,2.48.34.53.53,0,0,0,.28-1Z"/><path d="M124.38,110.65c3.64,0-.42,4.7-.84,5.44a7.81,7.81,0,0,0-.92,2.75c-.29,2,1.84,7-.44,8.06-.62.28-.08,1.2.53.91a2.87,2.87,0,0,0,1.8-2.85c0-1.14-.58-2.18-.76-3.28-.58-3.57.76-4.59,2.42-7.24,1.23-2,1.22-4.88-1.8-4.86a.53.53,0,0,0,0,1.06Z"/><path d="M39.68,101.63,33,104a.53.53,0,0,0-.23.88,12,12,0,0,0,5.39,2.82c.66.15.95-.87.28-1a10.89,10.89,0,0,1-4.93-2.55l-.23.88,6.68-2.4c.64-.23.36-1.25-.28-1Z"/><path d="M44.2,98.36,42.62,112c-.08.68,1,.67,1.06,0l1.58-13.6c.08-.68-1-.67-1.06,0Z"/><path d="M47.68,103.18a13.23,13.23,0,0,1,2.33.29c.37.08.74.18,1.1.29s.94.15,1,.72-.84,1.52-1.25,2l-1.42,1.84c-.41.53.33,1.29.75.75.8-1,1.62-2.07,2.41-3.12.46-.61,1-1.37.64-2.16s-1.22-.87-1.86-1.08a14.15,14.15,0,0,0-3.71-.62c-.68,0-.68,1,0,1.06Z"/></g></g></svg>