<svg xmlns="http://www.w3.org/2000/svg" viewBox="0 0 158 169"><defs><style>.cls-1{fill:#5995da;}.cls-2{fill:#f9fafb;}</style></defs><title>blueclock</title><g id="Layer_2" data-name="Layer 2"><g id="homepage"><rect class="cls-1" width="158" height="169" rx="12" ry="12"/><path class="cls-2" d="M66.87,58.26A25.9,25.9,0,0,0,55.1,67.14C48,76.24,48.34,86.89,49.23,97.63a25.58,25.58,0,0,0,1.93,8.67c1.89,4.08,5.48,7.14,9.33,9.47A45.4,45.4,0,0,0,98,119.92a21.8,21.8,0,0,0,8.09-4.45c3.29-3.09,5-7.61,5.41-12.1s-.18-9-.88-13.47c-2.12-13.53-4.87-21.21-12-26.73-6.46-5-14-5.56-19.71-6C75.25,56.9,71.42,56.65,66.87,58.26Z"/><path d="M66.74,57.8C54.5,62.61,48.57,74.54,48.31,87.24c-.15,7.29-.23,16.4,4.39,22.47,4,5.22,10.37,8.57,16.49,10.61,11.73,3.91,32.06,4.4,39.7-7.48,4.24-6.59,3.48-14.73,2.36-22.1-1-6.82-2.23-14-5.62-20.11C98.56,57.85,80,53.66,66.74,57.8c-.59.18-.34,1.11.26.93,15-4.66,34,1.35,39.75,16.67a75.19,75.19,0,0,1,4.44,24.12c.06,5.11-.93,10.55-4.38,14.53-3,3.51-7.65,5.21-12,6.32-15.3,3.9-41.29-.85-44.66-19.32C47.2,85,50.08,65.38,67,58.73,67.57,58.5,67.32,57.57,66.74,57.8Z"/><path class="cls-2" d="M69.73,61.83A20.69,20.69,0,0,0,61.4,69C55.07,77.41,55,86.93,54.8,94.59a24.27,24.27,0,0,0,.6,7c1.49,5.64,6.22,10,11.59,12.3s11.36,2.66,17.19,2.45c4.52-.16,9.2-.72,13.05-3.08,5.22-3.2,8.12-9.33,8.74-15.43s-.74-12.21-2.42-18.1-2.73-9-5.79-12.13c-4.17-4.25-9.27-5.33-13.24-6.17S75.24,59.42,69.73,61.83Z"/><path d="M69.49,61.41c-10.65,5.31-14.45,17.4-15,28.52-.29,5.68-.64,11.48,2.58,16.45,3,4.61,7.88,7.6,13.1,9.08,10.54,3,26.33,2.87,32.87-7.42s3.34-25.36-1.41-35.68c-5-10.8-21.44-15-32-11-.57.22-.33,1.15.26.93,6.19-2.35,12.85-1.27,19,.66,7.31,2.27,11.3,7.3,13.48,14.42,4.1,13.4,6.54,33.89-11.56,37.74-14.17,3-35.14-1-35.57-18.77C55,83.71,57.47,68.47,70,62.25,70.53,62,70,61.14,69.49,61.41Z"/><path class="cls-2" d="M106.57,47.22A36.53,36.53,0,0,0,84.23,31.88,34.53,34.53,0,0,0,58.16,37c-4.92,3.27-9.38,8.53-9.3,14.75m3-.61,0,0a18.72,18.72,0,0,1,7.21-9.67,29.08,29.08,0,0,1,21.58-5.24,34.65,34.65,0,0,1,19.82,10.88"/><path d="M107,47c-7.57-10.7-19.77-17.44-33.07-16.11C62.75,32,49,39.14,48.38,51.71c0,.62.94.62,1,0,.62-13.14,16.28-20,27.76-20.06,11.82-.08,22.34,6.32,29.05,15.8.36.5,1.19,0,.83-.49Z"/><path d="M51.86,51.58a.48.48,0,0,0,0-1,.48.48,0,0,0,0,1Z"/><path d="M52.33,51.22c3.36-9.86,14.41-15,24.3-14.88,9.15.13,17.27,4.62,23.51,11.07.43.45,1.11-.24.68-.68C93.64,39.31,83.9,34.51,73.39,35.52c-9.32.89-18.86,6.25-22,15.45-.2.59.73.84.93.26Z"/><path class="cls-2" d="M77.12,85.18l-4.57-19.1,7.15,17.1"/><path d="M77.59,85.05,73,66l-.93.26,7.15,17.1c.24.56,1.17.32.93-.26L73,66a.48.48,0,0,0-.93.26l4.57,19.1c.14.6,1.07.35.93-.26Z"/><path class="cls-2" d="M84.23,86.87a44.53,44.53,0,0,0,11.68-1.78c1-.29,2.26-.54,2.91.27a7.17,7.17,0,0,1-3.51,1.73l-11,3.07"/><path d="M84.23,87.35a49.59,49.59,0,0,0,6-.52c1.88-.29,6.74-2.19,8.33-1.06l-.1-.76c-1.85,1.65-4.84,2-7.15,2.68l-7.15,2a.48.48,0,0,0,.26.93L93.79,88c2-.55,3.83-.94,5.37-2.32a.49.49,0,0,0-.1-.76c-1.54-1.1-3.16-.32-4.85.11a46.25,46.25,0,0,1-10,1.34c-.62,0-.62,1,0,1Z"/><path class="cls-2" d="M78.64,85.31a3.48,3.48,0,0,0-1.75,1.85,4.74,4.74,0,0,0,1.53,5.67c1.79,1.25,4.42.1,5.59-1.75a3.55,3.55,0,0,0,.66-2.63,4.11,4.11,0,0,0-2.43-2.51C81.39,85.48,80,84.74,78.64,85.31Z"/><path d="M78.39,84.89c-4.68,2.38-1.69,10.83,3.55,8.53,2-.86,3.91-3.29,3.05-5.54s-4.32-3.7-6.49-3a.48.48,0,0,0,.26.93c1.72-.52,4.77.8,5.32,2.62s-1.15,3.68-2.77,4.25c-4.12,1.46-5.91-5.15-2.43-6.92C79.43,85.44,78.95,84.61,78.39,84.89Z"/><path class="cls-2" d="M55.48,114.66V121a1.46,1.46,0,0,0,.43,1.27,1.31,1.31,0,0,0,.89.13c2.74-.33,5-2.28,7-4.14"/><path d="M55,114.66c0,2.11-.15,4.28,0,6.38.07.93.28,1.75,1.33,1.89,2.88.38,5.9-2.56,7.81-4.3.46-.42-.22-1.1-.68-.68-1.56,1.42-3.59,3.51-5.79,3.82S56,119.86,56,118.49v-3.83a.48.48,0,0,0-1,0Z"/><path class="cls-2" d="M104.49,119.37a10.5,10.5,0,0,0,6,3.46c.38.07.86.08,1.07-.25a1,1,0,0,0,0-.88,71.48,71.48,0,0,0-2.69-6.66"/><path d="M104.15,119.71a11.34,11.34,0,0,0,3.84,2.84c.87.38,2.48,1.15,3.45.7,1.17-.54.44-2,.13-2.8-.7-1.91-1.49-3.79-2.34-5.64-.26-.56-1.09-.07-.83.49.57,1.23,1.1,2.47,1.6,3.74q.33.84.64,1.68c.26.72.87,1.46-.5,1.56a6.43,6.43,0,0,1-2.91-1.2,10.69,10.69,0,0,1-2.4-2c-.42-.46-1.1.22-.68.68Z"/><path class="cls-2" d="M18.76,44.6l2.34-.22a1.41,1.41,0,0,0,1.33-1.74C21.73,37.84,21.28,33,21,28.18l-1.38,1.38a64.47,64.47,0,0,0,10.82-1.68c1.26-.31,1.36-2.41,0-2.66a115,115,0,0,0-13.55-1.62,1.4,1.4,0,0,0-1.33,1.74c1.08,6,1.07,12.37,1.47,18.5.11,1.76,2.87,1.77,2.76,0-.41-6.37-.44-12.93-1.56-19.23l-1.33,1.74a108.79,108.79,0,0,1,12.81,1.52V25.22A60,60,0,0,1,19.65,26.8a1.4,1.4,0,0,0-1.38,1.38q.4,7.64,1.49,15.19l1.33-1.74-2.34.22C17,42,17,44.76,18.76,44.6Z"/><path class="cls-2" d="M126.38,139.75c-.09,1.65-.66,4,1.19,4.9a9.32,9.32,0,0,0,3.1.35l4.86.35c1.73.13,4.14.77,4.81-1.37a12.67,12.67,0,0,0,0-3.65l-.06-5.68c0-1.84.45-4.68-1.05-6.11a2.32,2.32,0,0,0-3.62.33c-.57.94-.2,2.48-.19,3.54l0,5a14.22,14.22,0,0,1,0,2.76q.08,1-.09.19t-1.15-.41a38,38,0,0,0-5.26-.25c-2-.09-2,3,0,3.07,2.25.11,4.6.41,6.84.33,1.11,0,2-.11,2.5-1.19.61-1.3.22-3.1.21-4.5l-.06-7.74-.76,1.32q-.84-.46-.55.36a14.5,14.5,0,0,1,0,1.62c0,1.14,0,2.27,0,3.41,0,1.9.47,4.42.06,6.25q.08,1.24-.2-.21l-1.08-.08a19,19,0,0,0-3.24-.24c-.62,0-2.94.12-3.24-.24-.45-.56-.17-1.45-.14-2.11.1-2-3-2-3.07,0Z"/><path d="M19.36,37.46l-.47-5.66-.25-3c-.1-1.23-.58-1.86,1-2.37,1.16-.37,3.91-.84,5-.35q2.51,2.31.35,2.19l-.79.1c-.83.11-1.66.25-2.48.39-.61.1-.35,1,.26.93q2.29-.39,4.59-.63a.51.51,0,0,0,.46-.35c1.65-4.61-6-3.71-8.24-3.14-1.39.36-1.32.95-1.22,2.36.23,3.19.53,6.39.8,9.58.05.61,1,.62,1,0Z"/><path d="M131.83,143.87l9.25.31a.49.49,0,0,0,.46-.61A42.81,42.81,0,0,1,140,135a3.44,3.44,0,0,0-1.81-3c-4.21-1.78-3,5.83-3,7.7l.48-.48-5.36-.09a.48.48,0,0,0,0,1l5.36.09a.49.49,0,0,0,.48-.48v-4.54c0-.69,0-2.15,1-2.4,1.73-.45,1.87,2.24,2,3.14a33,33,0,0,0,1.51,7.86l.46-.61-9.25-.31c-.62,0-.62.94,0,1Z"/><path class="cls-1" d="M61.13,50.51c1.16,1.59,2.17,2.51,4.17,2.6.66,0,.76-.47,1.36-.62a27.93,27.93,0,0,1,7-.49c7.45,0,14.73-1.69,22-3.06l-1.15-2.73-.71.41c-1.57.92-.43,3,1.15,2.73l2.57-.23-.4-2.93c-3.74,1.15-7.56.55-11.4.47a114.53,114.53,0,0,0-11.91.38c-6.74.57-12.9,2.53-19.64,3-1.91.13-1.92,3.12,0,3,7.36-.5,14.1-2.63,21.47-3.13C82.89,49.41,91,51.2,98,49.08c1.56-.48,1.34-3-.4-2.93a32.69,32.69,0,0,0-3.36.34l1.15,2.73.71-.41a1.5,1.5,0,0,0-1.15-2.73C88.81,47.22,82.64,48.72,76.41,49c-2.6.11-5.23-.19-7.83,0-1.54.11-3.87,1.4-4.87,0C62.59,47.46,60,49,61.13,50.51Z"/><path class="cls-2" d="M96.47,55.71a2.73,2.73,0,0,1-3.23-2.38,4.34,4.34,0,0,1,2-3.87,11.39,11.39,0,0,1,4.25-1.59,19.39,19.39,0,0,1,7.23-.5,8.07,8.07,0,0,1,5.89,3.84c1,1.89,1,4.15.87,6.29a7.49,7.49,0,0,1-.28,2.12c-.75,2.23-3.5,3.26-5.81,2.85s-4.28-1.89-6.13-3.34-3.77-3-6.06-3.49"/><path d="M96.47,55.23q-2.06-6,2-6.63.91-.23,1.83-.4a16.52,16.52,0,0,1,6.19-.29,7.36,7.36,0,0,1,6.49,7c.17,2.11.06,5.18-1.93,6.48-5,3.31-11.08-4.8-15.76-6.22-.6-.18-.85.75-.26.93,5.07,1.54,10.08,9.22,16,6.33,4.4-2.13,3.7-9.92.75-13C108,45.47,99.21,46,95,49c-2.91,2.13-3,7.51,1.49,7.15.61,0,.62-1,0-1Z"/><path class="cls-2" d="M60.27,54.62c-.91-2.23-4.21-2.66-9.41-3.33a6.45,6.45,0,0,0-3.85.32,6.5,6.5,0,0,0-2.51,2.6A28.7,28.7,0,0,0,41,62.27c-.57,2.24-.7,5,1.11,6.46a5.74,5.74,0,0,0,3.54,1,5,5,0,0,0,3.37-.89,8.28,8.28,0,0,0,1.73-3A15,15,0,0,1,58,59.1a4,4,0,0,0,2.14-1.51A3.52,3.52,0,0,0,60.27,54.62Z"/><path d="M60.68,54.38c-.88-1.65-2.48-2.26-4.22-2.69-2.44-.61-6.2-1.52-8.7-.85-4.81,1.29-8,10.51-7.53,15s7.18,6.1,9.9,2.45c1.25-1.68,1.53-3.45,3-5.09,1.7-1.84,3.76-2.67,5.78-4,1.83-1.18,2.29-2.56,1.78-4.7-.14-.6-1.07-.35-.93.26.29,1.2-1.27,3.3-2.08,3.93-.62.49-1.52.76-2.19,1.2A16.11,16.11,0,0,0,52.09,63c-.81,1-1.24,2.12-2,3.12a2.67,2.67,0,0,1-2.34,1.84q-2.44,2.88-4.38-.65c-2.51-2.16-2.61-1.89-1.91-4.85.92-3.89,3.5-10.86,8.27-10.75,2.68.06,8.59.42,10.07,3.21C60.14,55.41,61,54.92,60.68,54.38Z"/></g></g></svg>