<svg xmlns="http://www.w3.org/2000/svg" viewBox="0 0 158 169"><defs><style>.cls-1{fill:#fff;}.cls-2{fill:#5d94cf;}.cls-3{fill:#f9fafb;}.cls-4{fill:#5995da;}</style></defs><title>bluebooks</title><g id="Layer_2" data-name="Layer 2"><g id="homepage"><path class="cls-1" d="M64.41,141.22l6-2.91c1.54-.75.19-3-1.34-2.3l-6,2.91c-1.54.75-.19,3,1.34,2.3Z"/><rect class="cls-2" width="158" height="169" rx="12" ry="12"/><path class="cls-3" d="M40.2,105.36c-3.81-1.69-8.08,1.72-11.74,2.78a1.51,1.51,0,0,0-.66,2.51c6.39,5.72,15.33,9.92,23.14,13.35s18,3.05,24,9.83a1.51,1.51,0,0,0,2.56-1.06,32.3,32.3,0,0,0-1.64-7.59c-.28-.81-1.38-1.53-2.2-.9a4.91,4.91,0,0,0-2.11,5.39c.25,1.37,2.08,1.33,2.74.36,3.51-5.18-10.09-6.21-12.46-6.8-10.28-2.55-19.73-8.2-28.55-14v2.59l3.45-1.61-2.2-1.69c-.36.88-.82,1.48-.19,2.47s3.79.82,4,1.89l1.85-1.85-2.2-1.65-2.12,2.12c4.58,4.43,10.4,6.55,15.79,9.75,2.34,1.38,4.37,2.8,7,3.43,3.92.91,8,.29,11.38,3.11,1.2,1,3.42-.33,2.36-1.82-3.28-4.56-9.69-5.84-14.86-7-3.53-.8-5.53-3-8.47-4.82-3.52-2.13-8.14-3-11-6l-.66,2.51c6.38-1.55,13.43,6.86,18.76,9.32s11.31,2.68,16.33,5.9a1.51,1.51,0,0,0,2.26-1.3c.15-3.17.67-6.53-2.85-7.71a1.51,1.51,0,0,0-1.85,1,11.18,11.18,0,0,0-.25,4.23l2.8-.76c-1-1.35-1.69-2.57-3.19-3.27-.37-.17-9.76-.85-5.91,0A29.73,29.73,0,0,1,59,116.34a55.05,55.05,0,0,1-10.05-5.12c-1.45-1-2.85-2-4.23-3-2.89-2.2-2.88-3.52-3.12-6.78l-2.8.76A50.36,50.36,0,0,0,51,114.49c4.4,3,11.1,7.93,16.76,7.51a1.51,1.51,0,0,0,.76-2.8c-4.17-3.09-9.07-4.91-13.29-7.91-1.88-1.34-3.61-2.88-5.47-4.26s-4.86-2.42-6.23-4.38l-1.69,2.2c6.3,2.27,12.09,6.64,17.9,9.91,3.62,2,7.71,5.19,12,4.56,1.9-.28,1.09-3.17-.8-2.89-2.62.38-6-2.19-8.13-3.37-2.4-1.31-4.75-2.69-7.11-4.07-4.24-2.48-8.46-5.35-13.1-7a1.51,1.51,0,0,0-1.69,2.2c1.16,1.67,2.35,2.28,4.13,3.32a69.06,69.06,0,0,1,6.79,5c4.74,3.63,10.35,5.75,15.14,9.29l.76-2.8c-4.87.36-11.35-4.38-15.24-7.1a45.89,45.89,0,0,1-11.16-11.26c-.79-1.07-2.92-.89-2.8.76.23,3.12-.35,4.81,1.88,7.24,2.4,2.62,6.15,4.77,9.17,6.56a66.23,66.23,0,0,0,10.1,4.64,19.93,19.93,0,0,0,5.07,1.55c2.1.21,3.86-.48,5.32,1.51.76,1,3,.89,2.8-.76A6.58,6.58,0,0,1,73,118.7l-1.85,1c1.21.41.68,4,.64,4.82l2.26-1.3c-6.45-4.13-14.33-4.2-20.79-8.49-4.67-3.1-10.49-8.52-16.62-7a1.51,1.51,0,0,0-.66,2.51c2,2.11,4.64,3.08,7.24,4.33,3.38,1.61,5.79,3.88,8.91,5.77,5.29,3.21,13.74,1.59,17.74,7.17l2.36-1.82c-4.83-4.09-11.14-2.46-16.45-5.41-5.91-3.29-12.87-6.14-17.76-10.87-1.41-1.36-3.36.67-2.12,2.12A7.89,7.89,0,0,0,39.45,114c1.13.44,2.08-.84,1.85-1.85-.34-1.5-1-3.06-2.83-3.19-2-.15-1.72,2.14-1,.43.55-1.35-1.17-2.17-2.2-1.69l-3.45,1.61a1.51,1.51,0,0,0,0,2.59,143.65,143.65,0,0,0,20.45,11.46,55.06,55.06,0,0,0,8.82,2.8c1.16.29,10.24,3,10.66,2.39l2.74.36.73-2L73,126a27.79,27.79,0,0,1,1.53,6.8l2.56-1.06c-2.54-2.85-5.53-3.79-8.79-5.54-3.6-1.93-7.18-1.95-11.08-3-5.12-1.43-9.82-4.18-14.47-6.68-4.43-2.38-9.05-4.55-12.82-7.93L29.26,111c1.71-.5,8.11-3.67,9.43-3.09,1.75.78,3.28-1.81,1.51-2.59Z"/><path class="cls-3" d="M76.43,127.89c8.41-1.48,15.8-7.56,23-11.74q5.84-3.37,11.71-6.69c4.09-2.31,8.36-3.73,12.61-5.61l-1.51-2.59a52.4,52.4,0,0,0-7.15,4.56,73.78,73.78,0,0,1-7.42,4.74c-4.33,2.58-8.81,4.88-13,7.75-2.19,1.5-4.35,3.06-6.65,4.4a36.13,36.13,0,0,1-5.47,2.67c-1.46.55-3.44.66-4.76,1.39-2.2,1.23-2.47,3.28-1.61,5.69a1.52,1.52,0,0,0,2.2.9,50.1,50.1,0,0,1,10.46-5.65c1.78-.7,1-3.6-.8-2.89a53.5,53.5,0,0,0-11.18,6l2.2.9c-.77-2.15-.4-1.58,1.12-2.39,1.11-.59,2.71-.83,3.92-1.31a40,40,0,0,0,5.42-2.67c4.12-2.43,7.85-5.47,12-7.88,3.23-1.88,6.62-3.44,9.88-5.24,4.36-2.41,7.91-6,12.35-8.34,1.74-.93.21-3.35-1.51-2.59-3.76,1.66-7.49,2.76-11.11,4.76-3.88,2.14-7.72,4.38-11.56,6.59-7.4,4.25-15.46,10.89-24,12.39-1.9.33-1.09,3.23.8,2.89Z"/><path class="cls-3" d="M105.19,105.46c5.71-3.86,14.12-9.77,21.23-9.86a1.5,1.5,0,0,0,0-3c-7.79.09-16.53,6.07-22.75,10.27-1.59,1.07-.09,3.67,1.51,2.59Z"/><path class="cls-3" d="M110.6,117.08c-6.94,2-13.76,6.37-20.22,9.6-3.92,2-7.89,3.86-11.77,5.91-3.57,1.88-1.95,1.86-3.27,5.34-.48,1.27,1.15,2.3,2.2,1.69,7.53-4.31,14.72-9.1,21.9-14a1.51,1.51,0,0,0-.76-2.8,29.49,29.49,0,0,0-10.08.68c-1.66.42-6,1.51-7.08,3.09-1.9,2.89,2.46,4.2,4.66,4,1.91-.17,1.93-3.17,0-3-3.24.29,4.08-1.42,4.81-1.55a27.29,27.29,0,0,1,7.7-.22l-.76-2.8c-7.19,4.86-14.37,9.64-21.9,14l2.2,1.69c0-.07.5-3,.51-3,.54-.64,4-1.82,4.76-2.19l10.06-5c5.64-2.83,11.79-6.73,17.84-8.47a1.5,1.5,0,0,0-.8-2.89Z"/><path class="cls-3" d="M60.53,95.19,44.61,88l-.36,2.74c5-1.68,10.08,3.41,14.35,5.22,3.46,1.47,5.68.58,9.24.07,1.83-.26,1.1-2.75-.4-2.95-1.73-.23-3.26-.1-5-.17-2.84-.11-4-.89-6.36-2.2a52.14,52.14,0,0,0-8.59-4v2.89c3.83-1.32,6.8,2,10.08,3.29a20.06,20.06,0,0,0,8.13,1.33c1.37,0,2.19-2.16.76-2.8-3.37-1.49-6.61-1.77-9.89-3.66-2.46-1.43-4.56-2.54-7.51-2.25l.4,2.95A180.33,180.33,0,0,0,71.16,78l-2.26-1.3c-.19,1.79-.37,3.58-.58,5.37-.32,2.78,0,4.38-2.58,6s-3.08,1.11-5.87-.16a28,28,0,0,1-3.94-2.28v2.59a42.33,42.33,0,0,1,12.42-6.59l-1.9-1.45c0,1.87,0,4.64-1.32,6.16q-.29,2.39-2.48,1a4.37,4.37,0,0,1-3.1-1.2l.3,2.36c2.13-1.76,4.31-3.42,6.58-5l-2.26-1.3C64,84.63,62.33,86,62.57,88.42L64.47,87l-.93-.8-2.05,2.05a58.73,58.73,0,0,1,10,6.9,1.51,1.51,0,0,0,2.36-1.82L71,87.74,68.9,89.8l6.17,3.9V91.11L74,91.54l.76,2.8,10.6-5.06-1.51-2.59A14.24,14.24,0,0,0,79.1,90.6a1.51,1.51,0,0,0,1.46,2.51,17.31,17.31,0,0,1,6.09-.48l-.4-2.95-3.88,1.5c-1.19.46-1.64,2.67,0,2.89,4.8.66,9-.47,13.74-1.28,4.06-.7,8.32,0,11.64-2.75,1.21-1-.1-2.85-1.46-2.51-3.57.9-6.35,2.68-10.22,2.59a17,17,0,0,1-5.61-.77C89.43,89,86,88,88.64,87.31L87.18,84.8c-5.48,6.8,14.56,6.74,18.27,3.4a1.51,1.51,0,0,0-1.06-2.56,86.38,86.38,0,0,1-11.24,0c-3.37-.07-1.12.16-.38-.6.45-.47,2-1.36,2.52-1.81,2.9-2.62,4.24-6.11,3-9.88-.61-1.82-3.48-1.06-2.89.8a10,10,0,0,1-2,10,1.51,1.51,0,0,0,1.46,2.51l1.44-.23c1.66-.26,1.28-3.09-.4-2.95a8.58,8.58,0,0,0-3.9,1c-1.4.62-.64,2.82.76,2.8A110.45,110.45,0,0,0,104,86.56a1.5,1.5,0,0,0,0-3c-2.69-.23-4.83-1.73-7.57-1.53-1.39.11-2.16,2-.76,2.8a7,7,0,0,0,5.75.67,1.51,1.51,0,0,0,0-2.89,7.5,7.5,0,0,0-8.31,1.53l2.51,1.46,1-6.11-2.74.36c2.42,4.68,3.51,4.42,8.76,4.77a1.51,1.51,0,0,0,1.3-2.26A26.38,26.38,0,0,0,102,80.47c-1.77-1.93-2-4.14-2.67-6.59l-2.2,1.69A63.3,63.3,0,0,0,106.46,81l.36-2.74c-2.68.43-4.81-1.61-7.13-.51A1.53,1.53,0,0,0,99,79.43a4.9,4.9,0,0,0,1.88,2.81A29.28,29.28,0,0,0,107.2,85c-.57-1.22-2.41-.8-2.74.36-.68,2.35-.53,6.28,3,5.83,2.72-.35,3.13-3.43,1.3-5l-.66,2.51,1.6.18-1-1.85-.27,1a1.51,1.51,0,0,0,2.51,1.46l2.13-1.9a1.51,1.51,0,0,0-.3-2.36c-.64-.31-6.48-3.27-3.26-2.83q2,2.23,2.4.74l-2.55-1.54-1.16,2.74c.65.21,4.68,1.34,4.64,1.28,1,1.62,3.63.12,2.59-1.51-1.62-2.54-3.8-1.81-6.44-2.66-1.65-.53-2.58,1.88-1.16,2.74,1.87,1.14,5.85,4.66,7.79,1.78s-1.73-5-3.81-5.85c-1.87-.78-6.25-2.15-7.21.76s4.66,6,6.64,6.95l-.3-2.36-2.13,1.9,2.51,1.46.27-1a1.53,1.53,0,0,0-1-1.85,4.42,4.42,0,0,0-3.2-.18,1.51,1.51,0,0,0-.66,2.51l.67-2.14-2.74.36.28.6a1.48,1.48,0,0,0,1.3.74h.66a1.47,1.47,0,0,0,1.3-.74,3.52,3.52,0,0,0,.25-3.36c-1.09-2.3-6.13-2.89-6.5-5.08l-.69,1.69c-.68.32,2.92,1,2.89,1a11.51,11.51,0,0,0,3.53-.22A1.51,1.51,0,0,0,108,78.4,63.3,63.3,0,0,1,98.61,73c-1.11-.78-2.52.5-2.2,1.69.53,2,.77,4.83,2,6.58.77,1.12,2.12,1.55,2.93,2.61l1.3-2.26c-2.84-.19-4.71-.47-6.17-3.28-.56-1.07-2.54-.93-2.74.36l-1,6.11a1.51,1.51,0,0,0,2.51,1.46Q98,84,100.64,85.5V82.61l-3.44-.37L96.44,85c2.64-.2,5,1.3,7.57,1.53v-3a110.45,110.45,0,0,1-11.24.74l.76,2.8,2.39-.6-.4-2.95-1.44.23,1.46,2.51a13,13,0,0,0,2.74-12.9l-2.89.8c2.11,6.34-3.64,6.39-6.38,9.75a2.81,2.81,0,0,0-.69,2.87c1.54,3.89,13.41,2.13,16.09,1.84l-1.06-2.56c-1.88,1.69-5.23,1.43-7.56,1.4-.76,0-6.28-.78-6.47-.55a1.51,1.51,0,0,0-1.46-2.51c-1.57.42-3.53.66-3.92,2.48s1.63,3.62,3.06,4.42c2.54,1.42,6.23,1.71,9.09,1.82,4.36.17,7-1.68,11-2.7l-1.46-2.51c-2.4,2-6.46,1.31-9.44,1.81-4.39.74-8.49,2.07-13,1.45v2.89L87,92.57a1.51,1.51,0,0,0-.4-2.95,19.22,19.22,0,0,0-6.89.59l1.46,2.51a12.73,12.73,0,0,1,4.12-3.45c1.72-.92.21-3.41-1.51-2.59l-10.6,5.06a1.51,1.51,0,0,0,.76,2.8,3.91,3.91,0,0,0,2.6-.84,1.52,1.52,0,0,0,0-2.59l-6.17-3.9c-1.34-.85-2.7.79-2.05,2.05l2.85,5.56L73.57,93A62.65,62.65,0,0,0,63,85.63a1.51,1.51,0,0,0-2.05,2.05,3.89,3.89,0,0,0,2.72,2.18,1.51,1.51,0,0,0,1.9-1.45c-.2-2,1.47-4.12,1.62-6.17A1.51,1.51,0,0,0,64.93,81c-2.48,1.72-4.86,3.54-7.19,5.47a1.51,1.51,0,0,0,.3,2.36c2.33,1.53,5.49,3.52,8.1,1.63s3.25-7.26,3.31-10.24a1.51,1.51,0,0,0-1.9-1.45,44.88,44.88,0,0,0-13.14,6.89,1.53,1.53,0,0,0,0,2.59c3.12,2.08,9.92,6.18,13.65,3.71,4-2.66,3.39-11.15,3.83-15.24.13-1.18-1.35-1.81-2.26-1.3a174.52,174.52,0,0,1-21,10.15c-1.42.57-1.44,3.12.4,2.95,3.48-.34,5.61,1.95,8.49,3.33,2.36,1.13,5,1.12,7.39,2.18l.76-2.8c-5.39.12-8.26-2.45-12.89-4.25a8.3,8.3,0,0,0-6.12-.27,1.51,1.51,0,0,0,0,2.89c3.89,1.37,7,3.76,10.73,5.35,3.23,1.4,6.6.67,10,1.12L67,93.08c-3.2.46-5.51,1-8.58-.6-2-1.05-3.95-2.26-6-3.24-3-1.43-5.71-2.55-9-1.44-1.1.37-1.62,2.17-.36,2.74L59,97.78c1.74.79,3.27-1.79,1.51-2.59Z"/><path class="cls-3" d="M114.6,84.46a3.11,3.11,0,0,1,.7.26,4.64,4.64,0,0,0,1.12.38,1.54,1.54,0,0,0,1.85-1,1.52,1.52,0,0,0-1-1.85c-.66-.1-1.07-.45-1.82-.64a1.5,1.5,0,1,0-.8,2.89Z"/><path class="cls-3" d="M106.59,80.54l.32,0q.29,0,.08,0c-.28-.19-.07,0,.08.12a4.4,4.4,0,0,0,1.35.71,1.51,1.51,0,0,0,1.85-1,1.53,1.53,0,0,0-1-1.85c-.05,0-.22-.1-.08,0l-.27-.16c.12.08,0,0,0,0a3.83,3.83,0,0,0-.47-.35,2.94,2.94,0,0,0-1.77-.32,1.53,1.53,0,0,0-1.5,1.5,1.52,1.52,0,0,0,1.5,1.5Z"/><path class="cls-3" d="M30,108.5l-.62,0q-.28,0-.06,0-.26-.08-.06,0a4.56,4.56,0,0,0-.77-.34,2,2,0,0,0-1.08.07,1.54,1.54,0,0,0-1,1.85,1.51,1.51,0,0,0,1.85,1,.91.91,0,0,1,.29-.07h-.8q-.18-.1.05,0l.49.21a2.74,2.74,0,0,0,.44.11,5.17,5.17,0,0,0,1.32,0,1.5,1.5,0,1,0,0-3Z"/><path d="M95.77,71.46c7.72,5,16.3,9.06,24.54,13.1.6.3,1.14-.61.53-.91-8.24-4-16.82-8.1-24.54-13.1-.57-.37-1.1.54-.53.91Z"/><path d="M40.84,89a175.8,175.8,0,0,0,30.3-14.25.53.53,0,0,0-.53-.91A174.35,174.35,0,0,1,40.56,88c-.63.23-.36,1.24.28,1Z"/><path class="cls-3" d="M74.29,116.93a20.85,20.85,0,0,1,.15,9.29c1.58-.65,4-1.66,6.78-3,9.63-4.65,10.64-6.7,18.05-10.69,7-3.75,24.85-12,28.34-12.85a3.25,3.25,0,0,0,1.66-1c.59-.7.36-1.72.17-2.86a10.89,10.89,0,0,0-.88-2.84"/><path d="M73.79,117.07a22.52,22.52,0,0,1,.15,9c-.06.34.23.82.65.65,11.82-4.91,22-12.53,33.5-18.05a189.47,189.47,0,0,1,17.58-7.83c4.53-1.63,5.29-3.07,3.42-8-.24-.63-1.25-.35-1,.28,1.91,5.06-.75,5.93-4.21,7.31-2,.8-4,1.68-6,2.56-5.55,2.47-11.06,5-16.47,7.81-4.84,2.48-9.16,5.62-13.81,8.4-3,1.77-6.48,4.14-9.8,5-2.55.67-2.47,1-2.39-1.71a25,25,0,0,0-.61-5.71c-.13-.66-1.14-.38-1,.28Z"/><path class="cls-3" d="M40.93,97.35a13.21,13.21,0,0,0-6,1.09A369.77,369.77,0,0,0,73.21,117a6.75,6.75,0,0,0,2.57.68,6.59,6.59,0,0,0,2.6-.74c17-7.57,31.89-19.92,49.9-24.45l-6.58-3"/><path d="M40.93,96.83a16.76,16.76,0,0,0-6.17,1.11.53.53,0,0,0-.13,1c8.64,4.8,17.45,9.29,26.43,13.4,5.53,2.53,12.29,7.47,18.36,4.78,16.72-7.41,31.09-19.29,49-24.05a.53.53,0,0,0,.13-1L122,89c-.61-.28-1.14.62-.53.91.81.37,4.86,1.68,5.08,2.51,0-.1-5.88,1.93-6.36,2.12a105.69,105.69,0,0,0-10.81,4.94c-7.78,4-15.17,8.75-22.9,12.89-4,2.16-8.49,5.39-13.1,4.13-5.11-1.39-10.33-4.44-15.12-6.69q-6.71-3.15-13.29-6.57c-2.17-1.13-4.49-2.17-6.54-3.48-3.63-2.32-.11-1.89,2.52-1.9a.53.53,0,0,0,0-1Z"/><path class="cls-3" d="M74.49,112.08a56.67,56.67,0,0,0,8.08-3.53c8.61-4.28,17.33-8.3,26.06-12.32L118,91.88a10.5,10.5,0,0,0,4-2.7c1-1.28,1.3-3.3.2-4.5-1.64-1.78-4.58-.57-6.62.73-4.72,3-7.33,4.56-11,7-3,2-4.38,2.21-11.55,5-4.63,1.78-11.23,4.45-19.31,8.2"/><path d="M74.63,112.58c5.84-2,11.28-5.13,16.85-7.79,6.3-3,12.65-5.92,19-8.85,3.61-1.67,9.63-3.12,12.08-6.51,1.35-1.87,1.38-4.75-.91-5.88-3-1.47-6.84,1.78-9.1,3.2-3.58,2.25-7.09,5-10.91,6.79-9.1,4.36-18.93,7.37-28.13,11.6-.61.28-.08,1.19.53.91q11.62-5.35,23.6-9.81c5.2-1.94,9.48-4.84,14.18-7.79,1.23-.77,3.8-3.19,5.22-3.24q5.85,4.19,1.88,5.66-1.34.64-2.69,1.25c-4.36,2-8.72,4-13.08,6-9.5,4.39-18.9,9.94-28.78,13.39-.63.22-.36,1.24.28,1Z"/><path class="cls-3" d="M40.7,88.54c2.84,1.22,6.46,2.79,10.66,4.65,4.78,2.11,1.56.7,7.67,3.46a69.6,69.6,0,0,1,10.52,5.49,12.91,12.91,0,0,1,4,3.85,5.79,5.79,0,0,1,.51,5.34c-5.23-.36-9.53-4.05-14.2-6.44-3.69-1.89-5.49-2.23-8.3-3.57a86.31,86.31,0,0,1-12-6.92"/><path d="M40.43,89c4.73,2,9.46,4.09,14.15,6.21,5.28,2.39,11.23,4.48,15.74,8.2a9.3,9.3,0,0,1,2.75,2.84q-.2,5.48-3.31,3.44c-1.87-.27-3.93-1.95-5.52-2.88a63.2,63.2,0,0,0-7-3.73,100.05,100.05,0,0,1-17.36-9.14c-.56-.38-1.09.53-.53.91a87.42,87.42,0,0,0,16.45,8.77c6.23,2.54,11.46,7.34,18.27,8.24a.53.53,0,0,0,.51-.39c2.34-7.9-8.17-12-13.72-14.57C54.25,93.87,47.61,91,41,88.08c-.61-.26-1.15.64-.53.91Z"/><path d="M33.92,107.33q20.54,9.12,40.6,19.27c.6.3,1.13-.6.53-.91Q55,115.54,34.45,106.42c-.61-.27-1.15.63-.53.91Z"/><path d="M36.78,100.45c1.19.94,2,2.53,1.22,4a3.52,3.52,0,0,1-4.26,1.33c-.64-.21-.92.8-.28,1A4.56,4.56,0,0,0,38.9,105a4.21,4.21,0,0,0-1.38-5.28c-.52-.41-1.27.32-.74.74Z"/><path d="M25.1,109.83c4.35-1,8.65-3.54,12.74-5.3.62-.27.08-1.17-.53-.91-4,1.71-8.27,4.21-12.49,5.19-.66.15-.38,1.17.28,1Z"/><path class="cls-3" d="M25.25,109.38a221,221,0,0,0,20.85,12,71.55,71.55,0,0,0,9.15,4c6.9,2.35,14.72,3.11,20.15,8a2.61,2.61,0,0,1,.86,1.15,2.82,2.82,0,0,1,0,1.14l-.63,4.76-51.79-24.4"/><path d="M25,109.84A189.59,189.59,0,0,0,50.34,124c7.31,3.26,18.6,3.49,23.87,9.81,1.34,1.61,2.67,4.52-.1,5.31-1.18.34-5.95-2.8-7.14-3.37l-14.29-6.73L24.1,115.6c-.61-.29-1.14.62-.53.91l51.79,24.4a.53.53,0,0,0,.79-.45c.58-4.36,1.48-6.31-2.32-8.92-4.15-2.85-9.14-3.94-13.92-5.26-12.34-3.39-23.72-10.45-34.4-17.34-.57-.37-1.1.54-.53.91Z"/><path d="M69.56,135.81l3,1.42.13-1a36.78,36.78,0,0,0-8.24,4.18l.77.59.43-1.65a.53.53,0,0,0-.51-.66l-2.21-.13.26,1,6.93-3.77c.59-.32.06-1.23-.53-.91l-6.93,3.77a.53.53,0,0,0,.26,1l2.21.13-.51-.66-.43,1.65a.53.53,0,0,0,.77.59,35.72,35.72,0,0,1,8-4.07c.39-.14.57-.75.13-1l-3-1.42C69.48,134.62,68.95,135.52,69.56,135.81Z"/><path class="cls-3" d="M75.47,140.6l23.67-12.11,5-2.56,6.23-3.18q11-5.57,22-11a2.37,2.37,0,0,0,1.79-2.64,7.26,7.26,0,0,0-.33-2.77,2.47,2.47,0,0,0-2.07-1.66"/><path d="M75.73,141.05c13.88-7.1,27.73-14.26,41.66-21.26q5.07-2.55,10.15-5.07c2-1,5.48-1.87,6.76-3.83,1.59-2.44-.06-5.75-2.4-6.7-.63-.26-.9.76-.28,1l.48,6.11-1.7.83a28.11,28.11,0,0,1-4.24,2.09l-6.77,3.37q-7.39,3.7-14.74,7.47L75.2,140.15c-.6.31-.07,1.21.53.91Z"/><path class="cls-3" d="M76.58,134q15.37-7,31.57-15.32,12.91-6.62,24.85-13.31L125,101"/><path d="M76.85,134.48q28.77-13.21,56.43-28.63a.53.53,0,0,0,0-.91l-8-4.44c-.59-.33-1.12.58-.53.91,1.2.67,6.77,2.84,6.39,4.42-.23,1-6.47,3.56-7.29,4q-7.93,4.3-16,8.42-15.62,8-31.57,15.32c-.61.28-.08,1.19.53.91Z"/><path class="cls-3" d="M95.12,31.91a5.15,5.15,0,0,0-3.63-2,5.37,5.37,0,0,0-2.89,1.27Q83,34.54,77.48,38c-1.88,1.19-3.84,2.51-4.73,4.55a11.27,11.27,0,0,0-.7,3.85c-.77,12.65-.92,25.33-1.07,38a5.91,5.91,0,0,0,.49,3.79,5.1,5.1,0,0,0,3,2"/><path d="M95.49,31.54C91,27,86.27,32,82,34.61c-5.24,3.23-9.82,5.26-10.43,11.82-.87,9.43-.81,19-1,28.5-.08,5.25-2.47,13.52,3.74,15.82.63.23.91-.78.28-1-1.37-.51-2.86-4-3.09-5.3a27.92,27.92,0,0,1,.06-4.75q.05-4.28.13-8.56c.1-5.7.25-11.4.49-17.1.11-2.53.17-5.07.39-7.59.37-4.22,2.61-6.31,6-8.44,3.73-2.38,12.16-9.8,16.21-5.71.48.48,1.22-.26.74-.74Z"/><path class="cls-3" d="M75.79,42.73A11.08,11.08,0,0,0,74.45,47a22.6,22.6,0,0,0-.22,4.24c-.1,2.87-.08,5.54-.09,10.92,0,4.8-.37,9.79-.49,11.53-.15,2.06-.21,4.13-.32,6.2-.15,2.52.35,5,.35,7.57a2.79,2.79,0,0,0,.71,2.22,2.59,2.59,0,0,0,2.12.25,33.71,33.71,0,0,0,8.21-3.45c1.89-1,4-2.08,7.66-4.18a8.6,8.6,0,0,0,2.76-2c2-2.41,1.44-5.82,1.26-7.11-.28-2-2.58-18.61-.06-29.14A25.07,25.07,0,0,0,96,33.87c-.21-1-.57-1.94-1.23-2.1a1.47,1.47,0,0,0-1.14.35c-.54.39-4.8,2.71-13.32,7.34C77.93,40.75,76.75,41.21,75.79,42.73Z"/><path d="M75.34,42.46c-2.07,4.3-1.69,9.19-1.71,13.85,0,6.84-.33,13.63-.67,20.46-.18,3.59-.55,7.7.24,11.22.34,1.52.6,2.17,2.18,2.54,3.38.8,8.94-3.26,11.78-4.78,4.26-2.29,9.41-3.91,9.93-9.37.35-3.67-.76-7.78-1-11.43a83.66,83.66,0,0,1,.67-20.16c.56-3.39,1.57-9.59-.67-12.49-1.59-2.06-3.36-.21-5.13.77-2.8,1.56-5.62,3.08-8.43,4.61-2.53,1.38-5.34,2.44-7.12,4.78-.41.54.5,1.06.91.53,2.2-2.89,7.14-4.61,10.25-6.31,1.87-1,3.75-2,5.6-3.07,1.45-.82,2.2-1.52,3.4.4,1.31,2.09.76,7.08.39,9.59a102.8,102.8,0,0,0-.19,28.33c.23,1.8.68,3.81.17,5.59-1.09,3.82-6.09,5.63-9.24,7.32-2.24,1.2-5.07,3.22-7.53,3.73A2.29,2.29,0,0,1,76,88.24q-2.59-.23-1.84-2.7c-.53-1.65-.29-3.92-.27-5.68.08-6.48.81-12.93.82-19.43,0-5.49-.85-12.42,1.58-17.45C76.53,42.39,75.63,41.85,75.34,42.46Z"/><path class="cls-3" d="M75.7,48.14,95.56,36.27A174.9,174.9,0,0,0,96,75.07L75.94,84.23Z"/><path d="M76,48.6,89.2,40.68c1.06-.63,4.5-3.52,5.67-2.77.39.25-.45,6.2-.49,6.9q-.33,6.55-.18,13.11c.11,4.53,1.22,9.48.9,14-.24,3.34-1.44,3.67-4.39,5L84,80a35.74,35.74,0,0,1-5,2.29q-1.45,1.55-2.57.08l0-3.8-.2-30.39a.53.53,0,0,0-1,0l.24,36.08a.53.53,0,0,0,.79.45l20.05-9.16a.51.51,0,0,0,.26-.45,182.17,182.17,0,0,1-.44-38.8.53.53,0,0,0-.79-.45L75.43,47.69A.53.53,0,0,0,76,48.6Z"/><path class="cls-3" d="M81.63,41a.26.26,0,0,0,.06.39.7.7,0,0,0,.44.07.55.55,0,0,0,.25-.06.4.4,0,0,0,0-.61,1.16,1.16,0,0,0-.67-.21"/><path d="M81.17,40.71c-.59,1,.87,1.63,1.58,1a.9.9,0,0,0,.17-1.1A1.42,1.42,0,0,0,81.7,40c-.67-.08-.67,1,0,1,.18,0,.25.11.36-.05s.1-.13,0-.11-.16.09,0,.32c.35-.58-.55-1.11-.91-.53Z"/><path class="cls-3" d="M84,40.09a17.15,17.15,0,0,1,3.34-1.81"/><path d="M84.26,40.55a17.59,17.59,0,0,1,3.21-1.76c.62-.25.35-1.27-.28-1a18.84,18.84,0,0,0-3.47,1.86c-.55.38,0,1.29.53.91Z"/><path class="cls-3" d="M86,81.61a2.17,2.17,0,0,0-.86.81,3.93,3.93,0,0,0-.28,1.5.81.81,0,0,0,0,.42.65.65,0,0,0,.63.27,1.85,1.85,0,0,0,1.41-.9,3.15,3.15,0,0,0,.42-1.66.64.64,0,0,0-.06-.37.8.8,0,0,0-.64-.28A1.26,1.26,0,0,0,86,81.61Z"/><path d="M85.7,81.16a2.59,2.59,0,0,0-1.34,2.13c-.07.54-.18,1.18.28,1.58a1.5,1.5,0,0,0,1.47.15,3,3,0,0,0,1.75-3c0-1.22-1.29-1.36-2.17-.91-.6.31-.07,1.22.53.91s.64.18.51.72a2,2,0,0,1-.42.87c-.16.17-.63.55-.88.43s0-1,.08-1.28a1.51,1.51,0,0,1,.72-.75C86.82,81.73,86.29,80.83,85.7,81.16Z"/><path d="M25.86,116.82c3-.8,3.72-4.18,1.9-6.47-.42-.53-1.16.22-.74.74a2.89,2.89,0,0,1-1.43,4.71.53.53,0,0,0,.28,1Z"/><path d="M41.13,89.69a4.34,4.34,0,0,1-.62,4.94c-.45.5.29,1.24.74.74A5.41,5.41,0,0,0,42,89.16c-.31-.6-1.22-.07-.91.53Z"/><path class="cls-1" d="M70.11,34.64c-2.1,1.44-5,3.29-6,5.72a11.27,11.27,0,0,0-.36,4.34l0,6.72a1.33,1.33,0,0,0,2.66,0c0-2.6-.28-5.35,0-7.94.29-3.25,2.5-4.82,5-6.54,1.4-1,.07-3.27-1.34-2.3Z"/><path class="cls-1" d="M76.42,33.92a42,42,0,0,1,6.13-4.68c1.45-.91.11-3.21-1.34-2.3A45.8,45.8,0,0,0,74.53,32c-1.26,1.16.62,3,1.88,1.88Z"/><path class="cls-4" d="M65,84.39c-.42,3.58-.5,8.05,2.78,10.4,3.9,2.79,9.67,1.71,13.68-.17,1.9-.89.25-3.7-1.65-2.82-2.73,1.28-8.17,2.57-10.6-.06-1.71-1.86-1.22-5.08-1-7.35.24-2.08-3-2.06-3.26,0Z"/><path class="cls-1" d="M98.73,54.15V74.82a1.33,1.33,0,0,0,2.66,0V54.15a1.33,1.33,0,0,0-2.66,0Z"/><path class="cls-1" d="M98.67,79.83v1.23a1.33,1.33,0,0,0,2.66,0V79.83a1.33,1.33,0,0,0-2.66,0Z"/></g></g></svg>