<svg xmlns="http://www.w3.org/2000/svg" viewBox="0 0 153.51 164.2"><defs><style>.cls-1{fill:#5d94cf;}.cls-2{fill:#f9fafb;}.cls-3{fill:#5995da;}</style></defs><title>bluebag</title><g id="Layer_2" data-name="Layer 2"><g id="homepage"><rect class="cls-1" width="153.51" height="164.2" rx="12" ry="12"/><path class="cls-2" d="M98,78.3c-4.41,0-15.72.37-42.8,1.94"/><path d="M98,77.77c-14.26-.07-28.58,1.12-42.8,1.94-.67,0-.68,1.09,0,1,14.22-.82,28.55-2,42.8-1.94a.53.53,0,0,0,0-1Z"/><path class="cls-2" d="M98,78.3"/><path d="M98,78.82a.53.53,0,0,0,0-1,.53.53,0,0,0,0,1Z"/><path class="cls-2" d="M102.39,78.3"/><path d="M102.39,78.82a.53.53,0,0,0,0-1,.53.53,0,0,0,0,1Z"/><path class="cls-2" d="M61.18,50.42a13,13,0,0,0-.05-4.55c-.12-1.52.08-3.25,1.26-4.22a5.73,5.73,0,0,1,3.32-.94l18.55-1.32c2.62-.19,5.71-.17,7.27,1.94a7.19,7.19,0,0,1,1.08,2.82,41.26,41.26,0,0,1,.84,6.27h5.33A25.94,25.94,0,0,0,96.19,41c-.84-1.8-2-3.61-3.78-4.41a7.84,7.84,0,0,0-4.28-.5c-8.47,1.11-17.08.6-25.59,1.3-1.31.11-4,.33-5.52,2.3a5.14,5.14,0,0,0-1,2.47,41.25,41.25,0,0,0-.45,8.31h5.56Z"/><path d="M61.7,50.42a28.48,28.48,0,0,0-.05-4.55c0-2.52,1.62-3.8,4.05-4.64,2.86-1,7.18-.51,10.2-.73s6-.53,9-.63c2.59-.08,5.81,2.17,7.17,4.41,1,1.57.68,4.34.82,6.13a.54.54,0,0,0,.53.52h5.33a.53.53,0,0,0,.52-.52C98.82,46.14,97.65,39.84,94,37c-1.8-1.43-3.7-1.55-5.89-1.43-4,.21-7.89.67-11.86.78-5.2.14-12.83-1.07-17.65,1.42-4.28,2.21-3.63,8.7-3.52,12.71a.53.53,0,0,0,.52.52h6.59a.53.53,0,0,0,0-1h-1a.53.53,0,0,0,0,1h1v-1H58.43c-2.89,0-2.6.1-2.31-2.81.33-3.31-.24-7,3.86-8.79a11.4,11.4,0,0,1,3.47-.5c3.34-.28,6.71-.32,10.07-.39s6.71-.14,10.06-.39c1.42-.11,3.14-.61,4.55-.45a11.46,11.46,0,0,1,7.61,4.66c.84,1.31,3.19,8.21,2.5,8.66a14.7,14.7,0,0,1-4.57,0c-.25-.23-.38-5.22-.56-5.88-.42-1.56-.86-3-2.22-4-3.55-2.63-10.14-.88-14.06-.6-3.09.22-6.18.43-9.27.66-1.56.12-3.53,0-4.94.87-3.24,2-1.56,6.47-2,9.5C60.56,51.09,61.61,51.08,61.7,50.42Z"/><path class="cls-2" d="M35.79,72.29c.46,21.43.43,35.85-.34,41.42a12,12,0,0,0,.85,6.42c1.12,2.5,3.49,4,5.83,4.92,5,2,10.45,2.24,15.78,2.45,18.08.69,36.21,1.39,54.25-.28a5.39,5.39,0,0,0,3.32-1.1c1.58-1.47,1.55-3.93,1.54-4.83-.08-4.36-.12-21.14-.29-44.13"/><path d="M35.26,72.29c.26,12.34.72,24.78,0,37.11-.2,3.65-1.13,7.46.52,10.93,2.28,4.79,8.3,6.28,13.07,7,7.4,1.13,15.12.94,22.6,1.17,8.72.26,17.45.39,26.17.11,4.2-.13,8.39-.34,12.58-.7,1.81-.16,4.11-.08,5.57-1.38,2.17-1.93,1.74-5.25,1.71-7.85-.14-13.84-.16-27.68-.26-41.52a.53.53,0,0,0-1.05,0c.1,13.36.14,26.72.25,40.08,0,1.34.11,2.72,0,4.06-.3,6.29-7.37,5.7-12.06,6-9.35.54-18.73.53-28.1.31-9-.21-18.35,0-27.23-1.31-5.78-.88-12.05-2.63-13.06-9.33a26.23,26.23,0,0,1,.21-6c1-12.8.33-25.83.07-38.65a.53.53,0,0,0-1.05,0Z"/><path class="cls-2" d="M49.53,80.46a15,15,0,0,1-7.33-2.4,17.07,17.07,0,0,1-6.53-8c-3-7.6.1-15,.56-16,5.35-3.34,11.67-3.59,17.74-3.69q26.72-.45,53.43,1c2.38.13,4.87.3,6.93,1.68,2.66,1.77,4.18,5.3,4.62,8.83a41.07,41.07,0,0,1-.54,10.64c-.21,1.49-.48,3.12-1.49,4.07a4.86,4.86,0,0,1-2.75,1c-2.77.17-6.83.37-11.79.42"/><path d="M49.53,79.93a15.5,15.5,0,0,1-12.37-8c-2.32-4.3-3.57-11.88-.93-16.49C39.07,50.48,49,50.92,54,50.81c6.27-.13,12.54-.13,18.8-.08,11.92.1,24.2-.14,36.06,1.16,9.05,1,10.25,9.49,9.51,17-.39,3.91.07,4.36-3,6.55-2.42,1.74-2.31,1.66-4.83,1.77-2.72.12-5.43.19-8.15.22a.53.53,0,0,0,0,1.05c4.16-.06,13.2,1.5,15.78-2.86,1.45-2.46,1.44-7.53,1.47-10.29a19.47,19.47,0,0,0-1.4-8.21c-2.83-6.35-8.68-6.27-14.8-6.57q-15.32-.74-30.67-.87c-8.94-.07-18.32-.69-27.19.6C40.58,51,36,51.85,34.66,57c-2.83,10.75,2.92,23.1,14.87,24,.67.05.67-1,0-1Z"/><path class="cls-2" d="M49.85,76.29l-.42,11.09,5.46,0a67.83,67.83,0,0,0-.28-11.12.85.85,0,0,0-.94-1l-4.28-.42"/><path d="M49.32,76.29,48.9,87.39a.53.53,0,0,0,.52.53l5.46,0a.54.54,0,0,0,.52-.53c.18-3.53.57-7.8-.3-11.26-.55-2.16-4-1.6-5.73-1.77-.67-.07-.67,1,0,1.05.94.09,2.58-.06,3.43.33,1.77.82,1.48,2.68,1.57,4.23a72.27,72.27,0,0,1,0,7.42l.53-.53-5.46,0,.53.53.42-11.09c0-.68-1-.67-1,0Z"/><path class="cls-2" d="M98.08,75.6v9.18a.79.79,0,0,0,1,.95l2.7-.14.42-10.69a.9.9,0,0,0-1-1.13l-3.44-.32"/><path d="M97.56,75.6V81.1c0,1.11-.38,3.12,0,4.15.65,1.63,2.79.93,4.21.85a.54.54,0,0,0,.52-.53l.23-5.83c.05-1.41.63-4,.17-5.36-.62-1.79-3.47-1.34-5-1.48-.67-.06-.67,1,0,1,1,.09,3.29-.07,3.95.92.35.53-.11,2.72-.13,3.4l-.28,7.29.53-.53c-.92,0-2.55.52-3.19-.28-.31-.39,0-2.3,0-2.75V75.6a.53.53,0,0,0-1,0Z"/><path class="cls-2" d="M46.27,95l0,5.68,7.11.28-.25-5.17a1.72,1.72,0,0,0-.42-1.28,1.68,1.68,0,0,0-1-.28q-2.61-.14-5.22-.06"/><path d="M45.74,95l0,5.68a.53.53,0,0,0,.52.53l7.11.28a.53.53,0,0,0,.53-.53l-.2-4.14a4.1,4.1,0,0,0-.52-2.55c-.56-.64-1.5-.57-2.28-.6-1.48-.06-3-.06-4.44,0a.53.53,0,0,0,0,1c1,0,1.91,0,2.87,0s2.66-.24,3.2.56c.34.5.14,2,.17,2.63l.15,3.1.52-.52-7.11-.28.52.52,0-5.68a.53.53,0,0,0-1,0Z"/><path class="cls-2" d="M65.9,96.07l0,5.79a24.28,24.28,0,0,0,6.3.79.91.91,0,0,0,.73-.23.92.92,0,0,0,.13-.58V95.38a.47.47,0,0,0-.56-.58H64.85"/><path d="M65.38,96.07l0,5.79a.53.53,0,0,0,.39.51,27.32,27.32,0,0,0,3.9.69,7.9,7.9,0,0,0,3.09.06c1.56-.6.85-3.61.85-4.83,0-1.07.6-3.53-.79-4a13.54,13.54,0,0,0-3.5,0H64.85a.53.53,0,0,0,0,1H70c.37,0,2.35-.24,2.56,0s0,1.95,0,2.31v2.58c0,.86.28,1.7-.66,1.9-1.75.38-4.14-.35-5.84-.77l.39.51,0-5.79a.53.53,0,0,0-1,0Z"/><path class="cls-2" d="M83.22,101.77V95.16a47.17,47.17,0,0,0,7.55.27l.31,5.7a.5.5,0,0,1-.6.65H83"/><path d="M83.75,101.77V95.16l-.52.53a51.3,51.3,0,0,0,7.55.27l-.53-.52.19,3.48c0,.53.07,1.05.09,1.58,0,.88.2.71-.66.76-2.27.12-4.58,0-6.86,0a.53.53,0,0,0,0,1.05h5c.87,0,2.34.32,3.12-.14.62-.37.48-1,.46-1.66-.07-1.69-.18-3.38-.28-5.06a.53.53,0,0,0-.53-.53,51.3,51.3,0,0,1-7.55-.27.53.53,0,0,0-.53.53v6.62a.53.53,0,0,0,1,0Z"/><path class="cls-2" d="M101.17,95v5.72a.48.48,0,0,0,.57.58,35.82,35.82,0,0,0,6.19-.18V95.3l-6.75-.24"/><path d="M100.65,95v4.16c0,.66-.27,1.87.3,2.4s1.89.32,2.59.33a38,38,0,0,0,4.38-.24.54.54,0,0,0,.53-.53V95.3a.53.53,0,0,0-.52-.53l-6.75-.24c-.68,0-.67,1,0,1l6.75.24-.53-.52v5.84l.52-.52c-1,.11-2.06.19-3.09.23-.69,0-2.27.28-2.86-.06q-.54.06-.28-.56V95a.53.53,0,0,0-1,0Z"/><path class="cls-2" d="M109,115.87l.06-5.68-7.1-.38.17,5.18a1.72,1.72,0,0,0,.4,1.28,1.68,1.68,0,0,0,1,.3q2.61.18,5.22.13"/><path d="M109.49,115.87l.06-5.68a.54.54,0,0,0-.52-.52l-7.1-.38a.53.53,0,0,0-.53.52l.14,4.14a4.06,4.06,0,0,0,.49,2.56c.56.64,1.5.59,2.27.63,1.48.08,3,.1,4.44.08a.53.53,0,0,0,0-1c-1,0-1.91,0-2.87,0s-2.66.2-3.18-.61c-.33-.51-.11-2-.13-2.63l-.1-3.11-.52.53,7.1.38-.53-.53-.06,5.68a.53.53,0,0,0,1,0Z"/><path class="cls-2" d="M89.34,114.54l.06-5.79a24.28,24.28,0,0,0-6.29-.88.91.91,0,0,0-.74.22.92.92,0,0,0-.14.58l-.09,6.45a.47.47,0,0,0,.55.59l7.67.1"/><path d="M89.87,114.54l.06-5.79a.53.53,0,0,0-.39-.51,27,27,0,0,0-3.54-.7c-.93-.12-2.53-.48-3.43-.14-1.52.56-.89,3.27-.9,4.5s-.72,3.71.66,4.3c.87.37,2.65.07,3.57.08l4.48.06a.53.53,0,0,0,0-1.05l-5.44-.07c-.39,0-2,.19-2.25-.06s0-2.23,0-2.61l0-2.58c0-1-.15-1.49.95-1.56a18.34,18.34,0,0,1,5.57.85l-.39-.51-.06,5.79a.53.53,0,0,0,1,0Z"/><path class="cls-2" d="M72.11,108.6l-.1,6.61a47.17,47.17,0,0,0-7.54-.38l-.23-5.7a.5.5,0,0,1,.6-.64l7.48.11"/><path d="M71.58,108.6l-.1,6.61.53-.53a51.3,51.3,0,0,0-7.54-.38l.52.53-.14-3.48c0-.53-.06-1.06-.06-1.58,0-.88-.19-.71.68-.74,2.27-.08,4.58.06,6.86.1a.53.53,0,0,0,0-1l-5-.07c-.87,0-2.34-.36-3.12.1-.62.36-.49,1-.47,1.66,0,1.69.14,3.38.2,5.07a.53.53,0,0,0,.53.53,51.3,51.3,0,0,1,7.54.38.53.53,0,0,0,.52-.52l.1-6.61a.53.53,0,0,0-1,0Z"/><path class="cls-2" d="M54.06,115.1l.09-5.72a.48.48,0,0,0-.56-.59,35.82,35.82,0,0,0-6.19.1l-.08,5.84,6.75.33"/><path d="M54.59,115.1l.07-4.16c0-.67.29-1.87-.28-2.4s-1.89-.35-2.59-.36a38,38,0,0,0-4.39.18.54.54,0,0,0-.52.52l-.08,5.84a.53.53,0,0,0,.52.53l6.75.33c.68,0,.67-1,0-1l-6.75-.33.52.52.08-5.84-.52.53c1-.1,2.06-.17,3.1-.18.69,0,2.28-.25,2.86.1q.53,0,.27.57v.52l0,1.56-.05,3.12a.53.53,0,0,0,1,0Z"/><path class="cls-2" d="M71.07,62.53V65a.53.53,0,0,0,.67.63H85.53a15.73,15.73,0,0,0-.06-2.89.94.94,0,0,0-.17-.52,1,1,0,0,0-.61-.25c-4.08-.64-8.28-1.28-12.3-.36a1,1,0,0,0-.6.31,1,1,0,0,0-.1.61l.11,2.18a8.71,8.71,0,0,1,.77-2.39,8.83,8.83,0,0,1,.93,2.87V63.46a.8.8,0,0,0-.92.58,1.16,1.16,0,0,1,.51-1.61A3.35,3.35,0,0,1,75,62.22l4.71.38c1.53.13,3.19.3,4.31,1.35q0-.48-.11-1a2.72,2.72,0,0,1,.29,1.74,62.6,62.6,0,0,1-9-.5c-.39,0-.86-.19-.93-.57a60.17,60.17,0,0,1,7.49.08l-5-1.31-.56,1a12.6,12.6,0,0,1-.52-5.57,1.17,1.17,0,0,1,.34-.81,1.22,1.22,0,0,1,.69-.18l3-.2.79,4.08a13.16,13.16,0,0,1-1.73.18,3.2,3.2,0,0,1-2.11-.47,1.31,1.31,0,0,1-.24-1.92,1.82,1.82,0,0,1,1.09-.34,1.36,1.36,0,0,1,1.29.39.87.87,0,0,1-.54,1.21,1.37,1.37,0,0,1-1.37-.49,1.44,1.44,0,0,1,1.72,1,3.76,3.76,0,0,1-.08,2.17,24.79,24.79,0,0,1-1.88,5,1.24,1.24,0,0,1-.42-1,10.07,10.07,0,0,1,.17,3,3.24,3.24,0,0,0,.1,1.7c.25.52,1,.82,1.41.39q0-2.53-.18-5.06a10.09,10.09,0,0,1,.91,5.08A20.14,20.14,0,0,1,77.94,67a68.47,68.47,0,0,0,8.48-2.16"/><path class="cls-3" d="M70.54,62.53a13.13,13.13,0,0,0,.13,3.07A.53.53,0,0,0,71,66c1.93.56,4.43.18,6.44.18h8a.53.53,0,0,0,.52-.52c0-1.05.39-3-.5-3.86-1.1-1-5-.94-6.48-1.05-2-.14-5.11-.52-7,.44-1.43.74-.93,2.07-.85,3.56,0,.56.9.75,1,.14A8.45,8.45,0,0,1,73,62.57h-.91A8.54,8.54,0,0,1,73,65.32c.12.59,1,.44,1-.14V63.46a.53.53,0,0,0-.66-.51c-.76.15-.78.2-1.23.82l1,.13C72.58,62.23,78,63,78.5,63c1.89.17,3.64.23,5.23,1.38a.53.53,0,0,0,.79-.45l-.11-1-1,.14c.61,1.78-3,1-3.72,1-1.13-.06-4.27.11-5.05-.83l-.37.9a69.94,69.94,0,0,1,7.49.08.53.53,0,0,0,.14-1l-5-1.31a.53.53,0,0,0-.59.24l-.56,1,1,.13c-.32-1.15-.92-2.59-.6-3.74.23-.82,1.31-2.83,2.61-2.28.69.29.82.93.9,1.59q.71,1.06-.32,1.29-1.29,1-2.12-1.28l-.26,1c1.17,0,.88,3.41.67,4a29.44,29.44,0,0,1-1.37,3.35h.91l-.37-.87c-.12-.67-1.12-.38-1,.28.22,1.41-.7,6.77,2.45,5.42a.51.51,0,0,0,.26-.45q0-2.53-.18-5.06l-1,.14a11.71,11.71,0,0,1,.89,4.94l1-.14c-.77-3.23-.86-3.93,2.16-4.65,1.78-.42,3.53-.93,5.27-1.48.64-.2.37-1.22-.28-1a78,78,0,0,1-8.48,2.16.53.53,0,0,0-.39.51,27.07,27.07,0,0,0,.71,4.75.53.53,0,0,0,1-.14,12.16,12.16,0,0,0-.93-5.22c-.2-.5-1.07-.5-1,.14s.08,1.35.1,2c0,.38.38,3-.16,1.48a23.08,23.08,0,0,1-.41-3.7l-1,.28a1.64,1.64,0,0,0,.47,1.12.53.53,0,0,0,.91,0c.94-2,4.39-9.07-.21-9a.53.53,0,0,0-.26,1c2.87,2,3.8-2.82.45-2a1.67,1.67,0,0,0-1.31,2.4c.79,1.8,3.38,1.33,4.88,1.12.3,0,.41-.4.37-.65l-.79-4.08a.53.53,0,0,0-.51-.39c-1.32.09-3.61-.34-4.4,1-1,1.63-.1,4.74.37,6.42a.53.53,0,0,0,1,.13c.64-1.16,4,.27,5,.53l.14-1a69.94,69.94,0,0,0-7.49-.08.53.53,0,0,0-.37.9c.76.91,1.83.8,3,.92a67.68,67.68,0,0,0,7.33.31.53.53,0,0,0,.52-.53,3.32,3.32,0,0,0-.31-1.88c-.18-.52-1.1-.48-1,.14l.11,1,.79-.45c-2-1.42-13.57-4-12.19.68a.53.53,0,0,0,1,.13l.61-.34L73,63.46v1.72L74,65a13.15,13.15,0,0,0-1-3,.53.53,0,0,0-.91,0,13.25,13.25,0,0,0-.82,2.52l1,.14c-.19-3.76,4.88-3.11,7.32-2.9.77.07,4.22,0,4.91.66a1.72,1.72,0,0,1-.16,2.63c-.48.28-2.88,0-3.45,0H77.49a22.78,22.78,0,0,1-3.45,0c-2-.32-2.44-.55-2.45-2.57a.53.53,0,0,0-1,0Z"/><path class="cls-2" d="M84.74,62.89a1.27,1.27,0,0,1,1.77,1.34"/><path class="cls-3" d="M84.88,63.4a.77.77,0,0,1,1.11.83c-.06.67,1,.67,1,0a1.81,1.81,0,0,0-2.44-1.84c-.63.24-.36,1.25.28,1Z"/><path class="cls-2" d="M78.63,57.52a22.09,22.09,0,0,0,.56,5"/><path class="cls-3" d="M78.11,57.52a24.48,24.48,0,0,0,.58,5.15c.15.66,1.16.38,1-.28a23.12,23.12,0,0,1-.54-4.87.53.53,0,0,0-1.05,0Z"/><path d="M75.57,60.87a41.35,41.35,0,0,0-5.51,0,.35.35,0,0,0-.35.35l.11,5.28a.35.35,0,0,0,.35.35,17.74,17.74,0,0,1,3.35-.16c1.73.21,1.47.17,1.46,1.8,0,1.37-.46,2.69,0,4a.35.35,0,0,0,.24.24,23.31,23.31,0,0,0,5.14-.08.35.35,0,0,0,.35-.35c0-1-.61-3.5-.22-4.36.7-1.52,4.6-1.44,6-1.73a.35.35,0,0,0,.24-.43C86.41,64,86.62,62,85,61c-.88-.56-2.42-.13-3.27-.72-1.35-.93-1-3.2-1.18-4.64,0-.17-.14-.37-.35-.35a47.94,47.94,0,0,1-5.08.29.35.35,0,0,0-.33.25c-.14.77-1.56,6.31.85,5.7a.35.35,0,0,0-.18-.67C74.84,61,75,59.13,75,59c.08-1.63.39-2.28,2-2.71,3.22-.86,3.1,1.75,3.2,4.13a.35.35,0,0,0,.25.33c2.08.45,5.47.56,5.23,3.43-.21,2.49-3.77,2.24-5.86,2.54-.2,0-.27.26-.24.43.34,2.1,1.3,4.9-1.57,5-3.37.08-2.53-3.22-2-5.55a.35.35,0,0,0-.33-.44c-.93-.05-3.74.41-4.46,0-.92-.54-1.31-2.68-.85-3.52.86-1.56,3.53-1.18,5.14-1C76,61.61,76,60.92,75.57,60.87Z"/><path d="M98,77.77c-14.26-.07-28.58,1.12-42.8,1.94-.67,0-.68,1.09,0,1,14.22-.82,28.55-2,42.8-1.94a.53.53,0,0,0,0-1Z"/></g></g></svg>