<svg xmlns="http://www.w3.org/2000/svg" viewBox="0 0 158.52 169.48"><defs><style>.cls-1{fill:#5d94cf;}.cls-2{fill:#f9fafb;}.cls-3{fill:#5995da;}</style></defs><title>bluec</title><g id="Layer_2" data-name="Layer 2"><g id="homepage"><rect class="cls-1" x="0.26" y="0.24" width="158" height="169" rx="12" ry="12" transform="translate(-0.3 0.28) rotate(-0.2)"/><path class="cls-2" d="M51.43,39.58a177.83,177.83,0,0,1-8.61,28A177.81,177.81,0,0,1,31.24,91.2a372,372,0,0,1,37.61,34.14A127.46,127.46,0,0,1,86.32,84.45Z"/><path d="M50.94,39.44a181.89,181.89,0,0,1-20.13,51.5.51.51,0,0,0,.08.61A385.36,385.36,0,0,1,68.5,125.69a.51.51,0,0,0,.84-.22A130.89,130.89,0,0,1,86.76,84.71a.52.52,0,0,0-.08-.61L51.78,39.22c-.4-.51-1.1.21-.71.71l18,23.21L77.54,74c1.79,2.31,8.1,8.12,7.6,11.37-.22,1.44-2.28,3.7-3,5s-1.55,2.76-2.29,4.16q-2.91,5.52-5.27,11.31t-4.19,11.88c-.42,1.41-.59,3.31-1.28,4.63q.29,1.94-1.13,1.37l-2.54-2.59q-8.94-9-18.48-17.44-5.11-4.5-10.38-8.81c-1.42-1.16-4.18-2.48-4.15-4.63,0-1.34,2.29-4.1,2.94-5.32A181.33,181.33,0,0,0,51.91,39.71C52.05,39.08,51.09,38.81,50.94,39.44Z"/><path class="cls-2" d="M91.5,85.11,71.09,131.24a226,226,0,0,0,56.19-5.36,112.83,112.83,0,0,1-12.19-11.44c-3.62-3.94-5.63-6.69-10.62-13.08C101.41,97.45,97,91.86,91.5,85.11Z"/><path d="M91.07,84.86,70.65,131a.51.51,0,0,0,.43.76,233.64,233.64,0,0,0,56.32-5.38.51.51,0,0,0,.22-.84C113.5,114,103.28,98.79,91.85,84.76c-.41-.5-1.11.21-.71.71,7,8.54,13.49,17.44,20.56,25.88A108.88,108.88,0,0,0,123.12,123a37.68,37.68,0,0,1,2.94,2.51c-.09.51-4.06,1-4.46,1q-5.09,1-10.22,1.78Q100.25,130,89,130.57q-5.18.26-10.37.27c-.75,0-5.05.57-5.66-.05-1.27-1.31.3-3.25.9-4.62l18.06-40.8C92.19,84.78,91.33,84.27,91.07,84.86Z"/><path class="cls-2" d="M41.4,78.39,36.15,88.86a32.63,32.63,0,0,1,11.76,8.79,13.15,13.15,0,0,1,3.85-9.15Z"/><path d="M41,78.14,35.72,88.6a.51.51,0,0,0,.18.69A34.63,34.63,0,0,1,47.56,98a.51.51,0,0,0,.86-.36,13.28,13.28,0,0,1,3.7-8.8.51.51,0,0,0,0-.71L41.75,78c-.46-.45-1.17.26-.71.71l5.7,5.56c.86.84,1.76,1.66,2.59,2.53,1.35,1.41,1.54,1.09,1,2.53-.4,1.07-1.41,2.1-1.87,3.2a14.58,14.58,0,0,0-1,5.09l.86-.36a34.74,34.74,0,0,0-8.57-7.19c-2.27-1.33-2.75-1.73-1.48-4.26l3.61-7.19C42.12,78.07,41.26,77.56,41,78.14Z"/><path class="cls-2" d="M57.89,49c-2.29,10-6.31,19.56-10.32,29l1.9.22Q55,64.51,59.85,50.46"/><path d="M57.41,48.91c-2.39,10-6.28,19.47-10.27,28.92a.51.51,0,0,0,.43.76l1.9.22a.51.51,0,0,0,.48-.37q5.5-13.8,10.38-27.84c.21-.61-.76-.87-1-.27q-2.44,7-5,14Q53,67.79,51.7,71.26c-.23.59-2.48,6.28-3,5.35-.35-.67,2.13-5.1,2.47-5.93.91-2.24,1.81-4.5,2.65-6.77a127.33,127.33,0,0,0,4.52-14.73c.15-.63-.82-.9-1-.27Z"/><path class="cls-2" d="M61.68,53.64A62.63,62.63,0,0,1,58.5,64.77L54.33,76.54l2.66.75c.2-2.39,1.44-4.55,2.48-6.72a45.69,45.69,0,0,0,4.06-13.39"/><path d="M61.2,53.51c-1.43,7.85-4.7,15.4-7.35,22.9a.51.51,0,0,0,.35.62l2.66.75a.51.51,0,0,0,.62-.35c.57-3.44,2.46-6.37,3.74-9.57A49.21,49.21,0,0,0,64,57.32c.1-.63-.87-.9-1-.27a49.15,49.15,0,0,1-2.81,10.53c-.19.47-3.44,8.9-4.45,8.85s3-10.88,3.19-11.52a73.17,73.17,0,0,0,3.18-11.13c.12-.63-.85-.9-1-.27Z"/><path class="cls-2" d="M61.9,86.22A2.63,2.63,0,0,0,65,88.49a2.81,2.81,0,0,0,1.56-3.81,2.7,2.7,0,0,0-2.89-.83A2.54,2.54,0,0,0,61.9,86.22Z"/><path d="M61.4,86.22A3.16,3.16,0,0,0,64.13,89a2.93,2.93,0,0,0,3.14-2.62,2.69,2.69,0,0,0-.53-2.29,3.26,3.26,0,0,0-2.14-.9,3.12,3.12,0,0,0-3.2,3,.5.5,0,0,0,1,0c.07-2.65,4.57-2.58,3.84.25a1.92,1.92,0,0,1-1.89,1.58,2.15,2.15,0,0,1-2-1.84C62.34,85.58,61.34,85.57,61.4,86.22Z"/><path class="cls-2" d="M71.21,80.72A1.8,1.8,0,0,0,72,83c1,.57,2.28-.35,2.72-1.1a1,1,0,0,0,.17-.71c-.13-.55-1-.75-1.31-.83S71.73,79.94,71.21,80.72Z"/><path d="M70.78,80.46a2.29,2.29,0,0,0,1,3,2.74,2.74,0,0,0,3.31-1.32c1.29-2.2-3.14-3.25-4.27-1.81-.39.5.31,1.22.71.71s1-.39,1.53-.28,1.33.18,1.24.74-1.13,1.17-1.66,1.16a1.25,1.25,0,0,1-1-1.72C72,80.4,71.09,79.9,70.78,80.46Z"/><path class="cls-2" d="M73.47,82.78a50.65,50.65,0,0,1,9,7.4"/><path d="M73.22,83.21a52.83,52.83,0,0,1,8.88,7.32c.45.46,1.16-.25.71-.71a54,54,0,0,0-9.09-7.48c-.54-.36-1,.51-.51.87Z"/><path class="cls-2" d="M74.39,81.22l9.76,6.86"/><path d="M74.13,81.65l9.76,6.86c.53.37,1-.5.51-.87l-9.76-6.86c-.53-.37-1,.5-.51.87Z"/><path class="cls-2" d="M65.33,88.81a67,67,0,0,0,11.11,11"/><path d="M65,89.17a70.21,70.21,0,0,0,11.11,11c.5.4,1.22-.31.71-.71a70.21,70.21,0,0,1-11.11-11c-.4-.5-1.11.21-.71.71Z"/><path class="cls-2" d="M66.41,87.48a69.22,69.22,0,0,0,11.57,9"/><path d="M66.06,87.84a73.68,73.68,0,0,0,11.67,9.1c.55.35,1.05-.52.51-.87a72.41,72.41,0,0,1-11.47-8.95c-.47-.45-1.18.26-.71.71Z"/><path class="cls-2" d="M94.18,113.43a2.58,2.58,0,0,1-2.25-2.58,3.68,3.68,0,0,1,1.92-3,6.61,6.61,0,0,1,3.64-.73,3.12,3.12,0,0,1,1.71.47,2.72,2.72,0,0,1,.92,1.46,5.51,5.51,0,0,1-.77,4.69,2.63,2.63,0,0,0-.53.94,2.11,2.11,0,0,0,0,.64l.77,7.13-4.93.51a.53.53,0,0,1-.7-.68l.47-8.23"/><path d="M94.31,112.94q-2.53-5.35,2.24-5.37h.95c5,1.81,1.72,4.34,1.1,6.31-.45,1.45-.12,2.82,0,4.36.11,1,.66,2.56,0,3.38s-2.63.82-3.45.05c-1.37-1.28-.39-5.8-.28-7.67,0-.65-1-.64-1,0-.16,2.78-1,6.23-.31,8.94a.49.49,0,0,0,.35.35c1.78.32,3.85-.21,5.63-.4.25,0,.53-.21.5-.5-.23-2.13-1.08-5-.77-7.13.22-1.5,1.34-2.59,1.48-4.2.2-2.15-.62-4.09-2.86-4.45-2.4-.39-5.5.59-6.33,3.11A3.19,3.19,0,0,0,94,113.91c.63.15.9-.82.27-1Z"/><path class="cls-2" d="M60.22,35.47a246.76,246.76,0,0,0,37-2.43c6.07-.86,11.83-1.91,17.26-3.08a74.74,74.74,0,0,0-19.6,14.21,7.55,7.55,0,0,1-3.21,2.47c-2.64.91-5.28-.35-6.31-.82C81,43.8,72.12,40.25,60.22,35.47Z"/><path d="M60.22,36a253.56,253.56,0,0,0,30.36-1.58q7.42-.85,14.78-2.14c1.51-.27,6.77-.42,7.62-1.46.57-.7-1.81.36-1.81.36a29.85,29.85,0,0,0-3.72,2.24A75.93,75.93,0,0,0,97,41.4c-2.65,2.43-2.92,3.42-6.59,4.12-3.28.62-4.32.06-7.08-1.15C75.77,41.05,68,38.07,60.35,35c-.6-.24-.86.73-.27,1,5.76,2.31,11.52,4.6,17.25,7,3.39,1.4,7.43,4,11.14,4.45s5.54-1.65,8-4.06a75.3,75.3,0,0,1,18.26-12.91c.53-.27.15-1-.39-.92A253.21,253.21,0,0,1,60.22,35,.5.5,0,0,0,60.22,36Z"/><path class="cls-2" d="M61.52,38.13,75.77,56.65,88.66,73.41A82.57,82.57,0,0,1,87.36,56a2.82,2.82,0,0,0-.27-1.73,2.45,2.45,0,0,0-1.1-.94C84.78,52.81,75.26,46.84,61.52,38.13Z"/><path d="M61.09,38.38,88.23,73.66a.5.5,0,0,0,.92-.39,88.25,88.25,0,0,1-1.26-11.42c-.07-1.94.48-4.8,0-6.63S86.3,53,84.79,52.12c-7.8-4.59-15.38-9.59-23-14.43-.55-.35-1.05.52-.51.87q8.45,5.36,16.92,10.68c2.17,1.35,5.65,2.69,7.44,4.53,2.27,2.33,1.22,8.9,1.49,12,.25,2.85.68,5.42,1.74,7.13C87.28,70.3,85.1,68,83.27,65.58L62,37.87C61.57,37.37,60.69,37.87,61.09,38.38Z"/><path class="cls-2" d="M91.59,73.44q1.26-2.7,2.67-5.44a163.58,163.58,0,0,1,22.59-33.07c-4.34,1.15-8.06,3.89-11.66,6.58l-11.11,8.3a2.23,2.23,0,0,0-.81.83,2.08,2.08,0,0,0-.19,1.15C93.15,52.73,92.57,60.92,91.59,73.44Z"/><path d="M92,73.69a168.07,168.07,0,0,1,25.19-38.4c.31-.36,0-1-.49-.84-5.69,1.78-10.24,5.48-15,9-2.59,1.93-7.85,4.28-9.08,7.42-.61,1.56-.24,4.1-.34,5.74-.37,5.61-.82,11.22-1.25,16.82-.05.64,1,.64,1,0,.52-6.66.6-13.49,1.45-20.12.44-3.45,2.79-4.56,5.55-6.63,3.69-2.75,7.29-5.7,11.19-8.16.79-.5,5-3,5.17-2.75s-3.81,4.58-4.16,5q-3.49,4.38-6.67,9A165.57,165.57,0,0,0,91.15,73.19C90.88,73.77,91.74,74.28,92,73.69Z"/><path class="cls-3" d="M47.2,93.81l20.28,21.61c6,6.35,11.64,13.4,18.34,19,4.32,3.6,9.55,6.34,15.31,5.44,5.12-.8,9.54-4.08,10.58-9.31.42-2.1-2.8-3-3.22-.89-1.5,7.54-10.53,8.25-16.23,5.21-5.4-2.88-9.51-8-13.63-12.43l-29.07-31c-1.47-1.57-3.83.79-2.36,2.36Z"/><path d="M48,93.95c7.94,4.84,12.32,13.72,18,20.81s11.89,14.08,19.07,19.55c4.9,3.73,11,6.74,17.3,5.35,5.1-1.12,9.32-4.63,10.24-9.88.11-.63-.86-.9-1-.27-1.55,8.83-11.64,11-18.91,8.1s-12.9-9-18.1-14.48a159.12,159.12,0,0,1-14-17.19c-3.49-4.91-6.93-9.69-12.17-12.87-.55-.34-1.06.53-.51.87Z"/><path d="M50.12,92c6.12,4.71,10.17,12,15.12,17.81a179,179,0,0,0,17,17.56c5.92,5.32,18.12,14.12,23.9,3.52.31-.57-.56-1.08-.87-.51C94.13,150.85,58.48,97.14,50.63,91.1c-.51-.39-1,.48-.51.87Z"/></g></g></svg>