<svg xmlns="http://www.w3.org/2000/svg" viewBox="0 0 158 169"><defs><style>.cls-1{fill:#5995da;}.cls-2{fill:#fff;}.cls-3{fill:#f9fafb;}.cls-4{fill:#5d94cf;}</style></defs><title>bluecat</title><g id="Layer_2" data-name="Layer 2"><g id="Layer_12" data-name="Layer 12"><rect class="cls-1" width="158" height="169" rx="12" ry="12"/><path class="cls-2" d="M106.48,138.54c-.09-6,7.23-11.28,11.36-14.75,3.76-3.15,5.64-6.67,7.23-11.28.69-2-2.49-2.87-3.18-.88-1.29,3.75-2.77,6.77-5.83,9.37a79.51,79.51,0,0,0-6.57,5.94c-3.08,3.26-6.37,6.89-6.3,11.6,0,2.12,3.33,2.12,3.3,0Z"/><path class="cls-2" d="M114.87,92.13a5.43,5.43,0,0,0-6.65,3.57,7,7,0,0,0,3.09,7.56c2.37,1.21,6.13-.29,7.42-2.55,1.49-2.6-.1-5.46-2.43-6.84a1.65,1.65,0,0,0-1.66,2.85c.82.48,1.91,1.51,1.12,2.52-.61.78-2.37,1.48-3.17.92-2-1.39-1.62-5.6,1.41-4.86,2.06.5,2.94-2.67.88-3.18Z"/><path class="cls-2" d="M44.93,117a21.69,21.69,0,0,0,14.34,7.16c2.11.2,2.1-3.09,0-3.3a18.3,18.3,0,0,1-12-6.2c-1.41-1.59-3.74.75-2.33,2.33Z"/><path class="cls-3" d="M57.72,113.15C29.36,99.26,24,60.85,46.05,38.81c10.7-10.68,25.43-19.43,41.08-17.44,21.5,2.74,31.73,21.61,33.2,24.4,12.56,23.79-1.33,47.88-2.2,49.33"/><path d="M57.94,112.77C30,98.6,24.72,60.39,46.93,38.57,60.64,25.09,80.36,16.41,99,25.29a47.53,47.53,0,0,1,21.85,22.4c6.93,14.73,5.17,33.25-3.05,47.18a.44.44,0,0,0,.76.45c13.92-23.57,7.64-55.94-16.83-69.61C70.39,8.24,31.15,40,32,73.12A46.51,46.51,0,0,0,57.5,113.53c.5.26,1-.5.45-.76Z"/><path class="cls-3" d="M103.24,99.29a4.58,4.58,0,0,0,.25,1.83,1.81,1.81,0,0,0,3.46,0,7.26,7.26,0,0,1,.49-1.15l-3.28-.43a11.47,11.47,0,0,0,.56,2.32,1.81,1.81,0,0,0,3.53-.48,12.72,12.72,0,0,1,.55-2.29h-3.46a30.33,30.33,0,0,0,.76,3.81,1.81,1.81,0,0,0,3.53-.48l.41-3.36-3.53.48c.43,1.74.11,3.55.72,5.27l1.73-2.27H109c-1.06-1.58-4.08-.62-3.28,1.38.49,1.24,1.11,3,2.59,3.26,1.74.33,2.47-1.42,3.23-2.64a1.84,1.84,0,0,0-.64-2.46l-.51-.39c-1.85-1.39-3.64,1.73-1.81,3.1l.51.39-.64-2.46a9.2,9.2,0,0,1-.92,1.45l1.75-.46q.56.35.24-.07a4.42,4.42,0,0,1-.32-.68l-3.28,1.38a3.66,3.66,0,0,0,3,1.79,1.81,1.81,0,0,0,1.73-2.27c-.6-1.68-.29-3.54-.72-5.27-.53-2.12-3.3-1.4-3.53.48l-.41,3.36,3.53-.48a30.55,30.55,0,0,1-.76-3.81,1.81,1.81,0,0,0-3.46,0,17.65,17.65,0,0,0-.68,3.24l3.53-.48a11.48,11.48,0,0,1-.56-2.32c-.24-1.54-2.6-1.72-3.28-.43a13.17,13.17,0,0,0-.85,2H107a1.13,1.13,0,0,1-.12-.88c.14-2.31-3.45-2.3-3.59,0Z"/><path class="cls-4" d="M56.81,86.23a12.18,12.18,0,0,1,.31-14.39c1.24-1.73-1.62-3.37-2.85-1.66A15.35,15.35,0,0,0,54,87.89c1.17,1.76,4,.11,2.85-1.66Z"/><path class="cls-3" d="M66.37,138.46c4.36-4.45,5.78-9.41,4-12-1-1.43-3.24-2.57-5-2-1.52.49-2.05,2.07-3,4-1.24,2.52-4.6,9.35-9,10a6.14,6.14,0,0,1-6-3c-.95-1.82-.35-3.82,0-5,.55-1.83,1.48-2.74,4-6,1.91-2.47,2.87-3.71,4-5,6.11-7,8.69-6.53,11.3-11.36a13.32,13.32,0,0,0,1.87-7.53,12.15,12.15,0,0,0-2-5.56c-2.67-4.18-5.32-7.53-5.67-12.7-.34-4.89,1-9.78,2.68-14.33.88-2.38,4.21-12.44,6.76-12.07,1.7.25.78,4.81,4.32,8,2.39,2.15,6.6,3.47,9.93,2.22,1.66-.62,1.95-1.45,8.75-6.69.81-.63,2-1.55,3-1.15s1.28,1.91,1.41,2.88c.62,4.58.93,6.88-.93,11.88-2.73,7.35,9.62,31.59,11.19,34.74,4.12,8.28,8,21,6,40.11"/><path d="M66.68,138.77c2.73-3,9.15-14.86-.09-14.88-3,0-3.77,2.72-4.92,5A35.93,35.93,0,0,1,59,133.45a12.27,12.27,0,0,1-3.08,3.29c-4.29,2.83-9.66-3.31-7.6-7.48,1.89-3.84,5.66-7.77,8.6-10.87,2.77-2.93,6.57-5,9-8.28A14.5,14.5,0,0,0,69,100.57c-.42-5.31-4.8-9-6.57-13.8-2.44-6.64-.27-13.53,2-19.89.71-1.93,1.41-3.87,2.27-5.74,1-2.17,2.51-5.92,4.54-2.72.92,1.46.89,3.17,2,4.65a10.29,10.29,0,0,0,4.47,3.19,9.59,9.59,0,0,0,7.76-.07c2.45-1.26,4.54-3.64,6.68-5.31,8.16-6.32,4.81,9.21,4.07,12.62-1.34,6.17,2.13,13.59,4.37,19.15,2.48,6.14,5.62,11.94,8.26,18,5.12,11.73,5.89,24.67,4.68,37.27-.05.56.83.56.88,0,1.06-11,.65-22.1-2.84-32.62-1.94-5.84-5-11.22-7.53-16.82-3.05-6.77-8.57-17-7-24.74.53-2.57,4.28-16.84-2-15.85-3.51.55-6.4,5.23-9.36,7.1a9.27,9.27,0,0,1-12.92-4.67c-.44-1-.53-2.94-1.24-3.79-3.17-3.77-6.12,5.16-7,7.39-3.88,10-6.14,19.09-.16,28.6,2.53,4,4.67,7.46,3.11,12.49A15.26,15.26,0,0,1,64,110.93c-3.35,3.46-7.23,6-10.33,9.82-2.45,3-6.21,6.63-7,10.61-.76,3.63,1.25,7.09,5.18,7.53,3.51.39,6.08-2.36,7.94-5,1.16-1.64,1.86-3.57,3-5.21,2.07-3.07,7.63-6,7.93.67.15,3.3-2.58,6.55-4.62,8.8-.38.42.24,1,.62.62Z"/><path d="M90.44,111.9c-1.88,5-5.66,9.14-5.94,14.72-.18,3.54.67,8.31,3.54,10.72,2,1.69,4.35,1.65,5.94-.51,1-1.38,1.16-3.34,1.57-4.93,1-4,2.42-7.53,6-9.84.48-.31,0-1.07-.45-.76a12.46,12.46,0,0,0-4.56,5c-1.13,2.2-1.05,5.32-2.3,7.29q-.65,4.07-7.28.88a15.56,15.56,0,0,1-1.6-6.19A16.51,16.51,0,0,1,87,120.55c1.33-2.88,3.17-5.42,4.29-8.41.2-.53-.65-.76-.85-.23Z"/><path d="M111.87,102.64q-1.37,1.57-2.85,3a.44.44,0,0,0,.62.62q1.48-1.46,2.85-3c.37-.43-.25-1.05-.62-.62Z"/><path class="cls-4" d="M60.85,35.29c-2.92.27-5.14,2.68-6.88,5a65.21,65.21,0,0,0-8,14.24,1.13,1.13,0,0,0-.07,1c.38.6,1.29,0,1.73-.52l13-16.79c.79-1,1.56-2.61.58-3.46"/><path d="M60.74,34.86c-5.45,1.08-8.67,7.05-11.21,11.47C48.84,47.53,44,54.74,46,56.08s8.07-8.56,9-9.76c2-2.59,4.27-5.11,6.07-7.84.9-1.37,1.42-2.43.58-3.91a.44.44,0,0,0-.76.45c1.38,2.42-5.91,9.91-7.51,12-.64.82-6,8.54-6.92,7.7-.69-.6,4.91-9.7,5.4-10.46,2.24-3.52,4.73-7.65,9.14-8.52.56-.11.32-1-.23-.85Z"/><path d="M69.35,62.47a8.34,8.34,0,0,0-1.48,4.15c0,.57.84.56.88,0a7.45,7.45,0,0,1,1.36-3.71c.33-.47-.44-.91-.76-.45Z"/><path d="M91.37,64.63a7.2,7.2,0,0,1,3-1.72.44.44,0,0,0-.23-.85A8.16,8.16,0,0,0,90.75,64c-.41.39.21,1,.62.62Z"/><path d="M71.46,76a2.39,2.39,0,0,0-1.2,3.92,2.58,2.58,0,1,0,1.86-4.43,2.07,2.07,0,0,0-1.46,3.32c1.26,1.4,3.63-.3,2.81-2-.36-.73-1.45-.09-1.09.64.25.51-1.32.94-.83-.25s1.79-.19,1.87.66a1.35,1.35,0,0,1-1.93,1.38,1.11,1.11,0,0,1,.31-2.06c.79-.19.45-1.4-.33-1.21Z"/><path d="M75.87,83.65l1.47,1.13a.44.44,0,0,0,.45,0c.54-.26,1.32-.95.87-1.57a1.7,1.7,0,0,0-1.8-.59.44.44,0,0,0,.23.85.81.81,0,0,1,.92.35v-.45a1.36,1.36,0,0,1-.66.65h.45l-1.47-1.13c-.45-.35-.89.42-.45.76Z"/><path d="M68.32,83.4l3.87.35c.56.05.56-.83,0-.88l-3.87-.35c-.56-.05-.56.83,0,.88Z"/><path d="M68,87.2a4.84,4.84,0,0,1,3.56-1.07c.57,0,.56-.83,0-.88a5.73,5.73,0,0,0-4.19,1.32c-.44.36.19,1,.62.62Z"/><path d="M82.51,83.71l2.38.36c.56.08.79-.76.23-.85l-2.38-.36c-.56-.08-.79.76-.23.85Z"/><path d="M82.75,86a9.56,9.56,0,0,1,2.48,1.88c.39.41,1-.21.62-.62a10.31,10.31,0,0,0-2.66-2c-.5-.26-.95.5-.45.76Z"/><path d="M76.66,89.12a.44.44,0,0,0,0-.88.44.44,0,0,0,0,.88Z"/><path class="cls-4" d="M42.39,59.47a2.3,2.3,0,0,0-.06,2.61,2.53,2.53,0,0,0,1.25-1.22A1.1,1.1,0,0,0,43,59.42"/><path d="M42,59.25A2.77,2.77,0,0,0,42,62.31a.45.45,0,0,0,.6.16,2.61,2.61,0,0,0,1.53-1.84,1.51,1.51,0,0,0-1-1.63c-.54-.18-.77.67-.23.85.39.13.42.63.28,1a2.21,2.21,0,0,1-1,.91l.6.16a1.9,1.9,0,0,1,.06-2.17c.32-.47-.44-.91-.76-.45Z"/><path class="cls-4" d="M45.33,62.13c-.6.71-.14,1.78.33,2.58a.73.73,0,0,0,.37.37c.3.09.56-.22.68-.51a2.87,2.87,0,0,0-.39-2.78"/><path d="M45,61.91a2.22,2.22,0,0,0-.09,2.19c.23.57.62,1.56,1.4,1.43s1-1,1.06-1.62a3.34,3.34,0,0,0-.62-2.34c-.33-.46-1.09,0-.76.45a2.66,2.66,0,0,1,.5,1.14,1.88,1.88,0,0,1-.14,1.24c-.18.21-.21.1-.36-.08a2.78,2.78,0,0,1-.31-.65,1.32,1.32,0,0,1,.08-1.31c.33-.46-.43-.9-.76-.45Z"/><path class="cls-3" d="M113.4,103.05a4.63,4.63,0,0,1-2.77-1.37A4.52,4.52,0,0,1,114.88,94c2.5.53,5.06,3.12,4.41,5.77C118.69,102.25,115.61,103.37,113.4,103.05Z"/><path d="M113.51,102.63c-5.44-.85-4.45-9.22,1.15-8.22,2.27.4,4.79,2.75,4.2,5.25s-3.36,3.18-5.47,3c-.56-.06-.56.82,0,.88,2.69.27,6-1.1,6.41-4.11s-2.41-5.43-5.07-5.86a4.79,4.79,0,0,0-5.77,4,5.2,5.2,0,0,0,4.32,5.92C113.83,103.57,114.07,102.72,113.51,102.63Z"/><path class="cls-4" d="M114.87,95.09a3.62,3.62,0,0,0-3.46,1.86,3.08,3.08,0,0,0,.8,3.75,2.68,2.68,0,0,0,3.69-.55,3.58,3.58,0,0,0-.06-3.55,2.61,2.61,0,0,0-.7-.93,1.67,1.67,0,0,0-1.74-.15"/><path d="M114.87,94.64a3.94,3.94,0,0,0-4.18,3.15,3.27,3.27,0,0,0,2.8,3.83c5,.44,3.61-8-.21-6.52-.52.21-.29,1.06.23.85,2.8-1.11,3.52,6-.45,4.7a2.5,2.5,0,0,1-1.44-3,3.13,3.13,0,0,1,3.25-2.09c.57,0,.57-.86,0-.88Z"/><path class="cls-4" d="M76.54,111.07a4.19,4.19,0,0,0-2.86,4.68,5,5,0,0,0,4.12,3.86,6.15,6.15,0,0,0,5.39-2.09,5,5,0,0,0,1-1.74,4.65,4.65,0,0,0-2.66-5.37,6.71,6.71,0,0,0-6.25.74"/><path d="M76.42,110.65a4.67,4.67,0,0,0-2.75,6.46,5.78,5.78,0,0,0,8.11,2.12c2.75-1.57,4-4.78,2.06-7.49-2.09-2.89-6-2.6-8.74-1a.44.44,0,0,0,.45.76c2.15-1.27,5.08-1.8,7.07.11s1.55,4.68-.58,6.34a5.07,5.07,0,0,1-6.59,0,3.82,3.82,0,0,1,1.22-6.5c.53-.19.3-1-.23-.85Z"/><path d="M75.62,113.22l.52,4.57c.06.56.95.56.88,0l-.52-4.57c-.06-.56-.95-.56-.88,0Z"/><path d="M76.39,115.32,78.23,114c.46-.32,0-1.09-.45-.76l-1.85,1.29c-.46.32,0,1.09.45.76Z"/><path d="M77.31,111.68q.83,3.41,1.51,6.85c.11.56,1,.32.85-.23q-.68-3.44-1.51-6.85c-.13-.55-1-.32-.85.23Z"/><path d="M79,112.09l.73,4.77c.09.56.94.32.85-.23l-.73-4.77c-.09-.56-.94-.32-.85.23Z"/><path d="M79.43,112.53c1-.12,2.88.37,2.14,1.79-.44.85-1.34,1.39-1.82,2.23a.44.44,0,0,0,.76.45c.68-1.17,2.37-2,2.08-3.6-.26-1.4-1.91-1.9-3.15-1.75-.56.07-.56.95,0,.88Z"/><path d="M84.06,76.84a2.39,2.39,0,0,0-1.2,3.92,2.58,2.58,0,1,0,1.86-4.43,2.07,2.07,0,0,0-1.46,3.32c1.26,1.4,3.63-.3,2.81-2-.36-.73-1.45-.09-1.09.64.25.51-1.32.94-.83-.25s1.79-.19,1.87.66a1.35,1.35,0,0,1-1.93,1.38,1.11,1.11,0,0,1,.31-2.06c.79-.19.45-1.4-.33-1.21Z"/><path d="M45.81,113.68c2.32,3.07,6.82,5.39,10.34,6.76,1,.4,2.38.47,3.33,1l1.27.17q1.14,3.19-2.1,1.69A25.71,25.71,0,0,1,50,120a.44.44,0,0,0-.45.76c1.74,1,13.84,6.66,14.18,2,.16-2.12-2.82-2-4.06-2.25-4.17-.76-10.5-3.84-13.14-7.32-.34-.45-1.1,0-.76.45Z"/><path d="M104.6,137.57c-.64-2.66,2.48-7.17,3.87-9.27a48.19,48.19,0,0,1,6.18-7.32c2.86-2.89,4.51-5.49,4.8-9.63,0-.57-.84-.56-.88,0-.49,6.81-6.78,10.58-10.39,15.82-1.9,2.75-5.28,7.09-4.43,10.63.13.55,1,.32.85-.23Z"/><path d="M58.53,69.48a23.4,23.4,0,0,0-3,17.19c.11.56,1,.32.85-.23a22.44,22.44,0,0,1,2.92-16.52c.3-.49-.47-.93-.76-.45Z"/></g></g></svg>