<svg xmlns="http://www.w3.org/2000/svg" viewBox="0 0 158 169"><defs><style>.cls-1{fill:#5d94cf;}.cls-2{fill:#f9fafb;}.cls-3{fill:#5995da;}</style></defs><title>bluepaw</title><g id="Layer_2" data-name="Layer 2"><g id="homepage"><rect class="cls-1" width="158" height="169" rx="12" ry="12"/><path class="cls-2" d="M54.81,44.7C45.74,44.17,37,52,34.32,60.44c-.6,1.89-2.55,7.53.46,10.81,1.63,1.77,4.13,2.41,6.51,2.84,5.71,1,12.29,1.09,16.52-2.88A19.18,19.18,0,0,0,61,67c1.49-2.49,3.32-5.25,3.9-9,.34-2.21,1-6.35-1.49-9.52C60.78,45.05,56.24,44.79,54.81,44.7Z"/><path d="M54.81,44.2c-9.68-.1-18,7.17-21,16.1-1,3.1-2,7.13-.25,10.15,2.21,3.75,7.45,4.3,11.36,4.61C55.46,75.91,63,69.12,65.2,58.86c1.73-8.09-1.94-14.1-10.39-14.66-.65,0-.64,1,0,1,8.66.57,11.46,8.1,8.82,15.62a27.55,27.55,0,0,1-6.18,10c-3.39,3.12-8.14,3.56-12.51,3.21-5.09-.41-11.3-1.63-11.27-8.12a20.9,20.9,0,0,1,2.46-8.53c3.57-7,10.65-12.3,18.69-12.21A.5.5,0,0,0,54.81,44.2Z"/><path class="cls-2" d="M92.29,33.86c-4.82-.71-8.48,1.81-10.38,3.11-2.84,2-4.22,4.18-7.12,8.56-2.36,3.56-4.69,7.29-5.44,11.5s.42,9,3.93,11.47a11.9,11.9,0,0,0,6.67,1.86A16.79,16.79,0,0,0,93,64.7a29,29,0,0,0,4.2-7.91l4.5-11.14a6.2,6.2,0,0,0,.74-2.85c0-.5-.15-2-2-4.1A13.4,13.4,0,0,0,92.29,33.86Z"/><path d="M92.29,33.36C74.65,32,56.93,70.5,79.95,70.86c12.54.2,16.34-10.49,20.3-20.3,1.5-3.7,3.9-7.16,1.53-10.91a14.52,14.52,0,0,0-9.35-6.27c-.63-.13-.9.83-.27,1a13.5,13.5,0,0,1,8.75,5.81c2,3.32-.34,6.92-1.63,10.14-3.56,8.82-6.71,18.76-17.86,19.53-6.27.43-11.64-3.16-11.78-9.93-.1-4.69,2.26-8.92,4.71-12.76,4.23-6.64,9.13-13.47,17.94-12.77C92.94,34.41,92.93,33.41,92.29,33.36Z"/><path class="cls-2" d="M116.38,53.77c-4.29-1-8,1.16-10.23,2.47a23.79,23.79,0,0,0-7.56,7.56c-2.17,3-4,6.44-4.44,10.15s.84,7.78,3.87,10c2.8,2,6.53,2.11,10,1.77a29.51,29.51,0,0,0,11.71-3.37c2.32-1.32,6.37-4.08,7.78-9.12,2.24-8-4.34-14.82-5.3-15.78A11.92,11.92,0,0,0,116.38,53.77Z"/><path d="M116.51,53.28C106.8,51.8,98.4,60.84,95,69.09c-3.88,9.3,1.34,17.68,11.53,17.2,8.82-.42,20.32-4.54,21.8-14.59,1.11-7.51-4.69-16.08-11.77-18.42-.62-.2-.88.77-.27,1,5.8,1.92,10.69,8.51,11.14,14.6.68,9.18-8.27,14.36-16.07,15.85-4.7.9-10.13,1.32-14-2-4.65-4-2.59-11.46-.05-15.91,3.77-6.61,10.62-13.76,19-12.49C116.88,54.35,117.15,53.38,116.51,53.28Z"/><path class="cls-2" d="M97.16,93.72c-1.75,1.49-2,3.66-2.41,7.64-.92,9.48-1.3,14.2-.56,15.53,3.07,5.52,10.86,6.78,16.75,4.5s10.32-7.14,14.6-11.77c2-2.13,4-4.44,4.42-7.31.49-3.82-2.35-7.44-5.82-9.1-2.87-1.37-5.58-1.72-11.3-1.85A57.74,57.74,0,0,0,104,92C98.79,92.62,97.84,93.14,97.16,93.72Z"/><path d="M96.81,93.36C93.4,96.87,94,103.44,93.64,108c-.27,3.26-1.19,7.35.79,10.24,6.24,9.1,19.09,3.67,25.35-2,3.65-3.29,10-8.48,10.66-13.77.59-4.61-3-8.45-7-10.09-4.62-1.9-10.33-1.74-15.22-1.33-3.43.29-8.54.08-11.42,2.33-.51.4.21,1.1.71.71,2.63-2.06,7.52-1.76,10.71-2A43.7,43.7,0,0,1,120,92.4c6.34,1.22,12.07,6.78,7.92,13.59-2.12,3.48-5.82,6.8-8.84,9.51-3.69,3.31-8,6.17-13.12,6.44-4.1.22-10.18-1.38-11.51-5.9-.7-2.39,0-5.68.2-8.09.34-4.16-.19-10.73,2.87-13.88C98,93.61,97.26,92.9,96.81,93.36Z"/><path class="cls-2" d="M28,98.35a29.93,29.93,0,0,1,1.49-8A13,13,0,0,1,31.58,86a12.23,12.23,0,0,1,4.11-3.16c5.08-2.61,10.92-3.18,16.61-3.71l15.63-1.44c3.56-.33,7.21-.65,10.68.21s6.8,3.16,7.91,6.57C88,89,85.35,93.65,84.94,98.33c-.48,5.49,2.12,10.71,3.89,15.93s2.57,11.53-.93,15.79-9.45,4.69-14.82,4.91c-5.21.21-12.63,1.31-20.24-2.64-3-1.57-4.86-3.32-8.41-6.75C41.78,123,27.73,109.45,28,98.35Z"/><path d="M28.49,98.35c.19-3.74.92-8.53,3.2-11.63,2.76-3.75,7.86-5.15,12.21-6,8.89-1.76,18.55-2.4,27.61-2.78,5-.21,11.47.47,14.06,5.59,2.43,4.8-.76,10-1.13,14.8-.55,7.29,3.88,13.54,5.07,20.52,1.05,6.2-.79,12-7.14,14.27-3.37,1.19-7,1.22-10.53,1.41-9.38.5-17.47-.4-24.66-7-8-7.4-18.46-17.56-18.68-29.15a.5.5,0,0,0-1,0c.2,10.75,9,20.19,16.29,27.28,5.14,5,10.15,8.83,17.51,9.83a55.07,55.07,0,0,0,20.07-1c18.92-5,2.53-26,4.28-37.57.92-6.07,4-12.35-1.83-17-6-4.79-14.8-2.79-21.74-2.15-8.79.81-19.29.5-27.2,5-5.54,3.15-7.07,9.59-7.38,15.6C27.45,99,28.45,99,28.49,98.35Z"/><path class="cls-3" d="M35.76,115.39a14.16,14.16,0,0,1,10.54-2.09c2.05.4,2.93-2.74.87-3.14a17.54,17.54,0,0,0-13,2.42c-1.76,1.13-.13,4,1.65,2.82Z"/><path class="cls-3" d="M54.13,114.6c4.86-2.59,8.75-7.09,12.75-10.8,2-1.83,4.74-3.68,6.29-5.88.32-.45.54-1,.84-1.4l.06-.43q-.32-2.51,2.68-3c.45-2-2.7-2.92-3.14-.87-.58,2.68.38,6.28,3.87,5.07a1.64,1.64,0,0,0,1.14-1.14c.43-2.28.7-5.15-1.62-6.58a3.91,3.91,0,0,0-5.45,1.82c-.81,1.56-.31,3.25-1.26,4.78-1.19,1.91-4.08,3.78-5.71,5.3-3.78,3.51-7.51,7.85-12.09,10.29-1.85,1-.21,3.8,1.65,2.82Z"/><path class="cls-3" d="M50.5,129.81a7.41,7.41,0,0,0,1.4-8.63c-.91-1.89-3.73-.24-2.82,1.65a4.12,4.12,0,0,1-.89,4.68c-1.5,1.47.8,3.77,2.31,2.31Z"/><path class="cls-3" d="M51.1,114.79c0-2.27-.22-4.66,0-6.93.35-3.94,2.29-5.31,4.86-7.73a22.28,22.28,0,0,0,3.61-3.74c.47-.72.84-3.64,1-3.77l2-.25L61.76,92c-1.9-.84-3.56,2-1.65,2.82l.76.33a1.72,1.72,0,0,0,2-.25c4-3.6-2-8.59-5-4.06a16.78,16.78,0,0,0-1,2.69,9,9,0,0,1-2.72,3.78c-1.68,1.6-3.76,3.14-5.06,5.09-2.26,3.4-1.27,8.53-1.26,12.37a1.63,1.63,0,0,0,3.26,0Z"/><path class="cls-3" d="M43.86,123.48c4.24-5.33,9.11-4.68,15.23-4.79,4.1-.08,7-1.71,10.11-4.21,1.64-1.3-.68-3.6-2.31-2.31-5.39,4.28-10,2.25-16.06,3.31a15.07,15.07,0,0,0-9.29,5.7c-1.29,1.63,1,3.95,2.31,2.31Z"/><path class="cls-3" d="M69.93,111.86c-.15-1.42-.39-3.05,1-4a4.09,4.09,0,0,1,3.6-.47c1.55.78.77,2.58-.12,3.55a4,4,0,0,1-4.46,1.19c-1.58-.53-2.25,2-.69,2.49a6.63,6.63,0,0,0,7.28-2.2c1.55-1.82,2.12-4.66.3-6.52s-4.58-1.5-6.63-.55c-2.67,1.24-3.11,3.79-2.82,6.48.18,1.63,2.76,1.65,2.58,0Z"/><path d="M35,114.19c1.55-2.07,3-2.62,5.55-2.62h5.37a.5.5,0,0,0,0-1H41.77a15.52,15.52,0,0,0-4.07.09,8.23,8.23,0,0,0-3.58,3c-.39.52.48,1,.87.51Z"/><path d="M35.81,116.48c1.5-1.25,2.73-2.52,4.81-2.51H46a.5.5,0,0,0,0-1H42.28a13.28,13.28,0,0,0-3.6.08c-1.34.41-2.53,1.85-3.58,2.73-.5.41.22,1.12.71.71Z"/><path d="M49.35,116.24c-.39-3.26-2.49-9.82-.44-12.73,2.39-3.41,6.4-6.43,9.31-9.39.45-.46-.26-1.17-.71-.71q-3.4,3.46-6.82,6.91c-.89.89-2.4,1.92-3,3-1.82,3.17.29,9.6.68,12.89.08.63,1.08.64,1,0Z"/><path d="M51.32,116.1c-.49-3.18-2.44-8.5-.49-11.35,2.19-3.21,5.55-6,8.14-8.93.43-.48-.28-1.19-.71-.71-2.21,2.46-4.42,4.92-6.67,7.35a13.27,13.27,0,0,0-2.26,2.48c-1.46,2.88.57,8.53,1,11.42.1.64,1.07.37,1-.27Z"/><path d="M58.66,93.17a2.59,2.59,0,0,1,1.81-3.65,2.52,2.52,0,0,1,3.23,1.64c.59,1.27.42,3.16-1.11,3.71-1.09.39-2.46-.05-3.59.06-.64.06-.64,1.07,0,1,1.87-.19,4,.61,5.32-1.15a4.22,4.22,0,0,0-.41-5.16c-1.2-1.54-2.7-1.6-4.44-.79-1.93.9-2.41,2.68-1.78,4.6.2.61,1.17.35,1-.27Z"/><path d="M71.24,95c-.2-2.18-.1-4.4,2.48-5,2-.43,3.84.05,4.62,2.14.37,1,1,4.59-.37,5.27s-3.94.18-5.1-.58c-.48-.32-.93.46-.45.77a5.85,5.85,0,0,0,3.39.9,5.81,5.81,0,0,0,3-.5c.83-.6.83-1.69.83-2.62a9,9,0,0,0-.77-4.23c-1.16-2.18-3.4-2.51-5.64-2-2.81.69-3.12,3.25-2.88,5.75.05.57.95.57.89,0Z"/><path d="M53.25,112.79c3.11-2,5.55-5.32,8.14-7.91q4.9-4.92,9.95-9.68c.42-.4-.21-1-.63-.63q-4.56,4.32-9,8.75c-2.8,2.79-5.54,6.59-8.89,8.71-.49.31,0,1.08.45.77Z"/><path d="M52.44,115.27c3.85-.05,5.93-3.35,8.37-5.93,3.68-3.9,7.56-7.6,11.58-11.15.43-.38-.2-1-.63-.63-3,2.62-5.87,5.32-8.66,8.13s-6.46,8.62-10.66,8.68a.45.45,0,0,0,0,.89Z"/><path d="M42.34,123.2c2.2-2.13,4.24-4.48,7.31-5s6.69.17,9.81,0c3.8-.17,5.52-2.72,8.26-5.28.47-.44-.24-1.15-.71-.71-2.86,2.67-5.41,4.54-9.51,5-2.86.31-6-.56-8.83,0-3,.57-4.86,3.23-7,5.33-.47.45.25,1.16.71.71Z"/><path d="M44.22,125.08a27.3,27.3,0,0,1,3.19-3.25c1.77-1.24,3.7-1.12,5.79-1.23,2.82-.14,6.83.71,9.55-.08s4.6-4.45,6.76-6.51c.47-.45-.24-1.16-.71-.71-1.36,1.3-2.71,3.44-4.18,4.52-3.23,2.38-7.63,1.74-11.41,1.77-5.48,0-5.68.69-9.69,4.77-.45.46.26,1.17.71.71Z"/><path d="M68.22,112.21c-.8-1.71-1.6-3.49-.11-5.22a7.08,7.08,0,0,1,3.26-1.88c2.41-.69,4.85-.13,5.76,2.39,1.75,4.86-3.61,8.61-7.88,6.42-.57-.29-1.08.57-.51.87a6.74,6.74,0,0,0,7.85-1,6.39,6.39,0,0,0,.79-8c-1.79-2.51-5.13-2.35-7.68-1.12-3.68,1.77-4,4.58-2.34,8,.27.59,1.14.08.87-.51Z"/><path d="M69.94,107.3c-.56,1.65-1.16,4.19.86,5,1.65.65,4,.93,5-.92,1.75-3.37-3.77-7-6.08-4-.4.5.31,1.22.71.71,1.58-2,5.73.44,4.5,2.82-.67,1.3-2.34,1-3.47.59-1.6-.53-1-2.66-.54-3.89.21-.61-.76-.88-1-.27Z"/><path d="M50.59,121.32a8.79,8.79,0,0,0,.17,1.67,6.3,6.3,0,0,1,.43,2.45c-.16.67-.79,1-1.29,1.44a10.79,10.79,0,0,0-1.14,1.35c-.38.52.49,1,.87.51a12.81,12.81,0,0,1,1.87-1.92,2,2,0,0,0,.8-1.12c.26-1.36-.69-3-.7-4.39a.5.5,0,0,0-1,0Z"/><path d="M52,121.15c.57,1.45,2.16,4.06,1.4,5.67-.61,1.29-1.79,2.42-2.51,3.69a.5.5,0,0,0,.87.51c.84-1.49,2.67-3,2.92-4.78s-1.12-3.84-1.71-5.35c-.23-.6-1.2-.34-1,.27Z"/></g></g></svg>