<svg xmlns="http://www.w3.org/2000/svg" viewBox="0 0 158 169"><defs><style>.cls-1{fill:#f9fafb;}.cls-2{fill:#5995da;}</style></defs><title>bs</title><g id="Layer_2" data-name="Layer 2"><g id="bp_cover" data-name="bp cover"><rect class="cls-1" width="158" height="169" rx="12" ry="12"/><path class="cls-2" d="M67.06,61.28a13.13,13.13,0,0,0,.13,3.07.53.53,0,0,0,.37.37c1.93.56,4.43.18,6.44.18h8a.53.53,0,0,0,.53-.52c0-1.05.39-3-.5-3.86-1.1-1-5-.94-6.48-1.05-2-.14-5.11-.52-7,.44-1.43.74-.93,2.07-.85,3.56,0,.56.9.75,1,.14a8.45,8.45,0,0,1,.71-2.27h-.91a8.54,8.54,0,0,1,.87,2.75c.12.59,1,.44,1-.14V62.22a.53.53,0,0,0-.66-.51c-.76.15-.78.2-1.23.82l1,.13c-.5-1.68,4.88-.92,5.42-.87,1.89.17,3.64.23,5.23,1.38a.53.53,0,0,0,.79-.45l-.11-1-1,.14c.61,1.78-3,1-3.72,1C75,62.81,71.9,63,71.12,62l-.37.9a69.94,69.94,0,0,1,7.49.08.53.53,0,0,0,.14-1l-5-1.31a.53.53,0,0,0-.59.24l-.56,1,1,.13c-.32-1.15-.92-2.59-.6-3.74.23-.82,1.31-2.83,2.61-2.28.69.29.82.93.9,1.59q.71,1.06-.32,1.29-1.29,1-2.12-1.28l-.26,1c1.17,0,.88,3.41.67,4A29.44,29.44,0,0,1,72.7,66h.91l-.37-.87c-.12-.67-1.12-.38-1,.28.22,1.41-.7,6.77,2.45,5.42a.51.51,0,0,0,.26-.45q0-2.53-.18-5.06l-1,.14a11.71,11.71,0,0,1,.89,4.94l1-.14c-.77-3.23-.86-3.93,2.16-4.65,1.78-.42,3.53-.93,5.27-1.48.64-.2.37-1.22-.28-1a78,78,0,0,1-8.48,2.16.53.53,0,0,0-.39.51,27.07,27.07,0,0,0,.71,4.75.53.53,0,0,0,1-.14,12.16,12.16,0,0,0-.93-5.22c-.2-.5-1.07-.5-1,.14s.08,1.35.1,2c0,.38.38,3-.16,1.48a23.08,23.08,0,0,1-.41-3.7l-1,.28a1.64,1.64,0,0,0,.47,1.12.53.53,0,0,0,.91,0c.94-2,4.39-9.07-.21-9a.53.53,0,0,0-.26,1c2.87,2,3.8-2.82.45-2a1.67,1.67,0,0,0-1.31,2.4c.79,1.8,3.38,1.33,4.88,1.12.3,0,.41-.4.37-.65l-.79-4.08a.53.53,0,0,0-.51-.39c-1.32.09-3.61-.34-4.4,1-1,1.63-.1,4.74.37,6.42a.53.53,0,0,0,1,.13c.64-1.16,4,.27,5,.53l.14-1a69.94,69.94,0,0,0-7.49-.08.53.53,0,0,0-.37.9c.76.91,1.83.8,3,.92a67.68,67.68,0,0,0,7.33.31.53.53,0,0,0,.53-.53,3.32,3.32,0,0,0-.31-1.88c-.18-.52-1.1-.48-1,.14l.11,1,.79-.45c-2-1.42-13.57-4-12.19.68a.53.53,0,0,0,1,.13l.61-.34-.66-.51v1.72l1-.14a13.15,13.15,0,0,0-1-3,.53.53,0,0,0-.91,0,13.25,13.25,0,0,0-.82,2.52l1,.14c-.19-3.76,4.88-3.11,7.32-2.9.77.07,4.22,0,4.91.66a1.72,1.72,0,0,1-.16,2.63c-.48.28-2.88,0-3.45,0H74a22.78,22.78,0,0,1-3.45,0c-2-.32-2.44-.55-2.45-2.57a.53.53,0,0,0-1,0Z"/><path class="cls-2" d="M81.39,62.15A.77.77,0,0,1,82.5,63c-.06.67,1,.67,1,0a1.81,1.81,0,0,0-2.44-1.84c-.63.24-.36,1.25.28,1Z"/><path class="cls-2" d="M74.62,56.27a24.48,24.48,0,0,0,.58,5.15c.15.66,1.16.38,1-.28a23.12,23.12,0,0,1-.54-4.87.53.53,0,0,0-1,0Z"/><path d="M72.09,59.52a41.35,41.35,0,0,0-5.51,0,.46.46,0,0,0-.45.45l.11,5.28a.45.45,0,0,0,.45.45A18.79,18.79,0,0,1,70,65.55c1.7.18,1.4.06,1.36,1.66,0,1.39-.46,2.74,0,4.08a.45.45,0,0,0,.31.31,23.4,23.4,0,0,0,5.17-.08.46.46,0,0,0,.45-.45c0-.92-.63-3.61-.23-4.38.72-1.39,4.59-1.33,6-1.6a.46.46,0,0,0,.31-.55c-.35-1.88-.15-3.86-1.78-4.89-.86-.55-2.5-.11-3.29-.73-1.26-1-.94-3.1-1.1-4.54,0-.22-.19-.48-.45-.45a47.94,47.94,0,0,1-5.08.29.46.46,0,0,0-.43.33c-.16.86-1.59,6.48,1,5.83a.45.45,0,0,0-.24-.87c-.47.12-.31-1.73-.3-1.82.08-1.59.35-2.19,1.91-2.61,3.17-.85,3,1.67,3.1,4a.46.46,0,0,0,.33.43c2,.44,5.42.52,5.16,3.35-.22,2.37-3.77,2.13-5.79,2.41-.26,0-.35.34-.31.55.33,2,1.31,4.78-1.47,4.84-3.29.07-2.42-3.12-1.88-5.42a.46.46,0,0,0-.43-.57c-.88-.05-3.8.4-4.46,0-.84-.53-1.18-2.66-.75-3.42.83-1.45,3.5-1.07,5-.88C72.66,60.49,72.65,59.59,72.09,59.52Z"/><path d="M116.35,104.67c-13.79,1.24-27.23-.07-40.94-1.24q-10.72-.92-21.45-1.8c-4.21-.34-8.66-1.12-12.88-.68-1.33.14-2.65.43-4,.7s-4.36,1.67-5.71,1.34c-3.62-.88-2.18-10.21-2.14-13,.14-9.81.55-19.74-.45-29.51-.48-4.66-1.33-9.29-1.35-14,0-2.84.2-5.79,1.64-8.31,2.71-4.76,7.83-3.16,12.19-2.61C55,37.36,68.88,36.77,82.65,36c8.06-.44,16.11-.95,24.18-1.08a81.54,81.54,0,0,1,9.37.06c4.32.43,6,2.87,6,6.93-.06,11.15-.23,22.25.06,33.41a.45.45,0,0,0,.9,0c-.3-11.1-.81-22.31-.06-33.41.22-3.31,0-5.75-3.43-7.13-4.89-2-11.64-.82-16.71-.67-16.1.48-32.18,2.17-48.3,1.62-3.83-.13-7.67-.38-11.48-.81-2.93-.33-6.4-1.55-9.39-1.21-3.32.38-5.44,3.18-6.44,6.17-1.7,5.06-.65,11,0,16.16a143.85,143.85,0,0,1,1.1,15.72c.09,6.09,0,12.17-.1,18.26,0,3.49-1.11,9,.2,12.28.95,2.41,2.55,1.65,4.66,1.15,3.51-.85,7.06-1.78,10.69-1.68,6.34.17,12.72,1,19,1.49,17.76,1.48,35.58,3.91,53.41,2.3.57-.05.58-1,0-.9Z"/><path d="M28.4,45.25c16.25-1.22,32.16.26,48.39.53,15.12.25,30.18-.15,45.3.66.58,0,.58-.87,0-.9-15.13-.81-30.18-.4-45.3-.66-16.23-.27-32.14-1.75-48.39-.53-.57,0-.58.94,0,.9Z"/><path d="M36.07,38.49a1.66,1.66,0,0,1,2,.77,1.39,1.39,0,0,1-.81,1.95c-1.68.71-2.74-1.67-1.35-2.63.47-.33,0-1.11-.45-.78A2.56,2.56,0,0,0,34.61,41a2.24,2.24,0,0,0,3,1.08,2.3,2.3,0,0,0,1.36-3,2.56,2.56,0,0,0-3.13-1.45c-.54.19-.31,1.06.24.87Z"/><path d="M42.94,37.58a2.18,2.18,0,0,0-1.2,3.13,2.56,2.56,0,0,0,3.16.91,2.18,2.18,0,0,0,1.25-3,2.62,2.62,0,0,0-3.39-1.37c-.53.23-.07,1,.45.78,1.67-.73,3.26,2,1.31,2.75a1.73,1.73,0,0,1-1.85-.35,1.27,1.27,0,0,1,.52-2,.45.45,0,0,0-.24-.87Z"/><path d="M50.49,37.83a2.36,2.36,0,0,0-2.24,2.46,2.07,2.07,0,0,0,2.4,1.94,2.24,2.24,0,0,0,2.11-2.42,2.55,2.55,0,0,0-3.08-2.09.45.45,0,0,0,.24.87,1.64,1.64,0,0,1,2,1.38,1.37,1.37,0,0,1-1.37,1.37c-1.85.16-1.65-2.61,0-2.61a.45.45,0,0,0,0-.9Z"/><path d="M125,87.89c-4.54.36-5.39,3.16-7.64,6.85-.57.94-5.42,6.61-2.83,8.11s4.53-4.93,2.7,1.56c-.7,2.47-3.43,6.69-3,9.15.18,1,1.42,1.77,2.14,2.38a63.78,63.78,0,0,0,7.61,5.45c1.11.69,2.5,1.86,3.91,1.79,4.11-.21,3.6-5.53,3.53-8.28-.2-7.51-.07-15.16-.71-22.64C130.3,88,129,88,125,87.89a.45.45,0,0,0,0,.9c3.27.06,4.61.72,4.84,4.16.18,2.65.16,5.32.24,8l.24,8c.07,2.41.94,6.37.25,8.61q.28,1.87-2.28,2.34-1.45,2.73-3.08,1.22c-1-.21-2.28-1.45-3.11-2-2-1.33-6.16-3.36-6.68-5.67-.39-1.74,1.37-4.58,1.93-6.31.79-2.44,1.41-4.91,1.95-7.42a.46.46,0,0,0-.66-.51c3.48-1.88-1.52.81-1.29.77-3.73.73-1.15-1.58-.19-3.16,2-3.24,3.52-7.65,7.83-8C125.53,88.75,125.53,87.85,125,87.89Z"/><path d="M115.77,115.54c-2.36,3.17-2.62,4.9-1.39,8.51.87,2.58.87,5.17,1.39,7.81.2,1,.31,2.26,1.34,2.84a2.61,2.61,0,0,0,3.43-1.16,5.45,5.45,0,0,0,.41-3.44c-.35-3.63-2-6.91.24-10.34.32-.48-.46-.94-.78-.45a7.79,7.79,0,0,0-1.37,4.35,14.66,14.66,0,0,0,.26,2.6q.26,1.36.55,2.71,1.5,2.79-1.37,3-2.59,2-1.95-1.54-.09-1-.22-2a25.71,25.71,0,0,0-.48-2.72c-.28-1.14-.81-2.19-1.12-3.31-.71-2.63.44-4.5,1.86-6.41.35-.46-.43-.91-.78-.45Z"/><path d="M122.84,122.22c1.36,3.83,1.75,7.54,2.31,11.53.18,1.28.6,3.07,2.17,3.24s2.46-1.34,2.63-2.68a22.48,22.48,0,0,0-.46-5.18l-.77-6.73c-.07-.57-1-.58-.9,0l.77,6.73a13.4,13.4,0,0,1,.39,3.37q.62,2.24-2.69,2.39a4.48,4.48,0,0,1-.23-1.19c-.59-4-1-7.81-2.36-11.72-.19-.54-1.06-.31-.87.24Z"/><path d="M117.48,135.36a3,3,0,0,1,.07,3.73,4.23,4.23,0,0,0-.95,1.61c-.12.88.54,1.34,1.35,1.37,2.43.09,4-2.62,3.5-4.76a.46.46,0,0,0-.82-.11q-.67-.46-.39-1,.11-.33.24-.65a3,3,0,0,0,.15-.85,1.64,1.64,0,0,0-.54-1.23c-.41-.41-1,.23-.64.64,1,1-1,2.65.19,3.75a1.12,1.12,0,0,0,1.77-.18l-.82-.11a3,3,0,0,1-2,3.52c-1.26.38-.76-.84-.37-1.39a4.86,4.86,0,0,0,.53-.87,4,4,0,0,0-.65-4.09c-.36-.45-1,.19-.64.64Z"/><path d="M125.55,136.07c.45,1.64,1,3.47.39,5.15-.45,1.27-1.85,1.63-2.28,2.76-.53,1.41,1.13,1.4,2.07,1.29s2.9-.63,3.22-1.62c.47-1.46-2.06-1.73-2.9-1.86-.57-.08-.81.78-.24.87.41.06,2.17.1,2,.94-.08.32-1.42.65-1.76.72-.72.15-1.65.42-.85-.62.23-.3.63-.51.89-.82,1.63-2,1-4.77.36-7a.45.45,0,0,0-.87.24Z"/><path d="M128.93,141.9l.4-6.07c0-.58-.86-.58-.9,0l-.4,6.07c0,.58.86.58.9,0Z"/><path d="M118.87,79.87c-.16,1.69-.8,4-.37,5.64a1.83,1.83,0,0,0,.71,1.09c.43.32,2.51.74,2.05,1.53a.45.45,0,0,0,.78.45c.53-.9,0-1.74-.87-2.19-.25-.13-.59-.13-.83-.27-1.26-.74-1-1.47-.92-2.49.11-1.25.24-2.51.35-3.76.05-.58-.85-.57-.9,0Z"/><path d="M119.27,77a2.54,2.54,0,0,0-.41,3.07c.76,1.33,1.94,1.4,2.51,3.09a12.19,12.19,0,0,0,1,3c1.57,2.46,5.73,3.88,6.8.22a4.36,4.36,0,0,0-1.31-4.19c-.73-.75-1-.61-1.24-1.61a4.09,4.09,0,0,1,.24-2,6.15,6.15,0,0,0,.16-2.34c-.76-3.27-4.57-2-4.27,1.09l.68-.39a3.75,3.75,0,0,0-4.06,0c-.48.32,0,1.1.45.78l3.16,0c.28.13.71,0,.68-.39q3.23-1.44,2.34,1a10.07,10.07,0,0,1-.37,1.33,3.19,3.19,0,0,0-.15.93c.2,1.45,1.65,1.89,2.3,3.15Q130,86.39,124,86.73a5.38,5.38,0,0,1-1.52-2.35,21.9,21.9,0,0,0-.5-2.24c-.64-1.41-3.71-2.54-2.13-4.55C120.26,77.15,119.62,76.51,119.27,77Z"/><path d="M114.48,97.39c0-.76.42-2.61-.41-3.1s-1.39.44-1.68,1.06a4.92,4.92,0,0,0,1.42,5.83c.45.35,1.09-.28.64-.64a4.06,4.06,0,0,1-1.58-3.43c0-.34.17-1.68.6-1.73.28,0,.12.46.12.76v1.25a.45.45,0,0,0,.9,0Z"/><path d="M39.45,84.62c.22,2.8.35,5.65.75,8.44.2,1.42.63,2.11,2.15,2,1.69-.08,3.44-.43,5.12-.64.75-.09,1.77-.08,2.27-.76s.22-2,.15-2.85l-.48-6.11a.46.46,0,0,0-.45-.45l-9.06-.12a.45.45,0,0,0,0,.9l9.06.12-.45-.45c.18,2.27.83,5,.57,7.26-.13,1.15-.41,1.4-1.61,1.56L46,93.75a16.7,16.7,0,0,1-3.66.46c-1.53-.2-1.33-1.81-1.45-3.09-.21-2.16-.38-4.33-.55-6.5C40.3,84,39.4,84,39.45,84.62Z"/><path d="M58.3,86.22a53,53,0,0,0,.08,5.36,8.26,8.26,0,0,0,.35,3c.88,1.7,4.44,1.59,6.12,1.55,1.41,0,3.84-.17,4.23-1.9.24-1.05-.41-2.36-.59-3.4a24.12,24.12,0,0,1-.25-5.56.46.46,0,0,0-.57-.43L59.92,85.9c-.57.08-.33.95.24.87l7.76-1.12-.57-.43a25.13,25.13,0,0,0,.18,5.1c.1.7.32,1.41.39,2.1.25,2.23-1.18,2.71-3.06,2.77a9.8,9.8,0,0,1-3.63-.33l-.74-.12a2.84,2.84,0,0,1-1.14-2.38,28.76,28.76,0,0,1-.14-6.12c0-.58-.88-.58-.9,0Z"/><path d="M99.31,91.43l.52-3.79c.06-.44,0-1.75.29-2.11.5-.58,1.83-.38,2.5-.34,1.48.09,3,.42,4.46.63,1.85.26,2.6.53,2.71,2.6.07,1.38.14,2.75.21,4.13a4.51,4.51,0,0,1,.06,1.5l-2.5,1.48-1.24-.19A43.76,43.76,0,0,0,99.08,95a.45.45,0,0,0,0,.9,43.86,43.86,0,0,1,7.4.41c1.19.17,2.77.65,3.78-.29.81-.76.69-2,.65-3-.05-1.22-.12-2.45-.19-3.67a11.07,11.07,0,0,0-.21-3c-.4-1.09-1.28-1.08-2.32-1.24a61.24,61.24,0,0,0-7.13-1c-.84,0-1.28,0-1.71.75A8.11,8.11,0,0,0,99,87.4l-.52,3.79c-.08.57.79.81.87.24Z"/><path d="M43.09,51a421.68,421.68,0,0,1,49-.76q2.94.13,5.87.3c1.08.06,4.94-.16,5.87.38,2.72,1.61.73,8.59.57,11.31-.23,3.85,0,7.82-.42,11.65-.25,2.39.19,2.81-1.8,3.48-1.36.46-3.59.06-5,.09-6.54.1-13.12.33-19.64-.15-4.92-.36-9.8-1.18-14.73-1.47-2.74-.16-5.48-.2-8.22-.13q-2.41.06-4.83.23c-1,.07-4.34,1-5.28.5-2.59-1.39-1.14-8.65-1.06-11.19l.41-13.86a.45.45,0,0,0-.9,0l-.75,25.74a.45.45,0,0,0,.45.45,126.44,126.44,0,0,1,30.27.2c10.46,1.17,21,.68,31.55.46a.46.46,0,0,0,.45-.45q0-13.61,1.38-27.15c0-.25-.23-.43-.45-.45a426.27,426.27,0,0,0-62.65-.07c-.57,0-.58.94,0,.9Z"/><path d="M91.08,88.43c-.08,1.57,0,3.79-.9,5.23s-3.68.58-5.25.31c-.91-.16-2.78-.12-3.55-.62-1.18-.76-.84-2.13-.86-3.3,0-2.2-1-6.44,2.48-6.1a31.94,31.94,0,0,0,4.32.3c.83,0,2.29-.43,3.1-.08,1.31.55.71,3.13.66,4.27,0,.58.88.58.9,0,.05-1.25.61-3.59-.41-4.64-.86-.89-2.4-.55-3.47-.49a24.26,24.26,0,0,1-4.86-.22,4.49,4.49,0,0,0-2.35,0c-2,.84-1.33,4-1.3,5.62s-.73,4.77,1.33,5.5a35.48,35.48,0,0,0,5.54,1c.89.15,2.53.79,3.41.51,1.94-.61,2-5.7,2.1-7.22C92,87.86,91.11,87.86,91.08,88.43Z"/></g></g></svg>